SplineFontDB: 3.0
FontName: Sebastian-Acc-Art
FullName: Sebastian-Acc-Art
FamilyName: Sebastian-Acc-Art
Weight: Standard

StartChar: parenleft
Encoding: 40 40 1
Width: 980
Flags: W
HStem: -13 25<0 980> 237 25<0 980> 487 25<0 980> 737 25<0 980> 987 25<0 980>
LayerCount: 2
Fore
SplineSet
0 987 m 0
 0 1012 l 0
 980 1012 l 0
 980 987 l 0
 0 987 l 0
0 737 m 0
 0 762 l 0
 980 762 l 0
 980 737 l 0
 0 737 l 0
0 487 m 0
 0 512 l 0
 980 512 l 0
 980 487 l 0
 0 487 l 0
0 237 m 0
 0 262 l 0
 980 262 l 0
 980 237 l 0
 0 237 l 0
0 -13 m 0
 0 12 l 0
 980 12 l 0
 980 -13 l 0
 0 -13 l 0
EndSplineSet
EndChar

StartChar: zero
Encoding: 48 48 2
Width: 281
Flags: W
HStem: -4 19<114.081 161.828> 296 19<114.081 161.828>
VStem: 24 63<62.105 250.102> 188 63<60.4265 250.102>
LayerCount: 2
Fore
SplineSet
24 156 m 0
 24 244 72 315 138 315 c 4
 204 315 251 244 251 156 c 0
 251 68 204 -4 138 -4 c 0
 72 -4 24 68 24 156 c 0
138 296 m 0
 97 296 87 235 87 167 c 2
 87 142 l 2
 87 74 97 15 138 15 c 0
 179 15 188 74 188 142 c 2
 188 167 l 2
 188 235 179 296 138 296 c 0
EndSplineSet
EndChar

StartChar: one
Encoding: 49 49 3
Width: 256
Flags: W
HStem: 0 21<52 101.411 176.026 226>
VStem: 110 58<23.2433 233.323>
LayerCount: 2
Fore
SplineSet
168 57 m 2
 168 28 185 21 205 21 c 2
 226 21 l 1
 226 0 l 1
 52 0 l 1
 52 21 l 1
 73 21 l 2
 93 21 110 30 110 58 c 2
 110 226 l 2
 110 240 98 240 91 233 c 2
 37 182 l 1
 23 196 l 1
 113 311 l 1
 168 311 l 1
 168 57 l 2
EndSplineSet
EndChar

StartChar: two
Encoding: 50 50 4
Width: 276
Flags: W
HStem: -4 53<115.925 216.774> 27 39<67.4875 133.131> 187 69<63.0491 102.922> 295 20<91.544 160.689>
VStem: 33 72<190.888 253.069> 187 59<177.827 282.003> 224 21<65.948 94>
LayerCount: 2
Fore
SplineSet
71 256 m 0x7c
 92 256 105 242 105 222 c 0
 105 201 92 187 71 187 c 0
 51 187 33 203 33 230 c 0
 33 271 75 315 142 315 c 0
 198 315 246 283 246 232 c 0
 246 178 201 156 162 133 c 0
 132 116 103 94 81 65 c 1
 87 66 93 66 99 66 c 0x7c
 131 66 153 49 183 49 c 0
 202 49 222 66 224 94 c 1
 245 94 l 1
 247 59 241 -4 177 -4 c 0xba
 133 -4 118 27 85 27 c 0
 69 27 56 17 50 0 c 1
 31 0 l 1
 34 47 81 107 113 131 c 0
 172 175 187 201 187 234 c 0
 187 275 157 295 126 295 c 0
 99 295 73 279 63 256 c 1
 64 257 68 256 71 256 c 0x7c
EndSplineSet
EndChar

StartChar: three
Encoding: 51 51 5
Width: 278
Flags: W
HStem: -4 21<77.7924 161.001> 40 66<60 96.2483> 151 19<91 145.381> 211 59<75 105.761> 295 20<93.9112 165.309>
VStem: 30 69<40.7384 102.701> 46 61<212.443 268.637> 185 54<192.163 286.629> 188 60<31.1536 131.027>
LayerCount: 2
Fore
SplineSet
164 162 m 1xfb
 213 150 248 124 248 81 c 0
 248 37 206 -4 130 -4 c 0
 79 -4 30 24 30 63 c 0
 30 90 47 106 66 106 c 0
 85 106 99 89 99 71 c 0
 99 53 86 36 60 40 c 1
 66 30 91 17 121 17 c 0
 169 17 188 45 188 87 c 0xfc80
 188 126 161 151 91 151 c 1
 91 170 l 1
 160 170 185 200 185 237 c 0
 185 273 168 295 131 295 c 0
 111 295 86 286 75 270 c 1
 95 273 107 257 107 241 c 0
 107 225 93 211 77 211 c 0
 61 211 46 223 46 242 c 0
 46 282 90 315 139 315 c 0
 191 315 239 285 239 240 c 0
 239 203 207 176 164 162 c 1xfb
EndSplineSet
EndChar

StartChar: four
Encoding: 52 52 6
Width: 299
Flags: W
HStem: 0 21<107 142.443 220.625 256> 93 22<56 152 211 269>
VStem: 115 89<274.048 311> 152 59<23.1037 93 115 168>
LayerCount: 2
Fore
SplineSet
211 93 m 1xd0
 211 57 l 2
 211 36 226 21 243 21 c 2
 256 21 l 1
 256 0 l 1
 107 0 l 1
 107 21 l 1
 119 21 l 2
 136 21 152 34 152 57 c 2
 152 93 l 1xd0
 27 93 l 1
 27 112 l 1
 69 173 100 238 115 311 c 1
 204 311 l 1xe0
 171 239 111 200 56 115 c 1
 152 115 l 1
 152 168 l 1
 211 233 l 1
 211 115 l 1
 269 115 l 1
 269 93 l 1
 211 93 l 1xd0
EndSplineSet
EndChar

StartChar: five
Encoding: 53 53 7
Width: 264
Flags: W
HStem: -4 20<73.2092 145.165> 29 65<69 97.8811> 164 22<85.8548 151.651> 258 53<72 170.58>
VStem: 32 68<30.2378 91.6568> 50 22<169 258> 172 62<34.7374 154.657>
LayerCount: 2
Fore
SplineSet
69 29 m 1xfa
 75 24 83 16 112 16 c 0
 144 16 172 37 172 96 c 0
 172 142 151 164 122 164 c 0
 100 164 76 152 62 130 c 1
 50 135 l 1
 50 311 l 1
 216 311 l 1
 201 259 132 248 72 258 c 1
 72 169 l 1xf6
 89 178 105 186 136 186 c 0
 184 186 234 157 234 96 c 0
 234 35 184 -4 123 -4 c 0
 68 -4 32 21 32 59 c 0
 32 79 47 94 67 94 c 0
 87 94 100 79 100 59 c 0
 100 39 84 29 69 29 c 1xfa
EndSplineSet
EndChar

StartChar: six
Encoding: 54 54 8
Width: 271
Flags: W
HStem: -4 19<115.227 165.645> 164 21<118.791 173.056> 295 20<129.344 170.885>
VStem: 31 56<48.0199 144.773 150 243.721> 156 70<230.343 290.856> 187 54<32.6275 160.078>
LayerCount: 2
Fore
SplineSet
156 263 m 0xf8
 156 280 164 288 171 291 c 1
 167 293 163 295 154 295 c 0
 111 295 87 228 87 168 c 2
 87 150 l 1
 98 163 125 185 157 185 c 0
 205 185 241 158 241 98 c 0xf4
 241 37 197 -4 140 -4 c 0
 64 -4 31 62 31 150 c 0
 31 237 78 315 154 315 c 0
 196 315 226 289 226 263 c 0
 226 243 211 228 191 228 c 0
 171 228 156 243 156 263 c 0xf8
148 164 m 0
 126 164 90 142 90 94 c 2
 90 87 l 2
 90 60 103 15 139 15 c 0
 174 15 187 47 187 97 c 0
 187 142 177 164 148 164 c 0
EndSplineSet
EndChar

StartChar: seven
Encoding: 55 55 9
Width: 260
Flags: W
HStem: 244 48<109.627 187.637> 258 57<40.4683 154.051>
VStem: 14 20<204 242.098 298.399 315> 53 73<0 53.7781>
LayerCount: 2
Fore
SplineSet
188 252 m 1x70
 180 246 169 244 155 244 c 0xb0
 129 244 107 258 77 258 c 0
 48 258 34 236 34 204 c 1
 14 204 l 1
 14 315 l 1
 34 315 l 1
 36 279 56 300 72 308 c 0
 80 313 89 315 98 315 c 0x70
 130 315 135 292 166 292 c 0xb0
 185 292 196 300 201 315 c 1
 220 315 l 1
 220 196 130 94 126 0 c 1
 53 0 l 1
 73 87 157 167 188 252 c 1x70
EndSplineSet
EndChar

StartChar: eight
Encoding: 56 56 10
Width: 283
Flags: W
HStem: -4 20<99.8989 178.018> 295 21<108.531 181.839>
VStem: 30 38<36.5624 123.247> 43 49<220.765 282.934> 203 50<34.9386 106.881> 203 36<199.171 282.324>
LayerCount: 2
Fore
SplineSet
92 256 m 0xd4
 92 228 130 208 168 185 c 1
 191 200 203 219 203 242 c 0
 203 272 183 295 146 295 c 0
 117 295 92 281 92 256 c 0xd4
203 65 m 0xe8
 203 104 159 123 117 145 c 1
 88 131 68 109 68 80 c 0
 68 50 92 16 139 16 c 0
 184 16 203 43 203 65 c 0xe8
99 156 m 1
 68 174 43 197 43 234 c 0
 43 279 93 316 144 316 c 0
 197 316 239 286 239 244 c 0xd4
 239 213 218 190 187 173 c 1
 222 152 253 126 253 89 c 0
 253 37 199 -4 139 -4 c 0
 74 -4 30 36 30 76 c 0
 30 116 60 139 99 156 c 1
EndSplineSet
EndChar

StartChar: nine
Encoding: 57 57 11
Width: 270
Flags: W
HStem: -4 19<90.3477 138.391> 126 22<98.2487 155.497> 296 19<105.509 160.951>
VStem: 31 54<152.723 279.107> 37 72<17.145 79.0124> 185 55<68.998 158 166.169 265.759>
LayerCount: 2
Fore
SplineSet
90 17 m 1xec
 95 15 101 15 106 15 c 0
 161 15 185 79 185 150 c 2
 185 158 l 1
 174 145 149 126 121 126 c 0
 71 126 31 156 31 214 c 0xf4
 31 272 72 315 133 315 c 0
 204 315 240 259 240 169 c 0
 240 66 189 -4 106 -4 c 0
 73 -4 37 15 37 47 c 0
 37 67 52 82 72 82 c 0
 92 82 109 67 109 47 c 0
 109 29 97 20 90 17 c 1xec
127 148 m 0
 155 148 183 179 183 219 c 2
 183 227 l 2
 183 265 167 296 134 296 c 0
 99 296 85 272 85 213 c 0
 85 168 95 148 127 148 c 0
EndSplineSet
EndChar

StartChar: bracketleft
Encoding: 91 91 12
Width: 249
Flags: W
VStem: 108 33<-364.996 -214.383 -113.983 -50.2363 49.3534 113.983 214.383 364.996>
LayerCount: 2
Fore
SplineSet
109 -73 m 0
 109 -50 101 -46 79 -52 c 0
 24 -69 l 0
 4 -75 0 -72 0 -52 c 0
 0 -23 l 0
 0 -2 3 1 21 6 c 0
 80 24 l 0
 106 32 109 42 109 66 c 0
 109 94 l 0
 109 114 99 119 74 111 c 0
 24 96 l 0
 4 90 0 93 0 113 c 0
 0 142 l 0
 0 163 3 166 21 171 c 0
 75 187 l 0
 97 194 108 200 108 230 c 0
 108 277 105 334 105 352 c 0
 105 361 108 365 124 365 c 0
 141 365 144 359 144 350 c 0
 144 332 141 276 141 235 c 0
 141 209 151 211 173 217 c 0
 225 233 l 0
 244 239 249 231 249 215 c 0
 249 190 l 0
 249 166 246 163 225 157 c 0
 166 139 l 0
 142 132 140 124 140 99 c 0
 140 73 l 0
 140 49 145 44 169 51 c 0
 225 68 l 0
 244 74 249 66 249 50 c 0
 249 29 l 0
 249 5 246 -2 225 -8 c 0
 168 -25 l 0
 146 -32 140 -42 140 -66 c 0
 140 -94 l 0
 140 -114 150 -119 175 -111 c 0
 225 -96 l 0
 245 -90 249 -93 249 -113 c 0
 249 -142 l 0
 249 -163 246 -166 228 -171 c 0
 174 -187 l 0
 152 -194 141 -200 141 -230 c 0
 141 -277 144 -334 144 -352 c 0
 144 -361 141 -365 125 -365 c 0
 108 -365 105 -359 105 -350 c 0
 105 -332 108 -276 108 -235 c 0
 108 -209 98 -211 76 -217 c 0
 24 -233 l 0
 5 -239 0 -231 0 -215 c 0
 0 -190 l 0
 0 -166 3 -163 24 -157 c 0
 83 -139 l 0
 107 -132 109 -124 109 -99 c 0
 109 -73 l 0
EndSplineSet
EndChar

StartChar: bracketright
Encoding: 93 93 13
Width: 249
Flags: W
VStem: 109 31<-314.559 -53.1429 54.087 364.974>
LayerCount: 2
Fore
SplineSet
109 150 m 0
 109 218 105 323 105 352 c 0
 105 361 110 365 126 365 c 0
 143 365 144 359 144 350 c 0
 144 321 140 226 140 156 c 0
 140 77 l 0
 140 54 148 50 170 56 c 0
 225 73 l 0
 245 79 249 76 249 56 c 0
 249 19 l 0
 249 -2 246 -5 228 -10 c 0
 169 -28 l 0
 143 -36 140 -46 140 -70 c 0
 140 -138 l 0
 140 -185 142 -249 143 -295 c 0
 143 -317 155 -322 171 -314 c 0
 185 -307 196 -299 203 -299 c 0
 205 -299 209 -301 209 -306 c 0
 209 -316 199 -325 165 -384 c 0
 137 -433 135 -453 125 -453 c 0
 111 -453 115 -434 85 -383 c 0
 53 -330 43 -318 43 -306 c 0
 43 -300 49 -299 51 -299 c 0
 59 -299 67 -304 78 -310 c 0
 93 -319 106 -320 106 -294 c 0
 107 -249 109 -190 109 -154 c 0
 109 -77 l 0
 109 -53 104 -48 80 -55 c 0
 24 -72 l 0
 5 -78 0 -70 0 -54 c 0
 0 -21 l 0
 0 3 3 6 24 12 c 0
 81 29 l 0
 103 36 109 46 109 70 c 0
 109 150 l 0
EndSplineSet
EndChar

StartChar: underscore
Encoding: 95 95 14
Width: 249
Flags: W
VStem: 109 31<-314.559 -172.327 -65.2531 65.2531 172.103 364.996>
LayerCount: 2
Fore
SplineSet
109 -190 m 0
 109 -178 102 -167 81 -174 c 0
 24 -191 l 0
 5 -197 0 -189 0 -173 c 0
 0 -140 l 0
 0 -116 3 -113 24 -107 c 0
 85 -88 l 0
 107 -82 109 -74 109 -52 c 0
 109 44 l 0
 109 68 104 70 83 64 c 0
 24 46 l 0
 4 40 0 43 0 63 c 0
 0 100 l 0
 0 121 3 124 21 129 c 0
 81 147 l 0
 104 154 109 162 109 184 c 0
 109 244 105 326 105 352 c 0
 105 361 108 365 124 365 c 0
 141 365 144 359 144 350 c 0
 144 325 140 246 140 190 c 0
 140 171 147 167 168 174 c 0
 225 191 l 0
 244 197 249 189 249 173 c 0
 249 140 l 0
 249 116 246 113 225 107 c 0
 164 88 l 0
 142 82 140 74 140 52 c 0
 140 -44 l 0
 140 -68 145 -70 166 -64 c 0
 225 -46 l 0
 245 -40 249 -43 249 -63 c 0
 249 -100 l 0
 249 -121 246 -124 228 -129 c 0
 168 -147 l 0
 145 -154 140 -166 140 -184 c 0
 140 -227 142 -249 143 -295 c 0
 143 -317 155 -322 171 -314 c 0
 185 -307 196 -299 203 -299 c 0
 205 -299 209 -301 209 -306 c 0
 209 -316 199 -325 165 -384 c 0
 137 -433 135 -453 125 -453 c 0
 111 -453 115 -434 85 -383 c 0
 53 -330 43 -318 43 -306 c 0
 43 -300 49 -299 51 -299 c 0
 59 -299 67 -304 78 -310 c 0
 93 -319 106 -320 106 -294 c 0
 107 -249 109 -231 109 -190 c 0
EndSplineSet
EndChar

StartChar: braceleft
Encoding: 123 123 15
Width: 292
Flags: W
HStem: 68 20G<0 26>
VStem: 0 26<-120 -108.27 40.4128 88> 259 33<-398.088 -241.735>
LayerCount: 2
Fore
SplineSet
0 88 m 1
 26 88 l 17
 26 40 63 -1 128 -49 c 0
 209 -109 292 -198 292 -316 c 0
 292 -371 275 -412 262 -435 c 1
 238.437 -409.5 l 1
 247.624 -385.957 259 -353.955 259 -315 c 0
 259 -242 213 -168 127 -127 c 0
 104 -116 72 -108 42 -108 c 0
 33 -108 26 -114 26 -120 c 0
 26 -120 11 -120 0 -120 c 25
 0 88 l 1
EndSplineSet
EndChar

StartChar: bar
Encoding: 124 124 16
Width: 292
Flags: W
VStem: 0 26<172 185 -75 -25> 245 37<349 585>
LayerCount: 2
Fore
SplineSet
41 193 m 0
 72 193 101 200 131 219 c 0
 204 267 258 351 258 467 c 0
 258 556 232 633 206 686 c 1
 234 700 l 1
 253 665 292 574 292 468 c 0
 292 253 145 151 73 60 c 0
 40 19 26 -30 26 -62 c 1
 0 -62 l 1
 0 206 l 0
 25 206 l 0
 25 200 32 193 41 193 c 0
EndSplineSet
EndChar

StartChar: braceright
Encoding: 125 125 17
Width: 292
Flags: W
VStem: 0 26<147 160 -75 -18> 258 34<278 500>
LayerCount: 2
Fore
SplineSet
242 503 m 1
 272 512 l 1
 279 490 292 428 292 377 c 0
 292 164 131 99 63 20 c 0
 47 2 26 -33 26 -75 c 9
 0 -75 l 1
 0 160 l 1
 25 160 l 1
 25 154 32 147 41 147 c 0
 75 147 118 158 148 175 c 0
 216 213 258 272 258 376 c 0
 258 422 248 474 242 503 c 1
EndSplineSet
EndChar

StartChar: uni007F
Encoding: 127 127 18
Width: 292
Flags: W
HStem: 100 20G<0 26 242.8 268.5>
VStem: 0 26<-88 -40.4128 108.27 120> 259 33<241.735 396.751>
LayerCount: 2
Fore
SplineSet
0 -88 m 1
 0 120 l 25
 26 120 l 0
 26 114 33 108 42 108 c 0
 72 108 104 116 127 127 c 0
 213 168 259 242 259 315 c 0
 259 354 247 386 238 410 c 1
 262 435 l 1
 275 412 292 371 292 316 c 0
 292 198 209 109 128 49 c 0
 63 1 26 -40 26 -88 c 9
 0 -88 l 1
EndSplineSet
EndChar

StartChar: uni0080
Encoding: 128 128 19
Width: 275
Flags: W
HStem: 42 20G<0 26>
VStem: 0 25<-206 -193.393 4.375 62> 241 34<-590.534 -356.415>
LayerCount: 2
Fore
SplineSet
41 -193 m 4
 32 -193 25 -200 25 -206 c 4
 0 -206 l 0
 0 62 l 1
 26 62 l 1
 26 30 40 -19 73 -60 c 0
 145 -151 275 -253 275 -468 c 0
 275 -574 236 -665 217 -700 c 1
 189 -686 l 1
 215 -633 241 -556 241 -467 c 0
 241 -351 198 -267 125 -219 c 0
 95 -200 68 -193 41 -193 c 4
EndSplineSet
EndChar

StartChar: uni0081
Encoding: 129 129 20
Width: 275
Flags: W
VStem: 0 26<-160 -147.312 18.5 75> 241 34<-500.351 -270.825>
LayerCount: 2
Fore
SplineSet
225 -503 m 1
 231 -474 241 -422 241 -376 c 0
 241 -272 210 -213 142 -175 c 0
 112 -158 75 -147 41 -147 c 0
 32 -147 25 -154 25 -160 c 1
 0 -160 l 1
 0 75 l 1
 26 75 l 17
 26 33 47 -2 63 -20 c 0
 131 -99 275 -164 275 -377 c 0
 275 -428 262 -490 255 -512 c 1
 225 -503 l 1
EndSplineSet
EndChar

StartChar: uni0082
Encoding: 130 130 21
Width: 275
Flags: W
HStem: -120 21G<0 27>
VStem: 0 27<-120 -108.207 40.8781 88> 242 33<-398.246 -233.803>
LayerCount: 2
Fore
SplineSet
242 -571 m 0
 242 -448 171 -322 41 -322 c 0
 32 -322 25 -329 25 -335 c 1
 0 -335 l 1
 0 88 l 1
 26 88 l 1
 26 40 63 1 126 -49 c 0
 205 -112 275 -198 275 -316 c 0
 275 -362 263 -399 251 -423 c 1
 267 -466 275 -515 275 -572 c 0
 275 -659 244 -748 227 -778 c 1
 198 -767 l 1
 214 -730 242 -658 242 -571 c 0
26 -120 m 0
 26 -165 68 -214 126 -259 c 0
 172 -294 207 -334 232 -380 c 1
 238 -361 242 -339 242 -315 c 0
 242 -242 207 -168 121 -127 c 0
 98 -116 67 -108 42 -108 c 0
 33 -108 26 -114 26 -120 c 0
EndSplineSet
EndChar

StartChar: uni0083
Encoding: 131 131 22
Width: 275
Flags: W
HStem: -120 21G<0 27>
VStem: 0 27<-120 -108.207 40.8781 88> 242 33<-398.246 -233.803>
LayerCount: 2
Fore
SplineSet
0 88 m 1
 26 88 l 17
 26 40 63 1 126 -49 c 0
 205 -112 275 -198 275 -316 c 0
 275 -371 258 -412 245 -435 c 1
 221 -410 l 1
 231 -386 242 -354 242 -315 c 0
 242 -242 207 -168 121 -127 c 0
 98 -116 67 -108 42 -108 c 0
 33 -108 26 -114 26 -120 c 0
 26 -120 11 -120 0 -120 c 25
 0 88 l 1
EndSplineSet
EndChar

StartChar: uni0084
Encoding: 132 132 23
Width: 275
Flags: W
HStem: 206 474G<0 25 189 226.5> 680 20G<189 226.5>
VStem: 0 26<-62 -0.354767 193.124 206> 241 34<356.415 590.534>
LayerCount: 2
Fore
SplineSet
41 193 m 4xb0
 68 193 95 200 125 219 c 0
 198 267 241 351 241 467 c 0
 241 556 215 633 189 686 c 1
 217 700 l 1x70
 236 665 275 574 275 468 c 0
 275 253 145 151 73 60 c 0
 40 19 26 -30 26 -62 c 1
 0 -62 l 1
 0 206 l 0
 25 206 l 4
 25 200 32 193 41 193 c 4xb0
EndSplineSet
EndChar

StartChar: uni0085
Encoding: 133 133 24
Width: 275
Flags: W
VStem: 0 26<147 160 -75 -18> 241 34<271 500>
LayerCount: 2
Fore
SplineSet
225 503 m 1
 255 512 l 1
 262 490 275 428 275 377 c 0
 275 164 131 99 63 20 c 0
 47 2 26 -33 26 -75 c 9
 0 -75 l 1
 0 160 l 1
 25 160 l 1
 25 154 32 147 41 147 c 0
 75 147 112 158 142 175 c 0
 210 213 241 272 241 376 c 0
 241 422 231 474 225 503 c 1
EndSplineSet
EndChar

StartChar: uni0086
Encoding: 134 134 25
Width: 275
Flags: W
HStem: 99 21G<0 27>
VStem: 0 27<108 120 -88 -41> 242 33<234 398>
LayerCount: 2
Fore
SplineSet
242 571 m 0
 242 658 214 730 198 767 c 1
 227 778 l 1
 244 748 275 659 275 572 c 0
 275 515 267 466 251 423 c 1
 263 399 275 362 275 316 c 0
 275 198 205 112 126 49 c 0
 63 -1 26 -40 26 -88 c 1
 0 -88 l 1
 0 335 l 1
 25 335 l 1
 25 329 32 322 41 322 c 0
 171 322 242 448 242 571 c 0
26 120 m 0
 26 114 33 108 42 108 c 0
 67 108 98 116 121 127 c 0
 207 168 242 242 242 315 c 0
 242 339 238 361 232 380 c 1
 207 334 172 294 126 259 c 0
 68 214 26 165 26 120 c 0
EndSplineSet
EndChar

StartChar: uni0087
Encoding: 135 135 26
Width: 275
Flags: W
HStem: 99 21G<0 27>
VStem: 0 27<108 120 -88 -41> 242 33<234 398>
LayerCount: 2
Fore
SplineSet
0 -88 m 1
 0 120 l 25
 26 120 l 0
 26 114 33 108 42 108 c 0
 67 108 98 116 121 127 c 0
 207 168 242 242 242 315 c 0
 242 354 231 386 221 410 c 1
 245 435 l 1
 258 412 275 371 275 316 c 0
 275 198 205 112 126 49 c 0
 63 -1 26 -40 26 -88 c 9
 0 -88 l 1
EndSplineSet
EndChar

StartChar: uni0088
Encoding: 136 136 27
Width: 258
Flags: W
HStem: 42 20G<0 26>
VStem: 0 25<-206 -193.393 4.375 62> 224 34<-604.518 -347.893>
LayerCount: 2
Fore
SplineSet
41 -193 m 0
 32 -193 25 -200 25 -206 c 0
 0 -206 l 0
 0 62 l 1
 26 62 l 1
 26 30 40 -19 73 -60 c 0
 145 -151 258 -253 258 -468 c 0
 258 -574 226 -662 211 -699 c 1
 181 -687 l 1
 203 -632 224 -556 224 -467 c 0
 224 -351 187 -266 119 -219 c 0
 90 -199 68 -193 41 -193 c 0
EndSplineSet
EndChar

StartChar: uni0089
Encoding: 137 137 28
Width: 258
Flags: W
VStem: 0 26<-160 -147.312 18.5 75> 241 34<-500.351 -270.825>
LayerCount: 2
Fore
SplineSet
208 -503 m 1
 214 -474 224 -422 224 -376 c 0
 224 -284 200 -222 135 -178 c 0
 106 -159 75 -147 41 -147 c 0
 32 -147 25 -154 25 -160 c 1
 0 -160 l 1
 0 75 l 1
 26 75 l 17
 26 33 47 -2 63 -20 c 0
 131 -99 258 -164 258 -377 c 0
 258 -428 245 -490 238 -512 c 1
 208 -503 l 1
EndSplineSet
EndChar

StartChar: uni008A
Encoding: 138 138 29
Width: 258
Flags: W
HStem: -120 21G<0 27>
VStem: 0 27<-120 -108.207 40.8781 88> 242 33<-398.246 -233.803>
LayerCount: 2
Fore
SplineSet
191 -768 m 1
 203 -730 225 -658 225 -571 c 0
 225 -480 192 -392 127 -351 c 0
 94 -330 67 -322 41 -322 c 0
 32 -322 25 -329 25 -335 c 1
 0 -335 l 1
 0 88 l 1
 26 88 l 1
 26 40 60 5 119 -50 c 0
 196 -121 258 -193 258 -316 c 0
 258 -363 245 -400 234 -424 c 1
 249 -467 258 -515 258 -572 c 0
 258 -659 235 -745 220 -777 c 1
 191 -768 l 1
26 -120 m 0
 26 -165 70 -207 122 -259 c 0
 159 -295 191 -335 215 -381 c 1
 221 -362 225 -340 225 -315 c 0
 225 -242 203 -177 115 -130 c 0
 93 -118 67 -108 42 -108 c 0
 33 -108 26 -114 26 -120 c 0
EndSplineSet
EndChar

StartChar: uni008B
Encoding: 139 139 30
Width: 258
Flags: W
HStem: -120 21G<0 27>
VStem: 0 27<-120 -108.207 40.8781 88> 242 33<-398.246 -233.803>
LayerCount: 2
Fore
SplineSet
0 88 m 1
 26 88 l 17
 26 40 60 5 119 -50 c 0
 196 -121 258 -193 258 -316 c 0
 258 -371 241 -412 228 -435 c 1
 204 -410 l 1
 214 -386 225 -354 225 -315 c 0
 225 -242 203 -177 115 -130 c 0
 93 -118 67 -108 42 -108 c 0
 33 -108 26 -114 26 -120 c 0
 26 -120 11 -120 0 -120 c 25
 0 88 l 1
EndSplineSet
EndChar

StartChar: uni008C
Encoding: 140 140 31
Width: 258
Flags: W
HStem: 206 473G<0 25 181 218.5> 679 20G<181 218.5>
VStem: 0 26<-62 -0.354767 193.124 206> 224 34<347.893 604.518>
LayerCount: 2
Fore
SplineSet
41 193 m 0xb0
 68 193 90 199 119 219 c 0
 187 266 224 351 224 467 c 0
 224 556 203 632 181 687 c 1
 211 699 l 1x70
 226 662 258 574 258 468 c 0
 258 253 145 151 73 60 c 0
 40 19 26 -30 26 -62 c 1
 0 -62 l 1
 0 206 l 0
 25 206 l 0
 25 200 32 193 41 193 c 0xb0
EndSplineSet
EndChar

StartChar: uni008D
Encoding: 141 141 32
Width: 258
Flags: W
VStem: 0 26<147 160 -75 -18> 241 34<271 500>
LayerCount: 2
Fore
SplineSet
208 503 m 1
 238 512 l 1
 245 490 258 428 258 377 c 0
 258 164 131 99 63 20 c 0
 47 2 26 -33 26 -75 c 9
 0 -75 l 1
 0 160 l 1
 25 160 l 1
 25 154 32 147 41 147 c 0
 75 147 106 159 135 178 c 0
 200 222 224 284 224 376 c 0
 224 422 214 474 208 503 c 1
EndSplineSet
EndChar

StartChar: uni008E
Encoding: 142 142 33
Width: 258
Flags: W
HStem: 99 21G<0 27>
VStem: 0 27<108 120 -88 -41> 242 33<234 398>
LayerCount: 2
Fore
SplineSet
191 768 m 1
 220 777 l 1
 235 745 258 659 258 572 c 0
 258 515 249 467 234 424 c 1
 245 400 258 363 258 316 c 0
 258 193 196 121 119 50 c 0
 60 -5 26 -40 26 -88 c 1
 0 -88 l 1
 0 335 l 1
 25 335 l 1
 25 329 32 322 41 322 c 0
 67 322 94 330 127 351 c 0
 192 392 225 480 225 571 c 0
 225 658 203 730 191 768 c 1
26 120 m 0
 26 114 33 108 42 108 c 0
 67 108 93 118 115 130 c 0
 203 177 225 242 225 315 c 0
 225 340 221 362 215 381 c 1
 191 335 159 295 122 259 c 0
 70 207 26 165 26 120 c 0
EndSplineSet
EndChar

StartChar: uni008F
Encoding: 143 143 34
Width: 258
Flags: W
HStem: 99 21G<0 27>
VStem: 0 27<108 120 -88 -41> 242 33<234 398>
LayerCount: 2
Fore
SplineSet
0 -88 m 1
 0 120 l 25
 26 120 l 0
 26 114 33 108 42 108 c 0
 67 108 93 118 115 130 c 0
 203 177 225 242 225 315 c 0
 225 354 214 386 204 410 c 1
 228 435 l 1
 241 412 258 371 258 316 c 0
 258 193 196 121 119 50 c 0
 60 -5 26 -40 26 -88 c 9
 0 -88 l 1
EndSplineSet
EndChar

StartChar: uni0090
Encoding: 144 144 35
Width: 218
Flags: W
HStem: 42 20G<0 26>
VStem: 0 25<-216 -203.393 2.90226 62> 184 34<-621.554 -348.559>
LayerCount: 2
Fore
SplineSet
41 -203 m 4
 32 -203 25 -210 25 -216 c 4
 0 -216 l 0
 0 62 l 1
 26 62 l 5
 26 -12 87 -89 121 -142 c 0
 170 -219 218 -311 218 -468 c 0
 218 -574 193 -660 181 -698 c 1
 151 -688 l 1
 168 -632 184 -556 184 -467 c 0
 184 -365 155 -296 115 -245 c 0
 97 -223 68 -203 41 -203 c 4
EndSplineSet
EndChar

StartChar: uni0091
Encoding: 145 145 36
Width: 218
Flags: W
VStem: 0 26<-160 -147.312 18.5 75> 241 34<-500.351 -270.825>
LayerCount: 2
Fore
SplineSet
168 -503 m 1
 174 -474 184 -422 184 -376 c 0
 184 -311 169 -255 143 -215 c 0
 122 -183 86 -152 41 -152 c 0
 32 -152 25 -159 25 -165 c 1
 0 -165 l 1
 0 75 l 1
 26 75 l 17
 26 33 49 -0 63 -20 c 0
 122 -106 218 -183 218 -377 c 0
 218 -428 205 -490 198 -512 c 1
 168 -503 l 1
EndSplineSet
EndChar

StartChar: uni0092
Encoding: 146 146 37
Width: 218
Flags: W
HStem: -120 21G<0 27>
VStem: 0 27<-120 -108.207 40.8781 88> 242 33<-398.246 -233.803>
LayerCount: 2
Fore
SplineSet
159 -759 m 1
 167 -720 185 -648 185 -561 c 0
 185 -472 170 -394 106 -348 c 0
 86 -333 61 -322 41 -322 c 0
 32 -322 25 -329 25 -335 c 1
 0 -335 l 1
 0 119 l 1
 26 119 l 1
 26 85 45 45 102 -12 c 0
 175 -86 218 -143 218 -247 c 0
 218 -300 199 -349 184 -376 c 1
 205 -429 218 -488 218 -562 c 0
 218 -649 200 -733 188 -766 c 1
 159 -759 l 1
26 -100 m 0
 26 -130 62 -186 101 -237 c 0
 126 -270 148 -302 166 -337 c 1
 176 -314 185 -284 185 -246 c 0
 185 -184 159 -133 98 -99 c 0
 76 -87 58 -83 42 -83 c 0
 33 -83 26 -90 26 -100 c 0
EndSplineSet
EndChar

StartChar: uni0093
Encoding: 147 147 38
Width: 218
Flags: W
HStem: -120 21G<0 27>
VStem: 0 27<-120 -108.207 40.8781 88> 242 33<-398.246 -233.803>
LayerCount: 2
Fore
SplineSet
0 119 m 1
 26 119 l 1
 26 85 45 45 102 -12 c 0
 175 -86 218 -143 218 -247 c 0
 218 -309 192 -365 177 -387 c 1
 155 -360 l 1
 167 -337 185 -298 185 -246 c 0
 185 -184 159 -133 98 -99 c 0
 76 -87 58 -83 42 -83 c 0
 33 -83 26 -90 26 -100 c 0
 26 -100 11 -100 0 -100 c 25
 0 119 l 1
EndSplineSet
EndChar

StartChar: uni0094
Encoding: 148 148 39
Width: 218
Flags: W
HStem: 216 462G<0 25 151 187> 678 20G<151 187>
VStem: 0 26<-62 0.548737 203.124 216> 184 34<348.559 621.554>
LayerCount: 2
Fore
SplineSet
41 203 m 4xb0
 68 203 97 223 115 245 c 0
 155 296 184 365 184 467 c 0
 184 556 168 632 151 688 c 1
 181 698 l 1x70
 193 660 218 574 218 468 c 0
 218 311 170 219 121 142 c 0
 87 89 26 12 26 -62 c 5
 0 -62 l 1
 0 216 l 0
 25 216 l 4
 25 210 32 203 41 203 c 4xb0
EndSplineSet
EndChar

StartChar: uni0095
Encoding: 149 149 40
Width: 218
Flags: W
VStem: 0 26<147 160 -75 -18> 241 34<271 500>
LayerCount: 2
Fore
SplineSet
168 503 m 1
 198 512 l 1
 205 490 218 428 218 377 c 0
 218 183 122 106 63 20 c 0
 49 0 26 -33 26 -75 c 9
 0 -75 l 1
 0 165 l 1
 25 165 l 1
 25 159 32 152 41 152 c 0
 86 152 122 183 143 215 c 0
 169 255 184 311 184 376 c 0
 184 422 174 474 168 503 c 1
EndSplineSet
EndChar

StartChar: uni0096
Encoding: 150 150 41
Width: 218
Flags: W
HStem: 99 21G<0 27>
VStem: 0 27<108 120 -88 -41> 242 33<234 398>
LayerCount: 2
Fore
SplineSet
159 759 m 1
 188 766 l 1
 200 733 218 649 218 562 c 0
 218 488 205 429 184 376 c 1
 199 349 218 300 218 247 c 0
 218 143 175 86 102 12 c 0
 45 -45 26 -85 26 -119 c 1
 0 -119 l 1
 0 335 l 1
 25 335 l 1
 25 329 32 322 41 322 c 0
 61 322 86 333 106 348 c 0
 170 394 185 472 185 561 c 0
 185 648 167 720 159 759 c 1
26 100 m 0
 26 90 33 83 42 83 c 0
 58 83 76 87 98 99 c 0
 159 133 185 184 185 246 c 0
 185 284 176 314 166 337 c 1
 148 302 126 270 101 237 c 0
 62 186 26 130 26 100 c 0
EndSplineSet
EndChar

StartChar: uni0097
Encoding: 151 151 42
Width: 218
Flags: W
HStem: 99 21G<0 27>
VStem: 0 27<108 120 -88 -41> 242 33<234 398>
LayerCount: 2
Fore
SplineSet
0 -119 m 1
 0 100 l 25
 26 100 l 0
 26 90 33 83 42 83 c 0
 58 83 76 87 98 99 c 0
 159 133 185 184 185 246 c 0
 185 298 167 337 155 360 c 1
 177 387 l 1
 192 365 218 309 218 247 c 0
 218 143 175 86 102 12 c 0
 45 -45 26 -85 26 -119 c 1
 0 -119 l 1
EndSplineSet
EndChar

StartChar: uni0098
Encoding: 152 152 43
Width: 292
Flags: W
HStem: 68 20G<0 26>
VStem: 0 26<-335 -322.124 -164.221 -108.27 40.4128 88> 259 33<-632.444 -478.649 -386.975 -241.735>
LayerCount: 2
Fore
SplineSet
255 -632 m 1
 255 -632 259 -605 259 -571 c 0
 259 -447 173 -322 41 -322 c 0
 32 -322 25 -329 25 -335 c 1
 0 -335 l 1
 0 88 l 1
 26 88 l 1
 26 40 63 -1 128 -49 c 0
 209 -109 292 -198 292 -316 c 0
 292 -366 278 -404 266 -428 c 1
 283 -470 292 -517 292 -572 c 0
 292 -604 286 -636 286 -636 c 1
 255 -632 l 1
26 -120 m 0
 26 -165 66 -209 130 -259 c 0
 178 -296 218 -338 246 -388 c 1
 253 -367 259 -343 259 -315 c 0
 259 -242 213 -168 127 -127 c 0
 104 -116 72 -108 42 -108 c 0
 33 -108 26 -114 26 -120 c 0
EndSplineSet
EndChar

StartChar: uni009A
Encoding: 154 154 44
Width: 275
Flags: W
HStem: -120 21G<0 27>
VStem: 0 27<-120 -108.207 40.8781 88> 242 33<-398.246 -233.803>
LayerCount: 2
Fore
SplineSet
238 -632 m 1
 238 -632 242 -602 242 -571 c 0
 242 -448 171 -322 41 -322 c 0
 32 -322 25 -329 25 -335 c 1
 0 -335 l 1
 0 88 l 1
 26 88 l 1
 26 40 63 1 126 -49 c 0
 205 -112 275 -198 275 -316 c 0
 275 -362 263 -399 251 -423 c 1
 267 -466 275 -515 275 -572 c 0
 275 -603 269 -636 269 -636 c 5
 238 -632 l 1
26 -120 m 0
 26 -165 68 -214 126 -259 c 0
 172 -294 207 -334 232 -380 c 1
 238 -361 242 -339 242 -315 c 0
 242 -242 207 -168 121 -127 c 0
 98 -116 67 -108 42 -108 c 0
 33 -108 26 -114 26 -120 c 0
EndSplineSet
EndChar

StartChar: uni009B
Encoding: 155 155 45
Width: 275
Flags: W
HStem: 99 21G<0 27>
VStem: 0 27<108 120 -88 -41> 242 33<234 398>
LayerCount: 2
Fore
SplineSet
238 632 m 1
 269 636 l 5
 269 636 275 603 275 572 c 0
 275 515 267 466 251 423 c 1
 263 399 275 362 275 316 c 0
 275 198 205 112 126 49 c 0
 63 -1 26 -40 26 -88 c 1
 0 -88 l 1
 0 335 l 1
 25 335 l 1
 25 329 32 322 41 322 c 0
 171 322 242 448 242 571 c 0
 242 602 238 632 238 632 c 1
26 120 m 0
 26 114 33 108 42 108 c 0
 67 108 98 116 121 127 c 0
 207 168 242 242 242 315 c 0
 242 339 238 361 232 380 c 1
 207 334 172 294 126 259 c 0
 68 214 26 165 26 120 c 0
EndSplineSet
EndChar

StartChar: uni009C
Encoding: 156 156 46
Width: 258
Flags: W
HStem: -120 21G<0 27>
VStem: 0 27<-120 -108.207 40.8781 88> 242 33<-398.246 -233.803>
LayerCount: 2
Fore
SplineSet
221 -633 m 5
 221 -633 225 -603 225 -571 c 0
 225 -480 192 -392 127 -351 c 0
 94 -330 67 -322 41 -322 c 0
 32 -322 25 -329 25 -335 c 1
 0 -335 l 1
 0 88 l 1
 26 88 l 1
 26 40 60 5 119 -50 c 0
 196 -121 258 -193 258 -316 c 0
 258 -363 245 -400 234 -424 c 1
 249 -467 258 -515 258 -572 c 0
 258 -604 253 -637 253 -637 c 5
 221 -633 l 5
26 -120 m 0
 26 -165 70 -207 122 -259 c 0
 159 -295 191 -335 215 -381 c 1
 221 -362 225 -340 225 -315 c 0
 225 -242 203 -177 115 -130 c 0
 93 -118 67 -108 42 -108 c 0
 33 -108 26 -114 26 -120 c 0
EndSplineSet
EndChar

StartChar: uni009D
Encoding: 157 157 47
Width: 258
Flags: W
HStem: 99 21G<0 27>
VStem: 0 27<108 120 -88 -41> 242 33<234 398>
LayerCount: 2
Fore
SplineSet
221 633 m 5
 253 637 l 5
 253 637 258 604 258 572 c 0
 258 515 249 467 234 424 c 1
 245 400 258 363 258 316 c 0
 258 193 196 121 119 50 c 0
 60 -5 26 -40 26 -88 c 1
 0 -88 l 1
 0 335 l 1
 25 335 l 1
 25 329 32 322 41 322 c 0
 67 322 94 330 127 351 c 0
 192 392 225 480 225 571 c 0
 225 603 221 633 221 633 c 5
26 120 m 0
 26 114 33 108 42 108 c 0
 67 108 93 118 115 130 c 0
 203 177 225 242 225 315 c 0
 225 340 221 362 215 381 c 1
 191 335 159 295 122 259 c 0
 70 207 26 165 26 120 c 0
EndSplineSet
EndChar

StartChar: uni009E
Encoding: 158 158 48
Width: 218
Flags: W
HStem: -120 21G<0 27>
VStem: 0 27<-120 -108.207 40.8781 88> 242 33<-398.246 -233.803>
LayerCount: 2
Fore
SplineSet
181 -633 m 1
 181 -633 185 -593 185 -561 c 0
 185 -472 170 -394 106 -348 c 0
 86 -333 61 -322 41 -322 c 0
 32 -322 25 -329 25 -335 c 1
 0 -335 l 1
 0 119 l 1
 26 119 l 1
 26 85 45 45 102 -12 c 0
 175 -86 218 -143 218 -247 c 0
 218 -300 199 -349 184 -376 c 1
 205 -429 218 -488 218 -562 c 0
 218 -594 213 -637 213 -637 c 1
 181 -633 l 1
26 -100 m 0
 26 -130 62 -186 101 -237 c 0
 126 -270 148 -302 166 -337 c 1
 176 -314 185 -284 185 -246 c 0
 185 -184 159 -133 98 -99 c 0
 76 -87 58 -83 42 -83 c 0
 33 -83 26 -90 26 -100 c 0
EndSplineSet
EndChar

StartChar: uni009F
Encoding: 159 159 49
Width: 218
Flags: W
HStem: 99 21G<0 27>
VStem: 0 27<108 120 -88 -41> 242 33<234 398>
LayerCount: 2
Fore
SplineSet
181 633 m 1
 213 637 l 1
 213 637 218 594 218 562 c 0
 218 488 205 429 184 376 c 1
 199 349 218 300 218 247 c 0
 218 143 175 86 102 12 c 0
 45 -45 26 -85 26 -119 c 1
 0 -119 l 1
 0 335 l 1
 25 335 l 1
 25 329 32 322 41 322 c 0
 61 322 86 333 106 348 c 0
 170 394 185 472 185 561 c 0
 185 593 181 633 181 633 c 1
26 100 m 0
 26 90 33 83 42 83 c 0
 58 83 76 87 98 99 c 0
 159 133 185 184 185 246 c 0
 185 284 176 314 166 337 c 1
 148 302 126 270 101 237 c 0
 62 186 26 130 26 100 c 0
EndSplineSet
EndChar

StartChar: uni0000
Encoding: 0 0 50
Width: 298
Flags: W
VStem: 0 42<-234.688 -141.013 -24.2178 111.484> 0 30<-485 -393.238> 249 29<-414.992 -295.488> 263 35<-790.022 -566.881>
LayerCount: 2
Fore
SplineSet
298 -676 m 0x10
 298 -765 262 -885 231 -885 c 0
 220 -885 218 -878 218 -868 c 0
 218 -851 263 -785 263 -675 c 0
 263 -578 228 -510 185 -462 c 0
 153 -427 93 -386 60 -386 c 0
 40 -386 30 -411 30 -485 c 0
 0 -485 l 0x50
 0 85 l 0
 0 101 11 112 26 112 c 0
 38 112 40 97 40 84 c 0
 40 9 54 -27 103 -70 c 0
 204 -156 278 -231 278 -372 c 0xa0
 278 -444 260 -462 260 -483 c 0
 260 -508 298 -559 298 -676 c 0x10
227 -418 m 0
 245 -418 249 -388 249 -364 c 0
 249 -240 118 -141 58 -141 c 0
 43 -141 42 -159 42 -174 c 0xa0
 42 -212 75 -261 116 -301 c 0
 198 -380 210 -418 227 -418 c 0
EndSplineSet
Validated: 1
EndChar

StartChar: degree
Encoding: 176 176 51
Width: 479
Flags: W
HStem: -22 44<25.0087 460.992>
LayerCount: 2
Fore
SplineSet
25 0 m 0
 25 20 37 22 49 22 c 0
 439 22 l 0
 450 22 461 18 461 0 c 0
 461 -20 452 -22 439 -22 c 0
 48 -22 l 0
 31 -22 25 -20 25 0 c 0
15 -310 m 0
 6 -310 0 -301 0 -290 c 0
 0 -281 7 -278 22 -275 c 0
 304 -204 l 0
 327 -198 339 -191 339 -184 c 0
 339 -177 327 -169 300 -163 c 0
 23 -94 l 0
 7 -90 0 -87 0 -78 c 0
 0 -66 6 -58 15 -58 c 0
 19 -58 25 -59 32 -61 c 0
 448 -165 l 0
 468 -170 479 -178 479 -185 c 0
 479 -191 470 -198 452 -202 c 0
 31 -307 l 0
 24 -309 19 -310 15 -310 c 0
EndSplineSet
EndChar

StartChar: plusminus
Encoding: 177 177 52
Width: 318
Flags: W
HStem: -130 35<0.316406 17>
VStem: 224 94<-18.4168 18.7127>
LayerCount: 2
Fore
SplineSet
0 110 m 0
 0 120 8 130 15 130 c 0
 19 130 25 130 33 126 c 0
 282 25 l 0
 306 15 318 8 318 0 c 0
 318 -8 305 -15 281 -25 c 0
 34 -125 l 0
 26 -128 20 -130 15 -130 c 0
 7 -130 0 -119 0 -109 c 0
 0 -103 5 -100 17 -95 c 0
 191 -25 l 0
 214 -16 224 -8 224 0 c 0
 224 9 211 17 189 26 c 0
 19 94 l 0
 6 100 0 103 0 110 c 0
EndSplineSet
EndChar

StartChar: multiply
Encoding: 215 215 53
Width: 634
Flags: W
HStem: 215 145<28 270 358 606>
VStem: 0 28<-51 215> 270 88<46 215> 606 28<-51 214.682>
LayerCount: 2
Fore
SplineSet
28 -51 m 1
 0 -51 l 1
 0 360 l 1
 634 360 l 1
 634 -51 l 1
 606 -51 l 1
 606 199 l 2
 606 208 595 215 590 215 c 2
 375 215 l 2
 368 215 358 208 358 198 c 2
 358 46 l 1
 270 46 l 1
 270 198 l 2
 270 206 262 215 252 215 c 2
 40 215 l 2
 36 215 28 208 28 202 c 2
 28 -51 l 1
EndSplineSet
EndChar

StartChar: divide
Encoding: 247 247 54
Width: 621
Flags: W
HStem: 403 20G<303.5 319>
VStem: 294 33<-18.9978 157.164 253.887 422.998>
LayerCount: 2
Fore
SplineSet
13 -16 m 0
 4 -16 0 -10 0 -2 c 0
 0 1 0 3 1 6 c 0
 55 147 156 232 264 250 c 0
 287 254 294 260 294 282 c 0
 294 407 l 0
 294 421 296 423 311 423 c 0
 327 423 327 420 327 408 c 0
 327 285 l 0
 327 258 336 254 359 250 c 0
 468 230 566 145 619 6 c 0
 620 3 621 1 621 -2 c 0
 621 -10 616 -16 608 -16 c 0
 602 -16 596 -12 592 -4 c 0
 540 89 459 144 357 157 c 0
 334 160 327 153 327 133 c 0
 327 -3 l 0
 327 -17 326 -19 310 -19 c 0
 296 -19 294 -16 294 -2 c 0
 294 132 l 0
 294 155 283 160 260 157 c 0
 160 143 81 88 29 -4 c 0
 24 -12 19 -16 13 -16 c 0
EndSplineSet
EndChar

StartChar: parenright
Encoding: 41 41 55
Width: 980
Flags: W
HStem: -13 26<0 980> 237 26<0 980> 487 26<0 980> 737 26<0 980> 987 26<0 980>
LayerCount: 2
Fore
SplineSet
0 987 m 0
 0 1013 l 0
 980 1013 l 0
 980 987 l 0
 0 987 l 0
0 737 m 0
 0 763 l 0
 980 763 l 0
 980 737 l 0
 0 737 l 0
0 487 m 0
 0 513 l 0
 980 513 l 0
 980 487 l 0
 0 487 l 0
0 237 m 0
 0 263 l 0
 980 263 l 0
 980 237 l 0
 0 237 l 0
0 -13 m 0
 0 13 l 0
 980 13 l 0
 980 -13 l 0
 0 -13 l 0
EndSplineSet
EndChar

StartChar: asteriskmath
Encoding: 8727 8727 56
Width: 1000
LayerCount: 2
Back
SplineSet
227 -768 m 4
 234 -739 267 -655 267 -534 c 4
 267 -424 206 -338 149 -290 c 4
 129 -272 80 -240 56 -240 c 4
 24 -240 24 -281 24 -330 c 4
 0 -330 l 4
 0 19 l 4
 0 55 1 60 13 60 c 4
 30 60 29 34 33 13 c 4
 41 -37 73 -113 134 -181 c 4
 213 -269 300 -374 300 -539 c 4
 300 -623 273 -737 249 -777 c 4
 238 -795 220 -797 227 -768 c 4
EndSplineSet
EndChar

StartChar: plus
Encoding: 43 43 57
Width: 303
Flags: W
HStem: -71 57<190.91 262.979> 14 57<40.021 112.09>
LayerCount: 2
Fore
SplineSet
63 14 m 0
 36 14 18 -2 0 -17 c 0
 -6 -22 -11 -24 -15 -24 c 0
 -21 -24 -24 -20 -24 -16 c 0
 -24 -9 -14 5 0 17 c 0
 26 39 60 71 99 71 c 0
 159 71 181 -14 240 -14 c 0
 267 -14 285 2 303 17 c 0
 309 22 314 24 318 24 c 0
 324 24 327 20 327 16 c 0
 327 9 317 -5 303 -17 c 0
 277 -39 243 -71 204 -71 c 0
 144 -71 122 14 63 14 c 0
EndSplineSet
EndChar

StartChar: comma
Encoding: 44 44 58
Width: 330
Flags: W
HStem: -71 57<212.948 287.61> 14 57<41.6312 116.438>
LayerCount: 2
Fore
SplineSet
65 14 m 0
 38 14 18 -2 0 -17 c 0
 -6 -22 -11 -24 -15 -24 c 0
 -21 -24 -24 -20 -24 -16 c 0
 -24 -9 -14 5 0 17 c 0
 26 39 65 71 99 71 c 0
 160 71 212 -14 265 -14 c 0
 292 -14 312 2 330 17 c 0
 336 22 341 24 345 24 c 0
 351 24 354 20 354 16 c 0
 354 9 344 -5 330 -17 c 0
 304 -39 264 -71 230 -71 c 0
 169 -71 118 14 65 14 c 0
EndSplineSet
EndChar

StartChar: period
Encoding: 46 46 59
Width: 399
Flags: W
HStem: -71 57<260.717 348.452> 14 57<50.5485 138.283>
LayerCount: 2
Fore
SplineSet
399 -16 m 0
 368 -39 321 -71 284 -71 c 0
 202 -71 139 14 77 14 c 0
 46 14 21 0 0 -16 c 0
 -6 -20 -12 -22 -16 -22 c 0
 -24 -22 -25 -18 -25 -14 c 0
 -25 -7 -16 4 0 16 c 0
 31 39 78 71 115 71 c 0
 197 71 260 -14 322 -14 c 0
 353 -14 378 0 399 16 c 0
 405 20 411 22 415 22 c 0
 423 22 424 18 424 14 c 0
 424 7 415 -4 399 -16 c 0
EndSplineSet
EndChar

StartChar: slash
Encoding: 47 47 60
Width: 298
Flags: W
HStem: 465 20G<0 28>
VStem: 0 35<-91.8014 11.6889 139.059 217.389> 0 28<391.159 485> 224 31<832.203 872.886> 243 35<286.096 412.476> 258 40<553.086 806.389>
LayerCount: 2
Fore
SplineSet
298 676 m 0xb4
 298 556 258 502 258 474 c 0xb4
 258 446 278 420 278 363 c 0
 278 235 204 156 103 70 c 0
 54 28 35 -4 35 -64 c 0
 35 -77 33 -92 21 -92 c 0
 4 -92 0 -81 0 -65 c 0xc8
 0 485 l 0
 28 485 l 0
 28 428 25 387 56 387 c 0
 108 387 164 437 196 475 c 0
 233 522 258 586 258 675 c 0
 258 762 236 825 224 854 c 0
 209 890 237 895 255 864 c 0
 278 826 298 742 298 676 c 0xb4
224 413 m 0
 208 413 198 380 116 301 c 0
 75 261 35 201 35 163 c 0
 35 148 41 139 54 139 c 0
 113 139 243 240 243 364 c 0xc8
 243 385 240 413 224 413 c 0
EndSplineSet
EndChar

StartChar: colon
Encoding: 58 58 61
Width: 197
Flags: W
HStem: 358 20G<11.5 29>
VStem: 0 40<-94.6547 70.2647 157.457 377.998> 157 40<-378.998 -158.457 -71.2647 93.6545>
LayerCount: 2
Fore
SplineSet
4 -1 m 0
 4 178.025 0 333 0 364 c 0
 0 377 3 378 20 378 c 0
 38 378 40 376 40 360 c 0
 40 334 37 292 37 197 c 0
 37 152.334 45.9804 151.754 83 163 c 0
 162 187 l 0
 181.469 192.914 195 197.139 195 172 c 0
 195 131 193 83 193 -1 c 0
 193 -179.025 197 -334 197 -365 c 0
 197 -378 194 -379 177 -379 c 0
 159 -379 157 -377 157 -361 c 0
 157 -335 160 -293 160 -198 c 0
 160 -153.334 151.02 -152.754 114 -164 c 0
 35 -188 l 0
 15.5312 -193.914 2 -198.14 2 -173 c 0
 2 -132 4 -84 4 -1 c 0
163 67 m 0
 163 104.104 149.055 97.6548 120 89 c 0
 73 75 l 0
 40.2324 64.0771 34 61 34 16 c 0
 34 -68 l 0
 34 -105.104 47.9443 -98.6553 77 -90 c 0
 124 -76 l 0
 156.768 -65.0771 163 -62 163 -17 c 0
 163 67 l 0
EndSplineSet
EndChar

StartChar: semicolon
Encoding: 59 59 62
Width: 197
Flags: W
VStem: 2 32<-96.0434 565.539 657.503 877.992> 157 40<-378.998 -158.457 -71.2647 593.654>
LayerCount: 2
Fore
SplineSet
4 249 m 0
 4 428.025 0 833 0 864 c 0
 0 877 3 878 20 878 c 0
 38 878 40 876 40 860 c 0
 40 834 37 792 37 697 c 0
 37 652.334 45.9805 651.754 83 663 c 0
 162 687 l 0
 181.469 692.914 195 697.139 195 672 c 0
 195 631 193 333 193 249 c 0
 193 70.975 197 -334 197 -365 c 0
 197 -378 194 -379 177 -379 c 0
 159 -379 157 -377 157 -361 c 0
 157 -335 160 -293 160 -198 c 0
 160 -153.334 151.02 -152.754 114 -164 c 0
 35 -188 l 0
 15.5312 -193.914 2 -198.14 2 -173 c 0
 2 -132 4 166 4 249 c 0
163 567 m 0
 163 604.104 149.055 597.654 120 589 c 0
 73 575 l 0
 40.2324 564.077 34 561 34 516 c 0
 34 -68 l 0
 34 -105.104 47.9443 -98.6553 77 -90 c 0
 124 -76 l 0
 156.768 -65.0771 163 -62 163 -17 c 0
 163 567 l 0
EndSplineSet
EndChar

StartChar: less
Encoding: 60 60 63
Width: 259
Flags: W
HStem: 429 20G<79 91>
VStem: 66 30<-96.0434 65.0237 157.732 312.559> 219 40<-378.998 -158.457 -71.2647 93.6543>
LayerCount: 2
Fore
SplineSet
225 67 m 0
 225 104.104 211.055 97.6543 182 89 c 0
 135 75 l 0
 102.232 64.0771 96 61 96 16 c 0
 96 -68 l 0
 96 -105.104 109.944 -98.6553 139 -90 c 0
 186 -76 l 0
 218.768 -65.0771 225 -62 225 -17 c 0
 225 67 l 0
166 302 m 0
 166 296 160 295 158 295 c 0
 149.809 295 140.781 300.792 130 307.117 c 0
 114.475 316.226 101.526 317.321 100.71 291.333 c 0
 99.8829 265.036 99 248.937 99 197 c 0
 99 152.334 107.98 151.754 145 163 c 0
 224 187 l 0
 243.469 192.914 257 197.139 257 172 c 0
 257 131 255 83 255 -1.00002 c 0
 255 -179.025 259 -334 259 -365 c 0
 259 -378 256 -379 239 -379 c 0
 221 -379 219 -377 219 -361 c 0
 219 -335 222 -293 222 -198 c 0
 222 -153.334 213.02 -152.754 176 -164 c 0
 97 -188 l 0
 77.5312 -193.914 64 -198.14 64 -173 c 0
 64 -132 66 -84 66 -1 c 0
 66 128.116 63.9219 224.723 62.7588 291.333 c 0
 62.3399 315.33 51.4854 317.138 35.667 308.549 c 0
 23.0557 301.702 12.8496 295 6.00002 295 c 0
 4.00002 295 1.90735e-005 297 1.90735e-005 302 c 0
 1.90735e-005 312 10.1074 320.938 44 380 c 0
 72.0889 428.949 74 449 84 449 c 0
 98 449 94 430 124 379 c 0
 156 326 166 314 166 302 c 0
EndSplineSet
EndChar

StartChar: equal
Encoding: 61 61 64
Width: 259
Flags: W
HStem: 359 20G<11.5 29>
VStem: -4.57764e-005 40<-93.6543 71.2647 158.457 378.998> 163 30<-312.559 -157.732 -65.0237 96.0434>
LayerCount: 2
Fore
SplineSet
34 -67 m 0
 34 -104.104 47.9453 -97.6543 77 -89 c 0
 124 -75 l 0
 156.768 -64.0771 163 -61 163 -16 c 0
 163 68 l 0
 163 105.104 149.056 98.6553 120 90 c 0
 73 76 l 0
 40.2324 65.0771 34 62 34 17 c 0
 34 -67 l 0
93 -302 m 0
 93 -296 99 -295 101 -295 c 0
 109.191 -295 118.219 -300.792 129 -307.117 c 0
 144.525 -316.226 157.474 -317.321 158.29 -291.333 c 0
 159.117 -265.036 160 -248.936 160 -197 c 0
 160 -152.334 151.019 -151.754 114 -163 c 0
 35 -187 l 0
 15.5312 -192.914 1.99995 -197.139 1.99995 -172 c 0
 1.99995 -131 3.99995 -83 3.99995 1.00002 c 0
 3.99995 179.025 -4.57764e-005 334 -4.57764e-005 365 c 0
 -4.57764e-005 378 2.99995 379 20 379 c 0
 38 379 40 377 40 361 c 0
 40 335 37 293 37 198 c 0
 37 153.334 45.9804 152.754 83 164 c 0
 162 188 l 0
 181.469 193.914 195 198.14 195 173 c 0
 195 132 193 84 193 1 c 0
 193 -128.116 195.078 -224.723 196.241 -291.333 c 0
 196.66 -315.33 207.515 -317.138 223.333 -308.549 c 0
 235.944 -301.702 246.15 -295 253 -295 c 0
 255 -295 259 -297 259 -302 c 0
 259 -312 248.893 -320.938 215 -380 c 0
 186.911 -428.949 185 -449 175 -449 c 0
 161 -449 165 -430 135 -379 c 0
 103 -326 93 -314 93 -302 c 0
EndSplineSet
EndChar

StartChar: greater
Encoding: 62 62 65
Width: 230
Flags: W
HStem: -165 68<7.5 45.6169> 465 20G<14.5 43> 465 20G<14.5 43>
VStem: 0 57<172.256 484.984> 0 50<146.008 461.912> 0 30<-96.9934 86.9617>
LayerCount: 2
Fore
SplineSet
40 79 m 0x84
 33 65 30 41 30 15 c 0
 30 -67 l 0
 30 -88 35 -97 44 -97 c 0
 53 -97 66 -89 81 -76 c 0
 127 -38 157 -7 145 65 c 0
 134 129 62 124 40 79 c 0x84
57 465 m 0xb0
 57 400 50 279 50 167 c 0xa8
 50 157 52 146 63 146 c 0
 83 146 108 162 140 162 c 0
 190 162 230 134 230 66 c 0
 230 -15 134 -71 63 -129 c 0
 31 -155 l 0
 24 -161 16 -165 11 -165 c 0
 4 -165 0 -160 0 -146 c 0xa4
 0 468 l 0
 0 485 0 485 29 485 c 0xd0
 57 485 57 485 57 465 c 0xb0
EndSplineSet
EndChar

StartChar: question
Encoding: 63 63 66
Width: 230
Flags: W
HStem: 465 20G<14.5 43> 465 20G<14.5 43>
VStem: 0 230<2.98819 134.915> 0 57<172.256 484.984> 0 50<146.008 461.912>
LayerCount: 2
Fore
SplineSet
57 465 m 0x50
 57 400 50 279 50 167 c 0x48
 50 157 52 146 63 146 c 0
 83 146 108 162 140 162 c 0
 190 162 230 134 230 66 c 0x60
 230 -15 134 -71 63 -129 c 0
 31 -155 l 0
 24 -161 16 -165 11 -165 c 0
 4 -165 0 -160 0 -146 c 0x48
 0 468 l 0
 0 485 0 485 29 485 c 0x90
 57 485 57 485 57 465 c 0x50
EndSplineSet
EndChar

StartChar: registered
Encoding: 174 174 67
Width: 479
Flags: W
HStem: -42 84<203.607 275.645>
VStem: 198 83<-36.393 36.393>
CounterMasks: 1 38
LayerCount: 2
Fore
SplineSet
15 -328 m 0
 6 -328 0 -319 0 -308 c 0
 0 -299 7 -296 22 -293 c 0
 304 -222 l 0
 327 -216 339 -209 339 -202 c 0
 339 -195 327 -187 300 -181 c 0
 23 -112 l 0
 7 -108 0 -105 0 -96 c 0
 0 -84 6 -76 15 -76 c 0
 19 -76 25 -77 32 -79 c 0
 448 -183 l 0
 468 -188 479 -196 479 -203 c 0
 479 -209 470 -216 452 -220 c 0
 31 -325 l 0
 24 -327 19 -328 15 -328 c 0
198 0 m 0
 198 23 217 42 240 42 c 0
 263 42 281 23 281 0 c 0
 281 -23 263 -42 240 -42 c 0
 217 -42 198 -23 198 0 c 0
EndSplineSet
EndChar

StartChar: copyright
Encoding: 169 169 68
Width: 331
Flags: W
VStem: 0 331
LayerCount: 2
Fore
SplineSet
331 185 m 0
 331 150 l 0
 331 113 329 112 288 71 c 0
 42 -176 l 0
 26 -191 16 -200 9 -200 c 0
 2 -200 0 -188 0 -163 c 0
 0 -147 l 0
 0 -107 2 -106 41 -67 c 0
 302 193 l 0
 310 202 316 205 321 205 c 0
 328 205 331 196 331 185 c 0
EndSplineSet
EndChar

StartChar: logicalnot
Encoding: 172 172 69
Width: 479
Flags: W
HStem: 106 20G<10.5 17>
LayerCount: 2
Fore
SplineSet
15 -126 m 0
 6 -126 0 -117 0 -106 c 0
 0 -97 7 -94 22 -91 c 0
 304 -20 l 0
 327 -14 339 -7 339 0 c 0
 339 7 327 15 300 21 c 0
 23 90 l 0
 7 94 0 97 0 106 c 0
 0 118 6 126 15 126 c 0
 19 126 25 125 32 123 c 0
 448 19 l 0
 468 14 479 6 479 -1 c 0
 479 -7 470 -14 452 -18 c 0
 31 -123 l 0
 24 -125 19 -126 15 -126 c 0
EndSplineSet
EndChar

StartChar: asterisk
Encoding: 42 42 70
Width: 270
Flags: W
HStem: -71 57<173.37 236.707> 14 57<33.2926 96.6299>
VStem: -23 316
LayerCount: 2
Fore
SplineSet
55 14 m 0
 31 14 17 -1 0 -18 c 0
 -6 -24 -10 -26 -14 -26 c 0
 -20 -26 -23 -22 -23 -18 c 0
 -23 -11 -13 5 0 18 c 0
 24 42 50 71 86 71 c 0
 143 71 166 -14 215 -14 c 0
 239 -14 253 1 270 18 c 0
 276 24 280 26 284 26 c 0
 290 26 293 22 293 18 c 0
 293 11 283 -5 270 -18 c 0
 246 -42 220 -71 184 -71 c 0
 127 -71 104 14 55 14 c 0
EndSplineSet
EndChar

StartChar: hyphen
Encoding: 45 45 71
Width: 363
Flags: W
HStem: -71 57<237.404 316.162> 14 57<46.8378 125.596>
LayerCount: 2
Fore
SplineSet
258 -71 m 0
 188 -71 125 14 70 14 c 0
 40 14 20 -1 0 -16 c 0
 -7 -21 -11 -23 -15 -23 c 0
 -22 -23 -24 -20 -24 -16 c 0
 -24 -9 -15 4 0 16 c 0
 29 38 70 71 105 71 c 0
 175 71 238 -14 293 -14 c 0
 323 -14 343 1 363 16 c 0
 370 21 374 23 378 23 c 0
 385 23 387 20 387 16 c 0
 387 9 378 -4 363 -16 c 0
 334 -38 293 -71 258 -71 c 0
EndSplineSet
EndChar

StartChar: at
Encoding: 64 64 72
Width: 230
Flags: W
HStem: -165 68<184.383 222.5> 465 20G<187 215.5> 465 20G<187 215.5>
VStem: 173 57<172.256 484.984> 180 50<146.008 461.912> 200 30<-96.9934 86.9617>
LayerCount: 2
Fore
SplineSet
190 79 m 0x84
 168 124 96 129 85 65 c 0
 73 -7 103 -38 149 -76 c 0
 164 -89 177 -97 186 -97 c 0
 195 -97 200 -88 200 -67 c 0
 200 15 l 0
 200 41 197 65 190 79 c 0x84
173 465 m 0xb0
 173 485 173 485 201 485 c 0
 230 485 230 485 230 468 c 0xd0
 230 -146 l 0xc4
 230 -160 226 -165 219 -165 c 0
 214 -165 206 -161 199 -155 c 0
 167 -129 l 0
 96 -71 0 -15 0 66 c 0
 0 134 40 162 90 162 c 0
 122 162 147 146 167 146 c 0
 178 146 180 157 180 167 c 0xc8
 180 279 173 400 173 465 c 0xb0
EndSplineSet
EndChar

StartChar: A
Encoding: 65 65 73
Width: 230
Flags: W
HStem: 465 20G<187 215.5> 465 20G<187 215.5>
VStem: 0 230<2.98819 134.915> 173 57<172.256 484.984> 180 50<146.008 461.912>
LayerCount: 2
Fore
SplineSet
173 465 m 0x50
 173 485 173 485 201 485 c 0
 230 485 230 485 230 468 c 0x90
 230 -146 l 0x88
 230 -160 226 -165 219 -165 c 0
 214 -165 206 -161 199 -155 c 0
 167 -129 l 0
 96 -71 0 -15 0 66 c 0xa0
 0 134 40 162 90 162 c 0
 122 162 147 146 167 146 c 0
 178 146 180 157 180 167 c 0x88
 180 279 173 400 173 465 c 0x50
EndSplineSet
EndChar

StartChar: B
Encoding: 66 66 74
Width: 286
Flags: W
HStem: -165 68<63.5 101.617> 421 21G<5 8.5 154.5 159> 555 20G<79 91> 555 20G<79 91>
VStem: 56 50<146.008 432.751> 56 30<-96.9934 86.9617>
LayerCount: 2
Fore
SplineSet
96 79 m 0xc4
 89 65 86 41 86 15 c 0
 86 -67 l 0
 86 -88 91 -97 100 -97 c 0
 109 -97 122 -89 137 -76 c 0
 183 -38 213 -7 201 65 c 0
 190 129 118 124 96 79 c 0xc4
166 428 m 0
 166 422 160 421 158 421 c 0
 151 421 143 425 134 431 c 0
 117 441 107 432 107 412 c 0
 106 348 106 243 106 167 c 0xe8
 106 157 108 146 119 146 c 0
 139 146 164 162 196 162 c 0
 246 162 286 134 286 66 c 0
 286 -15 190 -71 119 -129 c 0
 87 -155 l 0
 80 -161 72 -165 67 -165 c 0
 60 -165 56 -160 56 -146 c 0xe4
 56 414 l 0
 56 433 41 438 25 429 c 0
 17 424 11 421 6 421 c 0
 4 421 0 423 0 428 c 0
 0 438 10 447 44 506 c 0
 72 555 74 575 84 575 c 0xe8
 98 575 94 556 124 505 c 0
 156 452 166 440 166 428 c 0
EndSplineSet
EndChar

StartChar: C
Encoding: 67 67 75
Width: 286
Flags: W
HStem: 421 21G<5 8.5 154.5 159> 555 20G<79 91> 555 20G<79 91>
VStem: 56 230<2.98819 134.915> 56 50<146.008 432.751>
LayerCount: 2
Fore
SplineSet
166 428 m 0xc8
 166 422 160 421 158 421 c 0
 151 421 143 425 134 431 c 0
 117 441 107 432 107 412 c 0
 106 348 106 243 106 167 c 0xc8
 106 157 108 146 119 146 c 0
 139 146 164 162 196 162 c 0
 246 162 286 134 286 66 c 0xd0
 286 -15 190 -71 119 -129 c 0
 87 -155 l 0
 80 -161 72 -165 67 -165 c 0
 60 -165 56 -160 56 -146 c 0
 56 414 l 0
 56 433 41 438 25 429 c 0
 17 424 11 421 6 421 c 0
 4 421 0 423 0 428 c 0
 0 438 10 447 44 506 c 0
 72 555 74 575 84 575 c 0
 98 575 94 556 124 505 c 0
 156 452 166 440 166 428 c 0xc8
EndSplineSet
EndChar

StartChar: D
Encoding: 68 68 76
Width: 286
Flags: W
HStem: -165 68<184.383 222.5> 421 21G<127 131.5 277.5 281> 555 20G<195 207> 555 20G<195 207>
VStem: 180 50<146.008 432.751> 200 30<-96.9934 86.9617>
LayerCount: 2
Fore
SplineSet
190 79 m 0xc4
 168 124 96 129 85 65 c 0
 73 -7 103 -38 149 -76 c 0
 164 -89 177 -97 186 -97 c 0
 195 -97 200 -88 200 -67 c 0
 200 15 l 0
 200 41 197 65 190 79 c 0xc4
120 428 m 0
 120 440 130 452 162 505 c 0
 192 556 188 575 202 575 c 0
 212 575 214 555 242 506 c 0
 276 447 286 438 286 428 c 0
 286 423 282 421 280 421 c 0
 275 421 269 424 261 429 c 0
 245 438 230 433 230 414 c 0xe8
 230 -146 l 0xe4
 230 -160 226 -165 219 -165 c 0
 214 -165 206 -161 199 -155 c 0
 167 -129 l 0
 96 -71 0 -15 0 66 c 0
 0 134 40 162 90 162 c 0
 122 162 147 146 167 146 c 0
 178 146 180 157 180 167 c 0xe8
 180 243 180 348 179 412 c 0
 179 432 169 441 152 431 c 0
 143 425 135 421 128 421 c 0
 126 421 120 422 120 428 c 0
EndSplineSet
EndChar

StartChar: E
Encoding: 69 69 77
Width: 286
Flags: W
HStem: 421 21G<127 131.5 277.5 281> 555 20G<195 207> 555 20G<195 207>
VStem: 0 230<2.98819 134.915> 180 50<146.008 432.751>
LayerCount: 2
Fore
SplineSet
120 428 m 0xc8
 120 440 130 452 162 505 c 0
 192 556 188 575 202 575 c 0
 212 575 214 555 242 506 c 0
 276 447 286 438 286 428 c 0
 286 423 282 421 280 421 c 0
 275 421 269 424 261 429 c 0
 245 438 230 433 230 414 c 0
 230 -146 l 0xc8
 230 -160 226 -165 219 -165 c 0
 214 -165 206 -161 199 -155 c 0
 167 -129 l 0
 96 -71 0 -15 0 66 c 0xd0
 0 134 40 162 90 162 c 0
 122 162 147 146 167 146 c 0
 178 146 180 157 180 167 c 0
 180 243 180 348 179 412 c 0
 179 432 169 441 152 431 c 0
 143 425 135 421 128 421 c 0
 126 421 120 422 120 428 c 0xc8
EndSplineSet
EndChar

StartChar: F
Encoding: 70 70 78
Width: 294
Flags: W
HStem: -333 21G<74 86> 465 20G<78.5 107> 465 20G<78.5 107>
VStem: 64 57<172.256 484.984> 64 30<-193.275 -144.23 -96.9934 86.9617>
LayerCount: 2
Fore
SplineSet
121 465 m 0xb0
 121 400 114 279 114 167 c 0
 114 157 116 146 127 146 c 0
 147 146 172 162 204 162 c 0
 254 162 294 134 294 66 c 0
 294 -15 198 -71 127 -129 c 0
 111 -142 96 -152 96 -172 c 0
 96 -226 137 -179 159 -179 c 0
 161 -179 165 -181 165 -186 c 0
 165 -196 155 -205 121 -264 c 0xb0
 93 -313 91 -333 81 -333 c 0
 67 -333 69 -314 41 -263 c 0
 11 -209 -1 -198 -1 -186 c 0
 -1 -180 5 -179 7 -179 c 0
 31 -179 64 -223 64 -168 c 0xa8
 64 468 l 0
 64 485 64 485 93 485 c 0xd0
 121 485 121 485 121 465 c 0xb0
104 79 m 0
 97 65 94 41 94 15 c 0
 94 -67 l 0x88
 94 -88 99 -97 108 -97 c 0
 117 -97 130 -89 145 -76 c 0
 191 -38 221 -7 209 65 c 0
 198 129 126 124 104 79 c 0
EndSplineSet
EndChar

StartChar: G
Encoding: 71 71 79
Width: 294
Flags: W
HStem: -333 21G<74 86> 465 20G<78.5 107> 465 20G<78.5 107>
VStem: 64 230<2.98819 134.915> 64 57<172.256 484.984> 64 32<-193.275 -141.871>
LayerCount: 2
Fore
SplineSet
121 465 m 0xa8
 121 400 114 279 114 167 c 0
 114 157 116 146 127 146 c 0
 147 146 172 162 204 162 c 0
 254 162 294 134 294 66 c 0xb0
 294 -15 198 -71 127 -129 c 0
 111 -142 96 -152 96 -172 c 0xa4
 96 -226 137 -179 159 -179 c 0
 161 -179 165 -181 165 -186 c 0
 165 -196 155 -205 121 -264 c 0xa8
 93 -313 91 -333 81 -333 c 0
 67 -333 69 -314 41 -263 c 0
 11 -209 -1 -198 -1 -186 c 0
 -1 -180 5 -179 7 -179 c 0
 31 -179 64 -223 64 -168 c 0xa4
 64 468 l 0
 64 485 64 485 93 485 c 0xc8
 121 485 121 485 121 465 c 0xa8
EndSplineSet
EndChar

StartChar: H
Encoding: 72 72 80
Width: 294
Flags: W
HStem: -333 21G<207 219> 465 20G<186 214.5> 465 20G<186 214.5>
VStem: 172 57<172.256 484.984> 199 30<-193.275 -144.23 -96.9934 86.9617>
LayerCount: 2
Fore
SplineSet
172 465 m 0xb0
 172 485 172 485 200 485 c 0
 229 485 229 485 229 468 c 0xd0
 229 -168 l 0xc8
 229 -223 262 -179 286 -179 c 0
 288 -179 294 -180 294 -186 c 0
 294 -198 282 -209 252 -263 c 0
 224 -314 226 -333 212 -333 c 0
 202 -333 200 -313 172 -264 c 0
 138 -205 128 -196 128 -186 c 0
 128 -181 132 -179 134 -179 c 0
 156 -179 197 -226 197 -172 c 0
 197 -152 182 -142 166 -129 c 0
 95 -71 -1 -15 -1 66 c 0
 -1 134 39 162 89 162 c 0
 121 162 146 146 166 146 c 0
 177 146 179 157 179 167 c 0
 179 279 172 400 172 465 c 0xb0
189 79 m 0
 167 124 95 129 84 65 c 0
 72 -7 102 -38 148 -76 c 0
 163 -89 176 -97 185 -97 c 0
 194 -97 199 -88 199 -67 c 0
 199 15 l 0x88
 199 41 196 65 189 79 c 0
EndSplineSet
EndChar

StartChar: I
Encoding: 73 73 81
Width: 294
Flags: W
HStem: -333 21G<207 219> 465 20G<186 214.5> 465 20G<186 214.5>
VStem: -1 230<2.98819 134.915> 172 57<172.256 484.984> 179 50<146.008 461.912> 197 32<-193.275 -141.871>
LayerCount: 2
Fore
SplineSet
172 465 m 0xa8
 172 485 172 485 200 485 c 0
 229 485 229 485 229 468 c 0xc8
 229 -168 l 0xc2
 229 -223 262 -179 286 -179 c 0
 288 -179 294 -180 294 -186 c 0
 294 -198 282 -209 252 -263 c 0
 224 -314 226 -333 212 -333 c 0
 202 -333 200 -313 172 -264 c 0xc8
 138 -205 128 -196 128 -186 c 0
 128 -181 132 -179 134 -179 c 0
 156 -179 197 -226 197 -172 c 0xc2
 197 -152 182 -142 166 -129 c 0
 95 -71 -1 -15 -1 66 c 0xd0
 -1 134 39 162 89 162 c 0
 121 162 146 146 166 146 c 0
 177 146 179 157 179 167 c 0xc4
 179 279 172 400 172 465 c 0xa8
EndSplineSet
EndChar

StartChar: J
Encoding: 74 74 82
Width: 386
Flags: W
HStem: 464.971 20G<179.5 207> 464.971 20G<179.5 207>
VStem: 168 50<147.008 484.961> 177 32<-93.9956 91.7842>
LayerCount: 2
Fore
SplineSet
222 465 m 0xa0
 222 400 218 280 218 168 c 0xa0
 218 158 220 147 230 147 c 0
 249 147 270 162 300 162 c 0
 348 162 386 134 386 66 c 0
 386 -15 305.967 -70.962 239 -129 c 0
 209 -155 l 0
 195.675 -166.548 188.23 -164.733 177 -155 c 0x90
 147 -129 l 0
 80.0332 -70.9619 0 -15 0 66 c 0
 0 134 38 162 86 162 c 0
 116 162 137 147 156 147 c 0
 166 147 168 158 168 168 c 0
 168 280 164 400 164 465 c 0
 164 484 166 484.971 193 484.971 c 0
 221 484.971 222 484.5 222 465 c 0xa0
167 82 m 0
 146 127 88 131 78 69 c 0
 67 0 93 -43 131 -76 c 0
 146 -89 154 -94 163 -94 c 0
 172 -94 177 -88 177 -67 c 0
 177 18 l 0x10
 177 44 174 68 167 82 c 0
209 -67 m 0
 209 -88 214 -94 223 -94 c 0
 232 -94 240 -89 255 -76 c 0
 293 -43 319 0 308 69 c 0
 298 131 240 127 219 82 c 0
 212 68 209 44 209 18 c 0
 209 -67 l 0
EndSplineSet
EndChar

StartChar: K
Encoding: 75 75 83
Width: 386
Flags: W
HStem: 464.971 20G<179.5 207> 464.971 20G<179.5 207>
VStem: 168 50<147.008 484.961>
LayerCount: 2
Fore
SplineSet
222 465 m 0xa0
 222 400 218 280 218 168 c 0
 218 158 220 147 230 147 c 0
 249 147 270 162 300 162 c 0
 348 162 386 134 386 66 c 0
 386 -15 305.967 -70.962 239 -129 c 0
 209 -155 l 0
 195.675 -166.548 188.23 -164.733 177 -155 c 0
 147 -129 l 0
 80.0332 -70.9619 0 -15 0 66 c 0
 0 134 38 162 86 162 c 0
 116 162 137 147 156 147 c 0
 166 147 168 158 168 168 c 0
 168 280 164 400 164 465 c 0
 164 484 166 484.971 193 484.971 c 0
 221 484.971 222 484.5 222 465 c 0xa0
209 -67 m 0
 209 -88 214 -94 223 -94 c 0
 232 -94 240 -89 255 -76 c 0
 293 -43 319 0 308 69 c 0
 298 131 240 127 219 82 c 0
 212 68 209 44 209 18 c 0
 209 -67 l 0
EndSplineSet
EndChar

StartChar: L
Encoding: 76 76 84
Width: 386
Flags: W
HStem: 464.971 20G<179.5 207> 464.971 20G<179.5 207>
VStem: 168 50<147.008 484.961> 177 209<-3.4296 97.5785>
LayerCount: 2
Fore
SplineSet
222 465 m 0xa0
 222 400 218 280 218 168 c 0xa0
 218 158 220 147 230 147 c 0
 249 147 270 162 300 162 c 0
 348 162 386 134 386 66 c 0
 386 -15 305.967 -70.962 239 -129 c 0
 209 -155 l 0
 195.675 -166.548 188.23 -164.733 177 -155 c 0x90
 147 -129 l 0
 80.0332 -70.9619 0 -15 0 66 c 0
 0 134 38 162 86 162 c 0
 116 162 137 147 156 147 c 0
 166 147 168 158 168 168 c 0
 168 280 164 400 164 465 c 0
 164 484 166 484.971 193 484.971 c 0
 221 484.971 222 484.5 222 465 c 0xa0
167 82 m 0
 146 127 88 131 78 69 c 0
 67 0 93 -43 131 -76 c 0
 146 -89 154 -94 163 -94 c 0
 172 -94 177 -88 177 -67 c 0
 177 18 l 0x10
 177 44 174 68 167 82 c 0
EndSplineSet
EndChar

StartChar: M
Encoding: 77 77 85
Width: 386
Flags: W
HStem: 464.971 20G<179.5 207> 464.971 20G<179.5 207>
VStem: 0 386<-3.42958 134.915> 168 50<147.008 484.961>
LayerCount: 2
Fore
SplineSet
222 465 m 0x90
 222 400 218 280 218 168 c 0x90
 218 158 220 147 230 147 c 0
 249 147 270 162 300 162 c 0
 348 162 386 134 386 66 c 0
 386 -15 305.967 -70.962 239 -129 c 0
 209 -155 l 0
 195.675 -166.548 188.23 -164.733 177 -155 c 0
 147 -129 l 0
 80.0332 -70.9619 0 -15 0 66 c 0xa0
 0 134 38 162 86 162 c 0
 116 162 137 147 156 147 c 0
 166 147 168 158 168 168 c 0
 168 280 164 400 164 465 c 0
 164 484 166 484.971 193 484.971 c 0
 221 484.971 222 484.5 222 465 c 0x90
EndSplineSet
EndChar

StartChar: N
Encoding: 78 78 86
Width: 386
Flags: W
HStem: 421 21G<114 117.635 263.822 268> 555 20G<188 200> 555 20G<188 200>
VStem: 168 50<147.008 431.932> 177 32<-93.9956 91.7842>
LayerCount: 2
Fore
SplineSet
209 -67 m 0x88
 209 -88 214 -94 223 -94 c 0
 232 -94 240 -89 255 -76 c 0
 293 -43 319 0 308 69 c 0
 298 131 240 127 219 82 c 0
 212 68 209 44 209 18 c 0
 209 -67 l 0x88
167 82 m 0
 146 127 88 131 78 69 c 0
 67 0 93 -43 131 -76 c 0
 146 -89 154 -94 163 -94 c 0
 172 -94 177 -88 177 -67 c 0
 177 18 l 0
 177 44 174 68 167 82 c 0
275 428 m 0
 275 422 269 421 267 421 c 0
 260.645 421 253.795 424.487 246 429.006 c 0
 228.697 439.036 218.855 431 218.75 411 c 0
 218.418 347.551 218 243.457 218 168 c 0xd0
 218 158 220 147 230 147 c 0
 249 147 270 162 300 162 c 0
 348 162 386 134 386 66 c 0
 386 -15 305.967 -70.962 239 -129 c 0
 209 -155 l 0
 196 -167 188 -165 177 -155 c 0xc8
 147 -129 l 0
 80.033 -70.9619 0 -15 0 66 c 0
 0 134 38 162 86 162 c 0
 116 162 137 147 156 147 c 0
 166 147 168 158 168 168 c 0
 168 242.798 167.588 346.164 167.258 409.333 c 0
 167.101 439.333 153.775 439.703 136.333 429.915 c 0
 127.525 424.972 120.27 421 115 421 c 0
 113 421 109 423 109 428 c 0
 109 438 119.108 446.937 153 506 c 0
 181.089 554.949 183 575 193 575 c 0xd0
 207 575 203 556 233 505 c 0
 265 452 275 440 275 428 c 0
EndSplineSet
EndChar

StartChar: O
Encoding: 79 79 87
Width: 386
Flags: W
HStem: 421 21G<114 117.635 263.822 268> 555 20G<188 200> 555 20G<188 200>
VStem: 0 209<-3.42958 97.5785> 168 50<147.008 431.932>
LayerCount: 2
Fore
SplineSet
209 -67 m 0x90
 209 -88 214 -94 223 -94 c 0
 232 -94 240 -89 255 -76 c 0
 293 -43 319 0 308 69 c 0
 298 131 240 127 219 82 c 0
 212 68 209 44 209 18 c 0
 209 -67 l 0x90
275 428 m 0
 275 422 269 421 267 421 c 0
 260.645 421 253.795 424.487 246 429.006 c 0
 228.697 439.036 218.855 431 218.75 411 c 0
 218.418 347.551 218 243.457 218 168 c 0xc8
 218 158 220 147 230 147 c 0
 249 147 270 162 300 162 c 0
 348 162 386 134 386 66 c 0
 386 -15 305.967 -70.962 239 -129 c 0
 209 -155 l 0
 196 -167 188 -165 177 -155 c 0
 147 -129 l 0
 80.033 -70.9619 0 -15 0 66 c 0xd0
 0 134 38 162 86 162 c 0
 116 162 137 147 156 147 c 0
 166 147 168 158 168 168 c 0
 168 242.798 167.588 346.164 167.258 409.333 c 0
 167.101 439.333 153.775 439.703 136.333 429.915 c 0
 127.525 424.972 120.27 421 115 421 c 0
 113 421 109 423 109 428 c 0
 109 438 119.108 446.937 153 506 c 0
 181.089 554.949 183 575 193 575 c 0xc8
 207 575 203 556 233 505 c 0
 265 452 275 440 275 428 c 0
EndSplineSet
EndChar

StartChar: P
Encoding: 80 80 88
Width: 386
Flags: W
HStem: 421 21G<114 117.635 263.822 268> 555 20G<188 200> 555 20G<188 200>
VStem: 168 50<147.008 431.932> 177 209<-3.4296 97.5785>
LayerCount: 2
Fore
SplineSet
167 82 m 0x88
 146 127 88 131 78 69 c 0
 67 0 93 -43 131 -76 c 0
 146 -89 154 -94 163 -94 c 0
 172 -94 177 -88 177 -67 c 0
 177 18 l 0
 177 44 174 68 167 82 c 0x88
275 428 m 0
 275 422 269 421 267 421 c 0
 260.645 421 253.795 424.487 246 429.006 c 0
 228.697 439.036 218.855 431 218.75 411 c 0
 218.418 347.551 218 243.457 218 168 c 0xd0
 218 158 220 147 230 147 c 0
 249 147 270 162 300 162 c 0
 348 162 386 134 386 66 c 0
 386 -15 305.967 -70.962 239 -129 c 0
 209 -155 l 0
 196 -167 188 -165 177 -155 c 0xc8
 147 -129 l 0
 80.033 -70.9619 0 -15 0 66 c 0
 0 134 38 162 86 162 c 0
 116 162 137 147 156 147 c 0
 166 147 168 158 168 168 c 0
 168 242.798 167.588 346.164 167.258 409.333 c 0
 167.101 439.333 153.775 439.703 136.333 429.915 c 0
 127.525 424.972 120.27 421 115 421 c 0
 113 421 109 423 109 428 c 0
 109 438 119.108 446.937 153 506 c 0
 181.089 554.949 183 575 193 575 c 0xd0
 207 575 203 556 233 505 c 0
 265 452 275 440 275 428 c 0
EndSplineSet
EndChar

StartChar: Q
Encoding: 81 81 89
Width: 386
Flags: W
HStem: 421 21G<114 117.635 263.822 268> 555 20G<188 200> 555 20G<188 200>
VStem: 0 386<-3.42958 134.915> 168 50<147.008 431.932>
LayerCount: 2
Fore
SplineSet
275 428 m 0xc8
 275 422 269 421 267 421 c 0
 260.645 421 253.795 424.487 246 429.006 c 0
 228.697 439.036 218.855 431 218.75 411 c 0
 218.418 347.551 218 243.457 218 168 c 0xc8
 218 158 220 147 230 147 c 0
 249 147 270 162 300 162 c 0
 348 162 386 134 386 66 c 0
 386 -15 305.967 -70.962 239 -129 c 0
 209 -155 l 0
 196 -167 188 -165 177 -155 c 0
 147 -129 l 0
 80.033 -70.9619 0 -15 0 66 c 0xd0
 0 134 38 162 86 162 c 0
 116 162 137 147 156 147 c 0
 166 147 168 158 168 168 c 0
 168 242.798 167.588 346.164 167.258 409.333 c 0
 167.101 439.333 153.775 439.703 136.333 429.915 c 0
 127.525 424.972 120.27 421 115 421 c 0
 113 421 109 423 109 428 c 0
 109 438 119.108 446.937 153 506 c 0
 181.089 554.949 183 575 193 575 c 0
 207 575 203 556 233 505 c 0
 265 452 275 440 275 428 c 0xc8
EndSplineSet
EndChar

StartChar: R
Encoding: 82 82 90
Width: 386
Flags: W
HStem: -333 21G<187 199> 465 20G<179.5 207> 465 20G<179.5 207>
VStem: 112 64<-195.318 -166> 168 50<147.008 484.992> 176 34<-192.637 -140.078 -93.9956 93.5546> 210 68<-208.5 -168.5>
LayerCount: 2
Fore
SplineSet
209 -67 m 0x80
 209 -88 214 -94 223 -94 c 0
 232 -94 240 -89 255 -76 c 0
 293 -43 319 0 308 69 c 0
 298 131 240 127 219 82 c 0
 212 68 209 44 209 18 c 0
 209 -67 l 0x80
167 82 m 0
 146 127 88 131 78 69 c 0
 67 0 93 -43 131 -76 c 0
 146 -89 154 -94 163 -94 c 0
 172 -94 177 -88 177 -67 c 0
 177 18 l 0
 177 44 174 68 167 82 c 0
222 465 m 0xa8
 222 400 218 280 218 168 c 0xa8
 218 158 220 147 230 147 c 0
 249 147 270 162 300 162 c 0
 348 162 386 134 386 66 c 0
 386 -15 306 -71 239 -129 c 0
 219 -146 210 -156 210 -172 c 0xa4
 210 -221 250 -179 272 -179 c 0
 274 -179 278 -181 278 -186 c 0
 278 -196 268 -205 234 -264 c 0
 206 -313 204 -333 194 -333 c 0
 180 -333 182 -314 154 -263 c 0
 124 -209 112 -198 112 -186 c 0
 112 -180 118 -179 120 -179 c 0
 144 -179 176 -220 176 -172 c 0xb2
 176 -152 167 -146 147 -129 c 0
 80 -71 0 -15 0 66 c 0
 0 134 38 162 86 162 c 0
 116 162 137 147 156 147 c 0
 166 147 168 158 168 168 c 0
 168 280 164 400 164 465 c 0xa8
 164 484 166 485 193 485 c 0xc8
 221 485 222 484 222 465 c 0xa8
EndSplineSet
EndChar

StartChar: S
Encoding: 83 83 91
Width: 386
Flags: W
HStem: -333 21G<187 199> 465 20G<179.5 207> 465 20G<179.5 207>
VStem: 168 50<147.008 484.992> 176 33<-192.637 -141.309> 210 68<-208.5 -168.5>
LayerCount: 2
Fore
SplineSet
209 -67 m 0x88
 209 -88 214 -94 223 -94 c 0
 232 -94 240 -89 255 -76 c 0
 293 -43 319 0 308 69 c 0
 298 131 240 127 219 82 c 0
 212 68 209 44 209 18 c 0
 209 -67 l 0x88
222 465 m 0xb0
 222 400 218 280 218 168 c 0xb0
 218 158 220 147 230 147 c 0
 249 147 270 162 300 162 c 0
 348 162 386 134 386 66 c 0
 386 -15 306 -71 239 -129 c 0
 219 -146 210 -156 210 -172 c 0
 210 -221 250 -179 272 -179 c 0
 274 -179 278 -181 278 -186 c 0
 278 -196 268 -205 234 -264 c 0
 206 -313 204 -333 194 -333 c 0
 180 -333 182 -314 154 -263 c 0
 124 -209 112 -198 112 -186 c 0
 112 -180 118 -179 120 -179 c 0
 144 -179 176 -220 176 -172 c 0xac
 176 -152 167 -146 147 -129 c 0
 80 -71 0 -15 0 66 c 0
 0 134 38 162 86 162 c 0
 116 162 137 147 156 147 c 0
 166 147 168 158 168 168 c 0
 168 280 164 400 164 465 c 0xb0
 164 484 166 485 193 485 c 0xd0
 221 485 222 484 222 465 c 0xb0
EndSplineSet
EndChar

StartChar: T
Encoding: 84 84 92
Width: 386
Flags: W
HStem: -333 21G<187 199> 465 20G<179.5 207> 465 20G<179.5 207>
VStem: 112 64<-195.318 -166> 168 50<147.008 484.992> 177 209<-3.43726 97.5785> 177 33<-193.084 -140.687>
LayerCount: 2
Fore
SplineSet
167 82 m 0x84
 146 127 88 131 78 69 c 0
 67 0 93 -43 131 -76 c 0
 146 -89 154 -94 163 -94 c 0
 172 -94 177 -88 177 -67 c 0x82
 177 18 l 0
 177 44 174 68 167 82 c 0x84
222 465 m 0xa8
 222 400 218 280 218 168 c 0xa8
 218 158 220 147 230 147 c 0
 249 147 270 162 300 162 c 0
 348 162 386 134 386 66 c 0xa4
 386 -15 306 -71 239 -129 c 0
 219 -146 210 -156 210 -172 c 0
 210 -221 250 -179 272 -179 c 0
 274 -179 278 -181 278 -186 c 0
 278 -196 268 -205 234 -264 c 0
 206 -313 204 -333 194 -333 c 0
 180 -333 182 -314 154 -263 c 0
 124 -209 112 -198 112 -186 c 0
 112 -180 118 -179 120 -179 c 0
 144 -179 176 -220 176 -172 c 0xb2
 176 -152 167 -146 147 -129 c 0
 80 -71 0 -15 0 66 c 0
 0 134 38 162 86 162 c 0
 116 162 137 147 156 147 c 0
 166 147 168 158 168 168 c 0
 168 280 164 400 164 465 c 0xa8
 164 484 166 485 193 485 c 0xc8
 221 485 222 484 222 465 c 0xa8
EndSplineSet
EndChar

StartChar: U
Encoding: 85 85 93
Width: 386
Flags: W
HStem: -333 21G<187 199> 465 20G<179.5 207> 465 20G<179.5 207>
VStem: 0 386<-3.43726 134.915> 168 50<147.008 484.992> 176 34<-192.637 -140.078>
LayerCount: 2
Fore
SplineSet
222 465 m 0xa8
 222 400 218 280 218 168 c 0xa8
 218 158 220 147 230 147 c 0
 249 147 270 162 300 162 c 0
 348 162 386 134 386 66 c 0xb0
 386 -15 306 -71 239 -129 c 0
 219 -146 210 -156 210 -172 c 0
 210 -221 250 -179 272 -179 c 0
 274 -179 278 -181 278 -186 c 0
 278 -196 268 -205 234 -264 c 0
 206 -313 204 -333 194 -333 c 0
 180 -333 182 -314 154 -263 c 0
 124 -209 112 -198 112 -186 c 0
 112 -180 118 -179 120 -179 c 0
 144 -179 176 -220 176 -172 c 0xa4
 176 -152 167 -146 147 -129 c 0
 80 -71 0 -15 0 66 c 0xb0
 0 134 38 162 86 162 c 0
 116 162 137 147 156 147 c 0
 166 147 168 158 168 168 c 0
 168 280 164 400 164 465 c 0xa8
 164 484 166 485 193 485 c 0xc8
 221 485 222 484 222 465 c 0xa8
EndSplineSet
EndChar

StartChar: V
Encoding: 86 86 94
Width: 249
Flags: W
HStem: -132 85<202.588 249> 546 85<2.39999e-007 46.4123>
VStem: 47 31<-367.974 -191.126 -84.9185 546.445 652.865 840.996> 171 31<-341.996 -153.865 -47.4451 583.918 690.126 866.974>
LayerCount: 2
Fore
SplineSet
171 565 m 0
 171 577 167 589 146 583 c 0
 102 569 l 0
 82 563 78 552 78 538 c 0
 78 -66 l 0
 78 -78 82 -90 103 -84 c 0
 147 -70 l 0
 167 -64 171 -53 171 -39 c 0
 171 565 l 0
47 530 m 0
 47 548 41 551 24 546 c 0
 9 542 0 540 0 562 c 0
 0 609 l 0
 0 621 8 626 23 631 c 0
 44 639 47 648 47 660 c 0
 47 733 43 802 43 828 c 0
 43 837 46 841 62 841 c 0
 79 841 82 835 82 826 c 0
 82 801 78 732 78 676 c 0
 78 655 88 650 100 653 c 0
 140 665 l 0
 157 670 171 671 171 702 c 0
 171 769 167 825 167 854 c 0
 167 863 172 867 188 867 c 0
 205 867 206 861 206 852 c 0
 206 823 202 777 202 707 c 0
 202 694 203 684 227 691 c 0
 243 696 249 690 249 672 c 0
 249 632 l 0
 249 615 243 613 222 605 c 0
 204 598 202 589 202 576 c 0
 202 -31 l 0
 202 -49 208 -52 225 -47 c 0
 243 -42 249 -47 249 -64 c 0
 249 -111 l 0
 249 -123 241 -127 226 -132 c 0
 205 -140 202 -149 202 -161 c 0
 202 -234 206 -303 206 -329 c 0
 206 -338 203 -342 187 -342 c 0
 170 -342 167 -336 167 -327 c 0
 167 -302 171 -233 171 -177 c 0
 171 -156 161 -151 149 -154 c 0
 109 -166 l 0
 92 -171 78 -172 78 -203 c 0
 78 -270 82 -326 82 -355 c 0
 82 -364 77 -368 61 -368 c 0
 44 -368 43 -362 43 -353 c 0
 43 -324 47 -278 47 -208 c 0
 47 -195 46 -185 22 -192 c 0
 6 -197 0 -192 0 -174 c 0
 0 -133 l 0
 0 -116 6 -114 27 -106 c 0
 45 -99 47 -90 47 -77 c 0
 47 530 l 0
EndSplineSet
EndChar

StartChar: W
Encoding: 87 87 95
Width: 270
Flags: W
HStem: -132 85<202.588 249> 46 85<2.39999e-007 46.4123> 424 21G<109 113.5 257.5 263> 558 20G<183 195>
VStem: 47 31<-367.974 -191.126 -84.9185 46.4451 152.865 340.996> 171 31<-341.996 -153.865 -47.4451 83.9185 190.126 440.735>
LayerCount: 2
Fore
SplineSet
270 430 m 0
 270 424 264 424 262 424 c 0
 253 424 244 430 232 437 c 0
 217 446 205 444 205 419 c 0
 204 372 202 254 202 207 c 0
 202 194 203 184 227 191 c 0
 243 196 249 190 249 172 c 0
 249 132 l 0
 249 115 243 113 222 105 c 0
 204 98 202 89 202 76 c 0
 202 -31 l 0
 202 -49 208 -52 225 -47 c 0
 243 -42 249 -47 249 -64 c 0
 249 -111 l 0
 249 -123 241 -127 226 -132 c 0
 205 -140 202 -149 202 -161 c 0
 202 -234 206 -303 206 -329 c 0
 206 -338 203 -342 187 -342 c 0
 170 -342 167 -336 167 -327 c 0
 167 -302 171 -233 171 -177 c 0
 171 -156 161 -151 149 -154 c 0
 109 -166 l 0
 92 -171 78 -172 78 -203 c 0
 78 -270 82 -326 82 -355 c 0
 82 -364 77 -368 61 -368 c 0
 44 -368 43 -362 43 -353 c 0
 43 -324 47 -278 47 -208 c 0
 47 -195 46 -185 22 -192 c 0
 6 -197 0 -192 0 -174 c 0
 0 -133 l 0
 0 -116 6 -114 27 -106 c 0
 45 -99 47 -90 47 -77 c 0
 47 30 l 0
 47 48 41 51 24 46 c 0
 9 42 0 40 0 62 c 0
 0 109 l 0
 0 121 8 126 23 131 c 0
 44 139 47 148 47 160 c 0
 47 233 43 302 43 328 c 0
 43 337 46 341 62 341 c 0
 79 341 82 335 82 326 c 0
 82 301 78 232 78 176 c 0
 78 155 88 150 100 153 c 0
 140 165 l 0
 157 170 171 171 171 202 c 0
 171 248 168 370 168 422 c 0
 168 442 155 445 139 437 c 0
 127 430 117 424 110 424 c 0
 108 424 104 426 104 430 c 0
 104 440 114 449 148 508 c 0
 176 557 178 578 188 578 c 0
 202 578 198 558 228 508 c 0
 260 454 270 442 270 430 c 0
171 65 m 0
 171 77 167 89 146 83 c 0
 102 69 l 0
 82 63 78 52 78 38 c 0
 78 -66 l 0
 78 -78 82 -90 103 -84 c 0
 147 -70 l 0
 167 -64 171 -53 171 -39 c 0
 171 65 l 0
EndSplineSet
EndChar

StartChar: X
Encoding: 88 88 96
Width: 270
Flags: W
HStem: -131 85<223.588 270> 47 85<21 67.4123> 348 20G<201 217.5>
VStem: 68 31<-440.735 -190.126 -83.9185 47.4451 153.865 341.996> 192 31<-340.996 -152.865 -46.4451 84.9185 191.126 367.974>
LayerCount: 2
Fore
SplineSet
0 -430 m 0
 0 -424 6 -424 8 -424 c 0
 17 -424 26 -430 38 -437 c 0
 53 -446 65 -444 65 -419 c 0
 66 -372 68 -254 68 -207 c 0
 68 -194 67 -184 43 -191 c 0
 27 -196 21 -190 21 -172 c 0
 21 -132 l 0
 21 -115 27 -113 48 -105 c 0
 66 -98 68 -89 68 -76 c 0
 68 31 l 0
 68 49 62 52 45 47 c 0
 27 42 21 47 21 64 c 0
 21 111 l 0
 21 123 29 127 44 132 c 0
 65 140 68 149 68 161 c 0
 68 234 64 303 64 329 c 0
 64 338 67 342 83 342 c 0
 100 342 103 336 103 327 c 0
 103 302 99 233 99 177 c 0
 99 156 109 151 121 154 c 0
 161 166 l 0
 178 171 192 172 192 203 c 0
 192 270 188 326 188 355 c 0
 188 364 193 368 209 368 c 0
 226 368 227 362 227 353 c 0
 227 324 223 278 223 208 c 0
 223 195 224 185 248 192 c 0
 264 197 270 192 270 174 c 0
 270 133 l 0
 270 116 264 114 243 106 c 0
 225 99 223 90 223 77 c 0
 223 -30 l 0
 223 -48 229 -51 246 -46 c 0
 261 -42 270 -40 270 -62 c 0
 270 -109 l 0
 270 -121 262 -126 247 -131 c 0
 226 -139 223 -148 223 -160 c 0
 223 -233 227 -302 227 -328 c 0
 227 -337 224 -341 208 -341 c 0
 191 -341 188 -335 188 -326 c 0
 188 -301 192 -232 192 -176 c 0
 192 -155 182 -150 170 -153 c 0
 130 -165 l 0
 113 -170 99 -171 99 -202 c 0
 99 -248 102 -370 102 -422 c 0
 102 -442 115 -445 131 -437 c 0
 143 -430 153 -424 160 -424 c 0
 162 -424 166 -426 166 -430 c 0
 166 -440 156 -449 122 -508 c 0
 94 -557 92 -578 82 -578 c 0
 68 -578 72 -558 42 -508 c 0
 10 -454 0 -442 0 -430 c 0
99 -65 m 0
 99 -77 103 -89 124 -83 c 0
 168 -69 l 0
 188 -63 192 -52 192 -38 c 0
 192 66 l 0
 192 78 188 90 167 84 c 0
 123 70 l 0
 103 64 99 53 99 39 c 0
 99 -65 l 0
EndSplineSet
EndChar

StartChar: Y
Encoding: 89 89 97
Width: 249
Flags: W
VStem: 109 31<-364.974 -54.087 53.1429 364.996>
LayerCount: 2
Fore
SplineSet
140 -150 m 0
 140 -218 144 -323 144 -352 c 0
 144 -361 139 -365 123 -365 c 0
 106 -365 105 -359 105 -350 c 0
 105 -321 109 -226 109 -156 c 0
 109 -77 l 0
 109 -54 101 -50 79 -56 c 0
 24 -73 l 0
 4 -79 0 -76 0 -56 c 0
 0 -19 l 0
 0 2 3 5 21 10 c 0
 80 28 l 0
 106 36 109 46 109 70 c 0
 109 138 l 0
 109 211 105 326 105 352 c 0
 105 361 108 365 124 365 c 0
 141 365 144 359 144 350 c 0
 144 325 140 210 140 154 c 0
 140 77 l 0
 140 53 145 48 169 55 c 0
 225 72 l 0
 244 78 249 70 249 54 c 0
 249 21 l 0
 249 -3 246 -6 225 -12 c 0
 168 -29 l 0
 146 -36 140 -46 140 -70 c 0
 140 -150 l 0
EndSplineSet
EndChar

StartChar: Z
Encoding: 90 90 98
Width: 249
Flags: W
VStem: 109 31<-364.996 -172.103 -65.2531 65.2531 172.103 364.996>
LayerCount: 2
Fore
SplineSet
109 44 m 0
 109 68 104 70 83 64 c 0
 24 46 l 0
 4 40 0 43 0 63 c 0
 0 100 l 0
 0 121 3 124 21 129 c 0
 81 147 l 0
 104 154 109 162 109 184 c 0
 109 244 105 326 105 352 c 0
 105 361 108 365 124 365 c 0
 141 365 144 359 144 350 c 0
 144 325 140 246 140 190 c 0
 140 171 147 167 168 174 c 0
 225 191 l 0
 244 197 249 189 249 173 c 0
 249 140 l 0
 249 116 246 113 225 107 c 0
 164 88 l 0
 142 82 140 74 140 52 c 0
 140 -44 l 0
 140 -68 145 -70 166 -64 c 0
 225 -46 l 0
 245 -40 249 -43 249 -63 c 0
 249 -100 l 0
 249 -121 246 -124 228 -129 c 0
 168 -147 l 0
 145 -154 140 -162 140 -184 c 0
 140 -244 144 -326 144 -352 c 0
 144 -361 141 -365 125 -365 c 0
 108 -365 105 -359 105 -350 c 0
 105 -325 109 -246 109 -190 c 0
 109 -171 102 -167 81 -174 c 0
 24 -191 l 0
 5 -197 0 -189 0 -173 c 0
 0 -140 l 0
 0 -116 3 -113 24 -107 c 0
 85 -88 l 0
 107 -82 109 -74 109 -52 c 0
 109 44 l 0
EndSplineSet
EndChar

StartChar: backslash
Encoding: 92 92 99
Width: 249
Flags: W
HStem: 433 20G<119 131>
VStem: 109 31<-364.974 -54.087 53.1429 314.559>
LayerCount: 2
Fore
SplineSet
140 -150 m 0
 140 -218 144 -323 144 -352 c 0
 144 -361 139 -365 123 -365 c 0
 106 -365 105 -359 105 -350 c 0
 105 -321 109 -226 109 -156 c 0
 109 -77 l 0
 109 -54 101 -50 79 -56 c 0
 24 -73 l 0
 4 -79 0 -76 0 -56 c 0
 0 -19 l 0
 0 2 3 5 21 10 c 0
 80 28 l 0
 106 36 109 46 109 70 c 0
 109 138 l 0
 109 185 107 249 106 295 c 0
 106 317 94 322 78 314 c 0
 64 307 53 299 46 299 c 0
 44 299 40 301 40 306 c 0
 40 316 50 325 84 384 c 0
 112 433 114 453 124 453 c 0
 138 453 134 434 164 383 c 0
 196 330 206 318 206 306 c 0
 206 300 200 299 198 299 c 0
 190 299 182 304 171 310 c 0
 156 319 143 320 143 294 c 0
 142 249 140 190 140 154 c 0
 140 77 l 0
 140 53 145 48 169 55 c 0
 225 72 l 0
 244 78 249 70 249 54 c 0
 249 21 l 0
 249 -3 246 -6 225 -12 c 0
 168 -29 l 0
 146 -36 140 -46 140 -70 c 0
 140 -150 l 0
EndSplineSet
EndChar

StartChar: asciicircum
Encoding: 94 94 100
Width: 249
Flags: W
HStem: 433 20G<119 131>
VStem: 109 31<-364.996 -172.103 -65.2531 65.2531 172.327 314.559>
LayerCount: 2
Fore
SplineSet
140 190 m 0
 140 178 147 167 168 174 c 0
 225 191 l 0
 244 197 249 189 249 173 c 0
 249 140 l 0
 249 116 246 113 225 107 c 0
 164 88 l 0
 142 82 140 74 140 52 c 0
 140 -44 l 0
 140 -68 145 -70 166 -64 c 0
 225 -46 l 0
 245 -40 249 -43 249 -63 c 0
 249 -100 l 0
 249 -121 246 -124 228 -129 c 0
 168 -147 l 0
 145 -154 140 -162 140 -184 c 0
 140 -244 144 -326 144 -352 c 0
 144 -361 141 -365 125 -365 c 0
 108 -365 105 -359 105 -350 c 0
 105 -325 109 -246 109 -190 c 0
 109 -171 102 -167 81 -174 c 0
 24 -191 l 0
 5 -197 0 -189 0 -173 c 0
 0 -140 l 0
 0 -116 3 -113 24 -107 c 0
 85 -88 l 0
 107 -82 109 -74 109 -52 c 0
 109 44 l 0
 109 68 104 70 83 64 c 0
 24 46 l 0
 4 40 0 43 0 63 c 0
 0 100 l 0
 0 121 3 124 21 129 c 0
 81 147 l 0
 104 154 109 166 109 184 c 0
 109 227 108 249 106 295 c 0
 105 317 94 322 78 314 c 0
 64 307 53 299 46 299 c 0
 44 299 40 301 40 306 c 0
 40 316 50 325 84 384 c 0
 112 433 114 453 124 453 c 0
 138 453 134 434 164 383 c 0
 196 330 206 318 206 306 c 0
 206 300 200 299 198 299 c 0
 190 299 182 304 171 310 c 0
 156 319 144 320 143 294 c 0
 141 249 140 231 140 190 c 0
EndSplineSet
EndChar

StartChar: grave
Encoding: 96 96 101
Width: 249
Flags: W
HStem: 433 20G<119 131>
VStem: 108 33<-364.996 -214.383 -113.983 -50.2363 49.3534 113.983 214.383 314.094>
LayerCount: 2
Fore
SplineSet
108 230 m 0
 108 245 108 266 106 295 c 0
 104 317 94 322 78 314 c 0
 64 307 53 299 46 299 c 0
 44 299 40 301 40 306 c 0
 40 316 50 325 84 384 c 0
 112 433 114 453 124 453 c 0
 138 453 134 434 164 383 c 0
 196 330 206 318 206 306 c 0
 206 300 200 299 198 299 c 0
 190 299 182 304 171 310 c 0
 156 319 144 320 143 294 c 0
 142 270 141 251 141 235 c 0
 141 209 151 211 173 217 c 0
 225 233 l 0
 244 239 249 231 249 215 c 0
 249 190 l 0
 249 166 246 163 225 157 c 0
 166 139 l 0
 142 132 140 124 140 99 c 0
 140 73 l 0
 140 49 145 44 169 51 c 0
 225 68 l 0
 244 74 249 66 249 50 c 0
 249 29 l 0
 249 5 246 -2 225 -8 c 0
 168 -25 l 0
 146 -32 140 -42 140 -66 c 0
 140 -94 l 0
 140 -114 150 -119 175 -111 c 0
 225 -96 l 0
 245 -90 249 -93 249 -113 c 0
 249 -142 l 0
 249 -163 246 -166 228 -171 c 0
 174 -187 l 0
 152 -194 141 -200 141 -230 c 0
 141 -277 144 -334 144 -352 c 0
 144 -361 141 -365 125 -365 c 0
 108 -365 105 -359 105 -350 c 0
 105 -332 108 -276 108 -235 c 0
 108 -209 98 -211 76 -217 c 0
 24 -233 l 0
 5 -239 0 -231 0 -215 c 0
 0 -190 l 0
 0 -166 3 -163 24 -157 c 0
 83 -139 l 0
 107 -132 109 -124 109 -99 c 0
 109 -73 l 0
 109 -50 101 -46 79 -52 c 0
 24 -69 l 0
 4 -75 0 -72 0 -52 c 0
 0 -23 l 0
 0 -2 3 1 21 6 c 0
 80 24 l 0
 106 32 109 42 109 66 c 0
 109 94 l 0
 109 114 99 119 74 111 c 0
 24 96 l 0
 4 90 0 93 0 113 c 0
 0 142 l 0
 0 163 3 166 21 171 c 0
 75 187 l 0
 97 194 108 200 108 230 c 0
EndSplineSet
EndChar

StartChar: a
Encoding: 97 97 102
Width: 249
Flags: W
VStem: 108 33<-314.094 -214.383 -113.983 -49.3534 50.2363 113.983 214.383 364.996>
LayerCount: 2
Fore
SplineSet
141 -230 m 0
 141 -245 141 -266 143 -295 c 0
 145 -317 155 -322 171 -314 c 0
 185 -307 196 -299 203 -299 c 0
 205 -299 209 -301 209 -306 c 0
 209 -316 199 -325 165 -384 c 0
 137 -433 135 -453 125 -453 c 0
 111 -453 115 -434 85 -383 c 0
 53 -330 43 -318 43 -306 c 0
 43 -300 49 -299 51 -299 c 0
 59 -299 67 -304 78 -310 c 0
 93 -319 105 -320 106 -294 c 0
 107 -270 108 -251 108 -235 c 0
 108 -209 98 -211 76 -217 c 0
 24 -233 l 0
 5 -239 0 -231 0 -215 c 0
 0 -190 l 0
 0 -166 3 -163 24 -157 c 0
 83 -139 l 0
 107 -132 109 -124 109 -99 c 0
 109 -73 l 0
 109 -49 104 -44 80 -51 c 0
 24 -68 l 0
 5 -74 0 -66 0 -50 c 0
 0 -29 l 0
 0 -5 3 2 24 8 c 0
 81 25 l 0
 103 32 109 42 109 66 c 0
 109 94 l 0
 109 114 99 119 74 111 c 0
 24 96 l 0
 4 90 0 93 0 113 c 0
 0 142 l 0
 0 163 3 166 21 171 c 0
 75 187 l 0
 97 194 108 200 108 230 c 0
 108 277 105 334 105 352 c 0
 105 361 108 365 124 365 c 0
 141 365 144 359 144 350 c 0
 144 332 141 276 141 235 c 0
 141 209 151 211 173 217 c 0
 225 233 l 0
 244 239 249 231 249 215 c 0
 249 190 l 0
 249 166 246 163 225 157 c 0
 166 139 l 0
 142 132 140 124 140 99 c 0
 140 73 l 0
 140 50 148 46 170 52 c 0
 225 69 l 0
 245 75 249 72 249 52 c 0
 249 23 l 0
 249 2 246 -1 228 -6 c 0
 169 -24 l 0
 143 -32 140 -42 140 -66 c 0
 140 -94 l 0
 140 -114 150 -119 175 -111 c 0
 225 -96 l 0
 245 -90 249 -93 249 -113 c 0
 249 -142 l 0
 249 -163 246 -166 228 -171 c 0
 174 -187 l 0
 152 -194 141 -200 141 -230 c 0
EndSplineSet
EndChar

StartChar: b
Encoding: 98 98 103
Width: 249
Flags: W
HStem: -12 84<202.397 248.499> 347 20G<178 194.5>
VStem: 47 31<-367.974 -72.5636 33.8623 340.996> 171 31<-341.974 -35.4841 71.5607 366.996>
LayerCount: 2
Fore
SplineSet
78 -149 m 0
 78 -217 82 -326 82 -355 c 0
 82 -364 77 -368 61 -368 c 0
 44 -368 43 -362 43 -353 c 0
 43 -324 47 -225 47 -155 c 0
 47 -94 l 0
 47 -74 44 -68 24 -73 c 0
 4 -78 0 -76 0 -56 c 0
 0 -19 l 0
 0 2 3 4 21 10 c 0
 43 18 47 23 47 46 c 0
 47 106 l 0
 47 178 43 302 43 328 c 0
 43 337 46 341 62 341 c 0
 79 341 82 335 82 326 c 0
 82 301 78 178 78 122 c 0
 78 55 l 0
 78 36 80 28 104 35 c 0
 151 50 l 0
 168 55 171 58 171 81 c 0
 171 148 l 0
 171 220 167 328 167 354 c 0
 167 363 170 367 186 367 c 0
 203 367 206 361 206 352 c 0
 206 327 202 220 202 164 c 0
 202 92 l 0
 202 72 207 67 225 72 c 0
 244 77 249 72 249 54 c 0
 249 21 l 0
 249 -3 245 -4 225 -12 c 0
 207 -20 202 -17 202 -44 c 0
 202 -120 l 0
 202 -188 206 -300 206 -329 c 0
 206 -338 201 -342 185 -342 c 0
 168 -342 167 -336 167 -327 c 0
 167 -298 171 -196 171 -126 c 0
 171 -57 l 0
 171 -40 167 -30 148 -36 c 0
 104 -49 l 0
 81 -56 78 -64 78 -85 c 0
 78 -149 l 0
EndSplineSet
EndChar

StartChar: c
Encoding: 99 99 104
Width: 249
Flags: W
HStem: -233 76<0.587677 46.4772> -69 75<0.210938 46.3876> 157 76<202.523 248.412> 347 20G<178 194.5>
VStem: 47 32<-366.996 -232.719 -133.398 -68.5663 30.2479 96.2372 195.804 340.983> 170 32<-340.983 -195.804 -96.2372 -31.1484 67.6458 133.398 232.719 366.996>
LayerCount: 2
Fore
SplineSet
78 -118 m 0
 78 -133 85 -138 106 -132 c 0
 143 -121 l 0
 166 -114 171 -116 171 -85 c 0
 171 -51 l 0
 171 -29 161 -27 142 -33 c 0
 106 -44 l 0
 84 -51 78 -59 78 -80 c 0
 78 -118 l 0
47 -85 m 0
 47 -71 43 -64 24 -69 c 0
 4 -74 0 -72 0 -52 c 0
 0 -23 l 0
 0 -2 3 0 21 6 c 0
 43 14 47 17 47 39 c 0
 47 77 l 0
 47 94 41 99 24 96 c 0
 3 92 0 93 0 113 c 0
 0 142 l 0
 0 163 3 165 21 171 c 0
 43 179 47 182 47 202 c 0
 47 253 43 309 43 328 c 0
 43 337 46 341 62 341 c 0
 79 341 82 335 82 326 c 0
 82 307 79 255 79 212 c 0
 79 194 89 192 109 198 c 0
 144 208 l 0
 167 215 170 218 170 240 c 0
 170 284 167 337 167 354 c 0
 167 363 170 367 186 367 c 0
 203 367 206 361 206 352 c 0
 206 334 202 287 202 248 c 0
 202 227 211 230 225 233 c 0
 246 237 249 231 249 215 c 0
 249 190 l 0
 249 166 244 163 225 157 c 0
 206 151 202 144 202 126 c 0
 202 85 l 0
 202 67 208 64 225 68 c 0
 244 73 249 68 249 50 c 0
 249 25 l 0
 249 1 245 0 225 -8 c 0
 207 -16 202 -18 202 -39 c 0
 202 -77 l 0
 202 -94 208 -99 225 -96 c 0
 246 -92 249 -93 249 -113 c 0
 249 -142 l 0
 249 -163 246 -165 228 -171 c 0
 206 -179 202 -182 202 -202 c 0
 202 -253 206 -309 206 -328 c 0
 206 -337 203 -341 187 -341 c 0
 170 -341 167 -335 167 -326 c 0
 167 -307 170 -255 170 -212 c 0
 170 -194 160 -192 140 -198 c 0
 105 -208 l 0
 82 -215 79 -218 79 -240 c 0
 79 -284 82 -337 82 -354 c 0
 82 -363 79 -367 63 -367 c 0
 46 -367 43 -361 43 -352 c 0
 43 -334 47 -287 47 -248 c 0
 47 -227 38 -230 24 -233 c 0
 3 -237 0 -231 0 -215 c 0
 0 -190 l 0
 0 -166 5 -163 24 -157 c 0
 43 -151 47 -144 47 -126 c 0
 47 -85 l 0
103 31 m 0
 148 45 l 0
 167 51 171 57 171 76 c 0
 171 118 l 0
 171 133 164 138 143 132 c 0
 106 121 l 0
 83 114 78 116 78 85 c 0
 78 49 l 0
 78 33 84 25 103 31 c 0
EndSplineSet
EndChar

StartChar: d
Encoding: 100 100 105
Width: 270
Flags: W
HStem: -12 84<202.397 248.499> 424 21G<109 113.5 257.5 263> 558 20G<183 195>
VStem: 47 31<-367.974 -72.5636 33.8623 340.996> 171 31<-341.974 -35.4841 71.5607 440.735>
LayerCount: 2
Fore
SplineSet
171 146 m 0
 171 192 169 370 168 422 c 0
 168 442 155 445 139 437 c 0
 127 430 117 424 110 424 c 0
 108 424 104 426 104 430 c 0
 104 440 114 449 148 508 c 0
 176 557 178 578 188 578 c 0
 202 578 198 558 228 508 c 0
 260 454 270 442 270 430 c 0
 270 424 264 424 262 424 c 0
 253 424 244 430 232 437 c 0
 217 446 206 444 205 419 c 0
 202 368 202 199 202 152 c 0
 202 92 l 0
 202 72 207 67 225 72 c 0
 244 77 249 72 249 54 c 0
 249 21 l 0
 249 -3 245 -4 225 -12 c 0
 207 -20 202 -17 202 -44 c 0
 202 -120 l 0
 202 -188 206 -300 206 -329 c 0
 206 -338 201 -342 185 -342 c 0
 168 -342 167 -336 167 -327 c 0
 167 -298 171 -196 171 -126 c 0
 171 -57 l 0
 171 -40 167 -30 148 -36 c 0
 104 -49 l 0
 81 -56 78 -64 78 -85 c 0
 78 -149 l 0
 78 -217 82 -326 82 -355 c 0
 82 -364 77 -368 61 -368 c 0
 44 -368 43 -362 43 -353 c 0
 43 -324 47 -225 47 -155 c 0
 47 -94 l 0
 47 -74 44 -68 24 -73 c 0
 4 -78 0 -76 0 -56 c 0
 0 -19 l 0
 0 2 3 4 21 10 c 0
 43 18 47 23 47 46 c 0
 47 106 l 0
 47 178 43 302 43 328 c 0
 43 337 46 341 62 341 c 0
 79 341 82 335 82 326 c 0
 82 301 78 178 78 122 c 0
 78 55 l 0
 78 36 80 28 104 35 c 0
 151 50 l 0
 168 55 171 58 171 81 c 0
 171 146 l 0
EndSplineSet
EndChar

StartChar: e
Encoding: 101 101 106
Width: 270
Flags: W
HStem: -72 84<21.501 67.6033> 348 20G<201 217.5>
VStem: 68 31<-440.735 -71.5607 35.4841 341.974> 192 31<-340.996 -33.8623 72.5636 367.974>
LayerCount: 2
Fore
SplineSet
99 -146 m 0
 99 -192 101 -370 102 -422 c 0
 102 -442 115 -445 131 -437 c 0
 143 -430 153 -424 160 -424 c 0
 162 -424 166 -426 166 -430 c 0
 166 -440 156 -449 122 -508 c 0
 94 -557 92 -578 82 -578 c 0
 68 -578 72 -558 42 -508 c 0
 10 -454 0 -442 0 -430 c 0
 0 -424 6 -424 8 -424 c 0
 17 -424 26 -430 38 -437 c 0
 53 -446 64 -444 65 -419 c 0
 68 -368 68 -199 68 -152 c 0
 68 -92 l 0
 68 -72 63 -67 45 -72 c 0
 26 -77 21 -72 21 -54 c 0
 21 -21 l 0
 21 3 25 4 45 12 c 0
 63 20 68 17 68 44 c 0
 68 120 l 0
 68 188 64 300 64 329 c 0
 64 338 69 342 85 342 c 0
 102 342 103 336 103 327 c 0
 103 298 99 196 99 126 c 0
 99 57 l 0
 99 40 103 30 122 36 c 0
 166 49 l 0
 189 56 192 64 192 85 c 0
 192 149 l 0
 192 217 188 326 188 355 c 0
 188 364 193 368 209 368 c 0
 226 368 227 362 227 353 c 0
 227 324 223 225 223 155 c 0
 223 94 l 0
 223 74 226 68 246 73 c 0
 266 78 270 76 270 56 c 0
 270 19 l 0
 270 -2 267 -4 249 -10 c 0
 227 -18 223 -23 223 -46 c 0
 223 -106 l 0
 223 -178 227 -302 227 -328 c 0
 227 -337 224 -341 208 -341 c 0
 191 -341 188 -335 188 -326 c 0
 188 -301 192 -178 192 -122 c 0
 192 -55 l 0
 192 -36 190 -28 166 -35 c 0
 119 -50 l 0
 102 -55 99 -58 99 -81 c 0
 99 -146 l 0
EndSplineSet
EndChar

StartChar: f
Encoding: 102 102 107
Width: 270
Flags: W
HStem: -233 76<0.587677 46.4772> -69 75<0.210938 46.3876> 157 76<202.523 248.412> 424 21G<109 113.5 257.5 263> 558 20G<183 195>
VStem: 47 32<-366.996 -232.719 -133.398 -68.5663 30.2479 96.2372 195.804 340.983> 170 32<-340.983 -195.804 -96.2372 -31.1484 67.6458 133.398 232.719 440.463>
LayerCount: 2
Fore
SplineSet
202 248 m 0
 202 227 211 230 225 233 c 0
 246 237 249 231 249 215 c 0
 249 190 l 0
 249 166 244 163 225 157 c 0
 206 151 202 144 202 126 c 0
 202 85 l 0
 202 67 208 64 225 68 c 0
 244 73 249 68 249 50 c 0
 249 25 l 0
 249 1 245 0 225 -8 c 0
 207 -16 202 -18 202 -39 c 0
 202 -77 l 0
 202 -94 208 -99 225 -96 c 0
 246 -92 249 -93 249 -113 c 0
 249 -142 l 0
 249 -163 246 -165 228 -171 c 0
 206 -179 202 -182 202 -202 c 0
 202 -253 206 -309 206 -328 c 0
 206 -337 203 -341 187 -341 c 0
 170 -341 167 -335 167 -326 c 0
 167 -307 170 -255 170 -212 c 0
 170 -194 160 -192 140 -198 c 0
 105 -208 l 0
 82 -215 79 -218 79 -240 c 0
 79 -284 82 -337 82 -354 c 0
 82 -363 79 -367 63 -367 c 0
 46 -367 43 -361 43 -352 c 0
 43 -334 47 -287 47 -248 c 0
 47 -227 38 -230 24 -233 c 0
 3 -237 0 -231 0 -215 c 0
 0 -190 l 0
 0 -166 5 -163 24 -157 c 0
 43 -151 47 -144 47 -126 c 0
 47 -85 l 0
 47 -71 43 -64 24 -69 c 0
 4 -74 0 -72 0 -52 c 0
 0 -23 l 0
 0 -2 3 0 21 6 c 0
 43 14 47 17 47 39 c 0
 47 77 l 0
 47 94 41 99 24 96 c 0
 3 92 0 93 0 113 c 0
 0 142 l 0
 0 163 3 165 21 171 c 0
 43 179 47 182 47 202 c 0
 47 253 43 309 43 328 c 0
 43 337 46 341 62 341 c 0
 79 341 82 335 82 326 c 0
 82 307 79 255 79 212 c 0
 79 194 89 192 109 198 c 0
 144 208 l 0
 167 215 170 218 170 240 c 0
 170 286 169 371 168 422 c 0
 167 442 155 445 139 437 c 0
 127 430 117 424 110 424 c 0
 108 424 104 426 104 430 c 0
 104 440 114 449 148 508 c 0
 176 557 178 578 188 578 c 0
 202 578 198 558 228 508 c 0
 260 454 270 442 270 430 c 0
 270 424 264 424 262 424 c 0
 253 424 244 430 232 437 c 0
 217 446 206 444 205 419 c 0
 204 372 202 296 202 248 c 0
78 -118 m 0
 78 -133 85 -138 106 -132 c 0
 143 -121 l 0
 166 -114 171 -116 171 -85 c 0
 171 -51 l 0
 171 -29 161 -27 142 -33 c 0
 106 -44 l 0
 84 -51 78 -59 78 -80 c 0
 78 -118 l 0
103 31 m 0
 148 45 l 0
 167 51 171 57 171 76 c 0
 171 118 l 0
 171 133 164 138 143 132 c 0
 106 121 l 0
 83 114 78 116 78 85 c 0
 78 49 l 0
 78 33 84 25 103 31 c 0
EndSplineSet
EndChar

StartChar: g
Encoding: 103 103 108
Width: 270
Flags: W
HStem: -233 76<21.5877 67.4772> -6 75<223.612 269.789> 157 76<223.523 269.412> 347 20G<199 215.5>
VStem: 68 32<-440.463 -232.719 -133.398 -66.5979 31.1484 96.2372 195.804 340.983> 191 32<-340.983 -195.804 -96.2372 -30.2479 68.5663 133.398 232.719 366.996>
LayerCount: 2
Fore
SplineSet
68 -248 m 0
 68 -227 59 -230 45 -233 c 0
 24 -237 21 -231 21 -215 c 0
 21 -190 l 0
 21 -166 26 -163 45 -157 c 0
 64 -151 68 -144 68 -126 c 0
 68 -85 l 0
 68 -67 62 -64 45 -68 c 0
 26 -73 21 -68 21 -50 c 0
 21 -25 l 0
 21 -1 25 0 45 8 c 0
 63 16 68 18 68 39 c 0
 68 77 l 0
 68 94 62 99 45 96 c 0
 24 92 21 93 21 113 c 0
 21 142 l 0
 21 163 24 165 42 171 c 0
 64 179 68 182 68 202 c 0
 68 253 64 309 64 328 c 0
 64 337 67 341 83 341 c 0
 100 341 103 335 103 326 c 0
 103 307 100 255 100 212 c 0
 100 194 110 192 130 198 c 0
 165 208 l 0
 188 215 191 218 191 240 c 0
 191 284 188 337 188 354 c 0
 188 363 191 367 207 367 c 0
 224 367 227 361 227 352 c 0
 227 334 223 287 223 248 c 0
 223 227 232 230 246 233 c 0
 267 237 270 231 270 215 c 0
 270 190 l 0
 270 166 265 163 246 157 c 0
 227 151 223 144 223 126 c 0
 223 85 l 0
 223 71 227 64 246 69 c 0
 266 74 270 72 270 52 c 0
 270 23 l 0
 270 2 267 0 249 -6 c 0
 227 -14 223 -17 223 -39 c 0
 223 -77 l 0
 223 -94 229 -99 246 -96 c 0
 267 -92 270 -93 270 -113 c 0
 270 -142 l 0
 270 -163 267 -165 249 -171 c 0
 227 -179 223 -182 223 -202 c 0
 223 -253 227 -309 227 -328 c 0
 227 -337 224 -341 208 -341 c 0
 191 -341 188 -335 188 -326 c 0
 188 -307 191 -255 191 -212 c 0
 191 -194 181 -192 161 -198 c 0
 126 -208 l 0
 103 -215 100 -218 100 -240 c 0
 100 -286 101 -371 102 -422 c 0
 103 -442 115 -445 131 -437 c 0
 143 -430 153 -424 160 -424 c 0
 162 -424 166 -426 166 -430 c 0
 166 -440 156 -449 122 -508 c 0
 94 -557 92 -578 82 -578 c 0
 68 -578 72 -558 42 -508 c 0
 10 -454 0 -442 0 -430 c 0
 0 -424 6 -424 8 -424 c 0
 17 -424 26 -430 38 -437 c 0
 53 -446 64 -444 65 -419 c 0
 66 -372 68 -296 68 -248 c 0
192 118 m 0
 192 133 185 138 164 132 c 0
 127 121 l 0
 104 114 99 116 99 85 c 0
 99 51 l 0
 99 29 109 27 128 33 c 0
 164 44 l 0
 186 51 192 59 192 80 c 0
 192 118 l 0
167 -31 m 0
 122 -45 l 0
 103 -51 99 -57 99 -76 c 0
 99 -118 l 0
 99 -133 106 -138 127 -132 c 0
 164 -121 l 0
 187 -114 192 -116 192 -85 c 0
 192 -49 l 0
 192 -33 186 -25 167 -31 c 0
EndSplineSet
EndChar

StartChar: h
Encoding: 104 104 109
Width: 325
Flags: W
HStem: -76 77<0.210938 46.3141> 348 20G<256 272.5>
VStem: 47 31<-367.974 -75.6372 22.136 341.996> 147 31<-354.974 -49.4339 48.7985 354.996> 247 31<-341.996 -22.5819 75.646 367.974>
LayerCount: 2
Fore
SplineSet
178 -150 m 0
 178 -218 182 -313 182 -342 c 0
 182 -351 177 -355 161 -355 c 0
 144 -355 143 -349 143 -340 c 0
 143 -311 147 -226 147 -156 c 0
 147 -72 l 0
 147 -50 141 -45 119 -51 c 0
 102 -55 l 0
 85 -60 78 -66 78 -86 c 0
 78 -163 l 0
 78 -231 82 -326 82 -355 c 0
 82 -364 77 -368 61 -368 c 0
 44 -368 43 -362 43 -353 c 0
 43 -324 47 -239 47 -169 c 0
 47 -92 l 0
 47 -72 42 -72 24 -76 c 0
 4 -81 0 -79 0 -59 c 0
 0 -28 l 0
 0 -7 3 -4 21 1 c 0
 41 7 47 11 47 34 c 0
 47 125 l 0
 47 198 43 303 43 329 c 0
 43 338 46 342 62 342 c 0
 79 342 82 336 82 327 c 0
 82 302 78 197 78 141 c 0
 78 39 l 0
 78 19 86 18 103 23 c 0
 116 26 l 0
 142 33 147 38 147 67 c 0
 147 146 l 0
 147 219 143 316 143 342 c 0
 143 351 146 355 162 355 c 0
 179 355 182 349 182 340 c 0
 182 315 178 210 178 154 c 0
 178 72 l 0
 178 49 181 44 205 50 c 0
 218 54 l 0
 241 60 247 62 247 93 c 0
 247 163 l 0
 247 231 243 326 243 355 c 0
 243 364 248 368 264 368 c 0
 281 368 282 362 282 353 c 0
 282 324 278 239 278 169 c 0
 278 100 l 0
 278 75 283 72 301 76 c 0
 320 80 325 74 325 58 c 0
 325 31 l 0
 325 7 322 4 301 -2 c 0
 281 -8 278 -14 278 -35 c 0
 278 -125 l 0
 278 -198 282 -303 282 -329 c 0
 282 -338 279 -342 263 -342 c 0
 246 -342 243 -336 243 -327 c 0
 243 -302 247 -197 247 -141 c 0
 247 -43 l 0
 247 -22 241 -18 220 -24 c 0
 203 -28 l 0
 181 -34 178 -41 178 -68 c 0
 178 -150 l 0
EndSplineSet
EndChar

StartChar: i
Encoding: 105 105 110
Width: 325
Flags: W
HStem: -119 77<278.686 324.789> 42 77<0.210938 46.3141> 348 20G<256 272.5>
VStem: 47 31<-367.974 -193.646 -95.4181 42.3628 140.136 341.996> 147 31<-354.996 -166.799 -68.5661 68.5661 166.799 354.996> 247 31<-341.996 -140.136 -42.3628 95.4181 193.646 367.974>
LayerCount: 2
Fore
SplineSet
247 75 m 0
 247 96 241 100 220 94 c 0
 203 90 l 0
 181 84 178 77 178 50 c 0
 178 -46 l 0
 178 -68 184 -73 206 -67 c 0
 223 -63 l 0
 240 -58 247 -52 247 -32 c 0
 247 75 l 0
47 26 m 0
 47 46 42 46 24 42 c 0
 4 37 0 39 0 59 c 0
 0 90 l 0
 0 111 3 114 21 119 c 0
 41 125 47 129 47 152 c 0
 47 217.649 43 302.7 43 329 c 0
 43 338 46 342 62 342 c 0
 79 342 82 336 82 327 c 0
 82 299.126 78 208.309 78 157 c 0
 78 137 86 136 103 141 c 0
 116 144 l 0
 142 151 147 156 147 185 c 0
 147 240.057 143 315.585 143 342 c 0
 143 351 146 355 162 355 c 0
 179 355 182 349 182 340 c 0
 182 310.847 178 233.398 178 190 c 0
 178 167 181 162 205 168 c 0
 218 172 l 0
 241 178 247 180 247 211 c 0
 247 250.171 243 324.548 243 355 c 0
 243 364 248 368 264 368 c 0
 281 368 282 362 282 353 c 0
 282 322.844 278 253.488 278 218 c 0
 278 193 283 190 301 194 c 0
 320 198 325 192 325 176 c 0
 325 149 l 0
 325 125 322 122 301 116 c 0
 281 110 278 104 278 83 c 0
 278 -26 l 0
 278 -46 283 -46 301 -42 c 0
 321 -37 325 -39 325 -59 c 0
 325 -90 l 0
 325 -111 322 -114 304 -119 c 0
 284 -125 278 -129 278 -152 c 0
 278 -217.649 282 -302.7 282 -329 c 0
 282 -338 279 -342 263 -342 c 0
 246 -342 243 -336 243 -327 c 0
 243 -299.126 247 -208.31 247 -157 c 0
 247 -137 239 -136 222 -141 c 0
 209 -144 l 0
 183 -151 178 -156 178 -185 c 0
 178 -240.057 182 -315.585 182 -342 c 0
 182 -351 179 -355 163 -355 c 0
 146 -355 143 -349 143 -340 c 0
 143 -310.847 147 -233.397 147 -190 c 0
 147 -167 144 -162 120 -168 c 0
 107 -172 l 0
 84 -178 78 -180 78 -211 c 0
 78 -250.171 82 -324.548 82 -355 c 0
 82 -364 77 -368 61 -368 c 0
 44 -368 43 -362 43 -353 c 0
 43 -322.844 47 -253.488 47 -218 c 0
 47 -193 42 -190 24 -194 c 0
 5 -198 0 -192 0 -176 c 0
 0 -149 l 0
 0 -125 3 -122 24 -116 c 0
 44 -110 47 -104 47 -83 c 0
 47 26 l 0
147 46 m 0
 147 68 141 73 119 67 c 0
 102 63 l 0
 85 58 78 52 78 32 c 0
 78 -75 l 0
 78 -96 84 -100 105 -94 c 0
 122 -90 l 0
 144 -84 147 -77 147 -50 c 0
 147 46 l 0
EndSplineSet
EndChar

StartChar: j
Encoding: 106 106 111
Width: 325
Flags: W
HStem: -162 71<279.365 324.789> -73 71<0.210938 46.3141> 91 71<0.210938 45.6355> 348 20G<256 272.5>
VStem: 47 31<-367.974 -236.56 -144.418 -72.6372 19.136 91.3628 183.308 341.996> 147 31<-354.996 -210.269 -117.566 -46.4339 45.7985 117.566 210.269 354.996> 247 31<-341.996 -183.308 -91.3628 -19.5819 72.646 144.418 236.56 367.974>
LayerCount: 2
Fore
SplineSet
178 -95 m 0
 178 -117 184 -122 206 -116 c 0
 223 -112 l 0
 240 -107 247 -101 247 -81 c 0
 247 -40 l 0
 247 -19 241 -15 220 -21 c 0
 203 -25 l 0
 181 -31 178 -38 178 -65 c 0
 178 -95 l 0
78 -124 m 0
 78 -145 84 -149 105 -143 c 0
 122 -139 l 0
 144 -133 147 -126 147 -99 c 0
 147 -69 l 0
 147 -47 141 -42 119 -48 c 0
 102 -52 l 0
 85 -57 78 -63 78 -83 c 0
 78 -124 l 0
147 95 m 0
 147 117 141 122 119 116 c 0
 102 112 l 0
 85 107 78 101 78 81 c 0
 78 36 l 0
 78 16 86 15 103 20 c 0
 116 23 l 0
 142 30 147 35 147 64 c 0
 147 95 l 0
247 124 m 0
 247 145 241 149 220 143 c 0
 203 139 l 0
 181 133 178 126 178 99 c 0
 178 69 l 0
 178 46 181 41 205 47 c 0
 218 51 l 0
 241 57 247 59 247 90 c 0
 247 124 l 0
47 -89 m 0
 47 -69 42 -69 24 -73 c 0
 4 -78 0 -76 0 -56 c 0
 0 -31 l 0
 0 -10 3 -7 21 -2 c 0
 41 4 47 8 47 31 c 0
 47 75 l 0
 47 95 42 95 24 91 c 0
 4 86 0 88 0 108 c 0
 0 133 l 0
 0 154 3 157 21 162 c 0
 41 168 47 179 47 195 c 0
 47 247 43 303 43 329 c 0
 43 338 46 342 62 342 c 0
 79 342 82 336 82 327 c 0
 82 302 78 250 78 200 c 0
 78 189 86 179 103 184 c 0
 116 187 l 0
 142 194 147 209 147 229 c 0
 147 273 143 316 143 342 c 0
 143 351 146 355 162 355 c 0
 179 355 182 349 182 340 c 0
 182 315 178 277 178 237 c 0
 178 222 181 205 205 211 c 0
 218 215 l 0
 241 221 247 236 247 256 c 0
 247 294 243 326 243 355 c 0
 243 364 248 368 264 368 c 0
 281 368 282 362 282 353 c 0
 282 324 278 297 278 262 c 0
 278 248 283 233 301 237 c 0
 320 241 325 235 325 219 c 0
 325 198 l 0
 325 174 322 171 301 165 c 0
 281 159 278 153 278 132 c 0
 278 97 l 0
 278 72 283 69 301 73 c 0
 320 77 325 71 325 55 c 0
 325 34 l 0
 325 10 322 7 301 1 c 0
 281 -5 278 -11 278 -32 c 0
 278 -75 l 0
 278 -95 283 -95 301 -91 c 0
 321 -86 325 -88 325 -108 c 0
 325 -133 l 0
 325 -154 322 -157 304 -162 c 0
 284 -168 278 -179 278 -195 c 0
 278 -247 282 -303 282 -329 c 0
 282 -338 279 -342 263 -342 c 0
 246 -342 243 -336 243 -327 c 0
 243 -302 247 -250 247 -200 c 0
 247 -189 239 -179 222 -184 c 0
 209 -187 l 0
 183 -194 178 -209 178 -229 c 0
 178 -273 182 -316 182 -342 c 0
 182 -351 179 -355 163 -355 c 0
 146 -355 143 -349 143 -340 c 0
 143 -315 147 -277 147 -237 c 0
 147 -222 144 -205 120 -211 c 0
 107 -215 l 0
 84 -221 78 -236 78 -256 c 0
 78 -294 82 -326 82 -355 c 0
 82 -364 77 -368 61 -368 c 0
 44 -368 43 -362 43 -353 c 0
 43 -324 47 -297 47 -262 c 0
 47 -248 42 -233 24 -237 c 0
 5 -241 0 -235 0 -219 c 0
 0 -198 l 0
 0 -174 3 -171 24 -165 c 0
 44 -159 47 -153 47 -132 c 0
 47 -89 l 0
EndSplineSet
EndChar

StartChar: k
Encoding: 107 107 112
Width: 346
Flags: W
HStem: -76 77<0.210938 46.3141> 424 21G<185 189.5 333.5 339> 558 20G<259 271>
VStem: 47 31<-367.974 -75.6372 22.136 341.996> 147 31<-354.974 -49.4339 48.7985 354.996> 247 31<-341.996 -22.5819 75.646 440.735>
LayerCount: 2
Fore
SplineSet
247 146 m 0
 247 192 245 370 244 422 c 0
 244 442 231 445 215 437 c 0
 203 430 193 424 186 424 c 0
 184 424 180 426 180 430 c 0
 180 440 190 449 224 508 c 0
 252 557 254 578 264 578 c 0
 278 578 274 558 304 508 c 0
 336 454 346 442 346 430 c 0
 346 424 340 424 338 424 c 0
 329 424 320 430 308 437 c 0
 293 446 282 444 281 419 c 0
 278 368 278 199 278 152 c 0
 278 100 l 0
 278 75 283 72 301 76 c 0
 320 80 325 74 325 58 c 0
 325 31 l 0
 325 7 322 4 301 -2 c 0
 281 -8 278 -14 278 -35 c 0
 278 -125 l 0
 278 -198 282 -303 282 -329 c 0
 282 -338 279 -342 263 -342 c 0
 246 -342 243 -336 243 -327 c 0
 243 -302 247 -197 247 -141 c 0
 247 -43 l 0
 247 -22 241 -18 220 -24 c 0
 203 -28 l 0
 181 -34 178 -41 178 -68 c 0
 178 -150 l 0
 178 -218 182 -313 182 -342 c 0
 182 -351 177 -355 161 -355 c 0
 144 -355 143 -349 143 -340 c 0
 143 -311 147 -226 147 -156 c 0
 147 -72 l 0
 147 -50 141 -45 119 -51 c 0
 102 -55 l 0
 85 -60 78 -66 78 -86 c 0
 78 -163 l 0
 78 -231 82 -326 82 -355 c 0
 82 -364 77 -368 61 -368 c 0
 44 -368 43 -362 43 -353 c 0
 43 -324 47 -239 47 -169 c 0
 47 -92 l 0
 47 -72 42 -72 24 -76 c 0
 4 -81 0 -79 0 -59 c 0
 0 -28 l 0
 0 -7 3 -4 21 1 c 0
 41 7 47 11 47 34 c 0
 47 125 l 0
 47 198 43 303 43 329 c 0
 43 338 46 342 62 342 c 0
 79 342 82 336 82 327 c 0
 82 302 78 197 78 141 c 0
 78 39 l 0
 78 19 86 18 103 23 c 0
 116 26 l 0
 142 33 147 38 147 67 c 0
 147 146 l 0
 147 219 143 316 143 342 c 0
 143 351 146 355 162 355 c 0
 179 355 182 349 182 340 c 0
 182 315 178 210 178 154 c 0
 178 72 l 0
 178 49 181 44 205 50 c 0
 218 54 l 0
 241 60 247 62 247 93 c 0
 247 146 l 0
EndSplineSet
EndChar

StartChar: l
Encoding: 108 108 113
Width: 346
Flags: W
HStem: -1 77<299.686 345.789> 348 20G<277 293.5>
VStem: 68 31<-440.735 -75.646 22.5819 341.996> 168 31<-354.996 -48.7985 49.4339 354.974> 268 31<-341.996 -22.136 75.6372 367.974>
LayerCount: 2
Fore
SplineSet
99 -146 m 0
 99 -192 101 -370 102 -422 c 0
 102 -442 115 -445 131 -437 c 0
 143 -430 153 -424 160 -424 c 0
 162 -424 166 -426 166 -430 c 0
 166 -440 156 -449 122 -508 c 0
 94 -557 92 -578 82 -578 c 0
 68 -578 72 -558 42 -508 c 0
 10 -454 0 -442 0 -430 c 0
 0 -424 6 -424 8 -424 c 0
 17 -424 26 -430 38 -437 c 0
 53 -446 64 -444 65 -419 c 0
 68 -368 68 -199 68 -152 c 0
 68 -100 l 0
 68 -75 63 -72 45 -76 c 0
 26 -80 21 -74 21 -58 c 0
 21 -31 l 0
 21 -7 24 -4 45 2 c 0
 65 8 68 14 68 35 c 0
 68 125 l 0
 68 198 64 303 64 329 c 0
 64 338 67 342 83 342 c 0
 100 342 103 336 103 327 c 0
 103 302 99 197 99 141 c 0
 99 43 l 0
 99 22 105 18 126 24 c 0
 143 28 l 0
 165 34 168 41 168 68 c 0
 168 150 l 0
 168 218 164 313 164 342 c 0
 164 351 169 355 185 355 c 0
 202 355 203 349 203 340 c 0
 203 311 199 226 199 156 c 0
 199 72 l 0
 199 50 205 45 227 51 c 0
 244 55 l 0
 261 60 268 66 268 86 c 0
 268 163 l 0
 268 231 264 326 264 355 c 0
 264 364 269 368 285 368 c 0
 302 368 303 362 303 353 c 0
 303 324 299 239 299 169 c 0
 299 92 l 0
 299 72 304 72 322 76 c 0
 342 81 346 79 346 59 c 0
 346 28 l 0
 346 7 343 4 325 -1 c 0
 305 -7 299 -11 299 -34 c 0
 299 -125 l 0
 299 -198 303 -303 303 -329 c 0
 303 -338 300 -342 284 -342 c 0
 267 -342 264 -336 264 -327 c 0
 264 -302 268 -197 268 -141 c 0
 268 -39 l 0
 268 -19 260 -18 243 -23 c 0
 230 -26 l 0
 204 -33 199 -38 199 -67 c 0
 199 -146 l 0
 199 -219 203 -316 203 -342 c 0
 203 -351 200 -355 184 -355 c 0
 167 -355 164 -349 164 -340 c 0
 164 -315 168 -210 168 -154 c 0
 168 -72 l 0
 168 -49 165 -44 141 -50 c 0
 128 -54 l 0
 105 -60 99 -62 99 -93 c 0
 99 -146 l 0
EndSplineSet
EndChar

StartChar: m
Encoding: 109 109 114
Width: 346
Flags: W
HStem: -119 77<278.686 324.789> 42 77<0.210938 46.3141> 424 21G<185 189.5 333.5 339> 558 20G<259 271>
VStem: 47 31<-367.974 -193.646 -95.4181 42.3628 140.136 341.996> 147 31<-354.996 -166.799 -68.5661 68.5661 166.799 354.996> 247 31<-341.996 -140.136 -42.3628 95.4181 193.646 440.735>
LayerCount: 2
Fore
SplineSet
247 211 m 0
 247 257 245 371 244 422 c 0
 244 442 231 445 215 437 c 0
 203 430 193 424 186 424 c 0
 184 424 180 426 180 430 c 0
 180 440 190 449 224 508 c 0
 252 557 254 578 264 578 c 0
 278 578 274 558 304 508 c 0
 336 454 346 442 346 430 c 0
 346 424 340 424 338 424 c 0
 329 424 320 430 308 437 c 0
 293 446 283 444 281 419 c 0
 278 372 278 265 278 218 c 0
 278 193 283 190 301 194 c 0
 320 198 325 192 325 176 c 0
 325 149 l 0
 325 125 322 122 301 116 c 0
 281 110 278 104 278 83 c 0
 278 -26 l 0
 278 -46 283 -46 301 -42 c 0
 321 -37 325 -39 325 -59 c 0
 325 -90 l 0
 325 -111 322 -114 304 -119 c 0
 284 -125 278 -129 278 -152 c 0
 278 -218 282 -303 282 -329 c 0
 282 -338 279 -342 263 -342 c 0
 246 -342 243 -336 243 -327 c 0
 243 -299 247 -208 247 -157 c 0
 247 -137 239 -136 222 -141 c 0
 209 -144 l 0
 183 -151 178 -156 178 -185 c 0
 178 -240 182 -316 182 -342 c 0
 182 -351 179 -355 163 -355 c 0
 146 -355 143 -349 143 -340 c 0
 143 -311 147 -233 147 -190 c 0
 147 -167 144 -162 120 -168 c 0
 107 -172 l 0
 84 -178 78 -180 78 -211 c 0
 78 -250 82 -325 82 -355 c 0
 82 -364 77 -368 61 -368 c 0
 44 -368 43 -362 43 -353 c 0
 43 -323 47 -253 47 -218 c 0
 47 -193 42 -190 24 -194 c 0
 5 -198 0 -192 0 -176 c 0
 0 -149 l 0
 0 -125 3 -122 24 -116 c 0
 44 -110 47 -104 47 -83 c 0
 47 26 l 0
 47 46 42 46 24 42 c 0
 4 37 0 39 0 59 c 0
 0 90 l 0
 0 111 3 114 21 119 c 0
 41 125 47 129 47 152 c 0
 47 218 43 303 43 329 c 0
 43 338 46 342 62 342 c 0
 79 342 82 336 82 327 c 0
 82 299 78 208 78 157 c 0
 78 137 86 136 103 141 c 0
 116 144 l 0
 142 151 147 156 147 185 c 0
 147 240 143 316 143 342 c 0
 143 351 146 355 162 355 c 0
 179 355 182 349 182 340 c 0
 182 311 178 233 178 190 c 0
 178 167 181 162 205 168 c 0
 218 172 l 0
 241 178 247 180 247 211 c 0
247 75 m 0
 247 96 241 100 220 94 c 0
 203 90 l 0
 181 84 178 77 178 50 c 0
 178 -46 l 0
 178 -68 184 -73 206 -67 c 0
 223 -63 l 0
 240 -58 247 -52 247 -32 c 0
 247 75 l 0
147 46 m 0
 147 68 141 73 119 67 c 0
 102 63 l 0
 85 58 78 52 78 32 c 0
 78 -75 l 0
 78 -96 84 -100 105 -94 c 0
 122 -90 l 0
 144 -84 147 -77 147 -50 c 0
 147 46 l 0
EndSplineSet
EndChar

StartChar: n
Encoding: 110 110 115
Width: 346
Flags: W
HStem: -119 77<299.686 345.789> 42 77<21.2109 67.3141> 348 20G<277 293.5>
VStem: 68 31<-440.735 -193.646 -95.4181 42.3628 140.136 341.996> 168 31<-354.996 -166.799 -68.5661 68.5661 166.799 354.996> 268 31<-341.996 -140.136 -42.3628 95.4181 193.646 367.974>
LayerCount: 2
Fore
SplineSet
99 -211 m 0
 99 -257 101 -371 102 -422 c 0
 102 -442 115 -445 131 -437 c 0
 143 -430 153 -424 160 -424 c 0
 162 -424 166 -426 166 -430 c 0
 166 -440 156 -449 122 -508 c 0
 94 -557 92 -578 82 -578 c 0
 68 -578 72 -558 42 -508 c 0
 10 -454 0 -442 0 -430 c 0
 0 -424 6 -424 8 -424 c 0
 17 -424 26 -430 38 -437 c 0
 53 -446 63 -444 65 -419 c 0
 68 -372 68 -265 68 -218 c 0
 68 -193 63 -190 45 -194 c 0
 26 -198 21 -192 21 -176 c 0
 21 -149 l 0
 21 -125 24 -122 45 -116 c 0
 65 -110 68 -104 68 -83 c 0
 68 26 l 0
 68 46 63 46 45 42 c 0
 25 37 21 39 21 59 c 0
 21 90 l 0
 21 111 24 114 42 119 c 0
 62 125 68 129 68 152 c 0
 68 218 64 303 64 329 c 0
 64 338 67 342 83 342 c 0
 100 342 103 336 103 327 c 0
 103 299 99 208 99 157 c 0
 99 137 107 136 124 141 c 0
 137 144 l 0
 163 151 168 156 168 185 c 0
 168 240 164 316 164 342 c 0
 164 351 167 355 183 355 c 0
 200 355 203 349 203 340 c 0
 203 311 199 233 199 190 c 0
 199 167 202 162 226 168 c 0
 239 172 l 0
 262 178 268 180 268 211 c 0
 268 250 264 325 264 355 c 0
 264 364 269 368 285 368 c 0
 302 368 303 362 303 353 c 0
 303 323 299 253 299 218 c 0
 299 193 304 190 322 194 c 0
 341 198 346 192 346 176 c 0
 346 149 l 0
 346 125 343 122 322 116 c 0
 302 110 299 104 299 83 c 0
 299 -26 l 0
 299 -46 304 -46 322 -42 c 0
 342 -37 346 -39 346 -59 c 0
 346 -90 l 0
 346 -111 343 -114 325 -119 c 0
 305 -125 299 -129 299 -152 c 0
 299 -218 303 -303 303 -329 c 0
 303 -338 300 -342 284 -342 c 0
 267 -342 264 -336 264 -327 c 0
 264 -299 268 -208 268 -157 c 0
 268 -137 260 -136 243 -141 c 0
 230 -144 l 0
 204 -151 199 -156 199 -185 c 0
 199 -240 203 -316 203 -342 c 0
 203 -351 200 -355 184 -355 c 0
 167 -355 164 -349 164 -340 c 0
 164 -311 168 -233 168 -190 c 0
 168 -167 165 -162 141 -168 c 0
 128 -172 l 0
 105 -178 99 -180 99 -211 c 0
99 -75 m 0
 99 -96 105 -100 126 -94 c 0
 143 -90 l 0
 165 -84 168 -77 168 -50 c 0
 168 46 l 0
 168 68 162 73 140 67 c 0
 123 63 l 0
 106 58 99 52 99 32 c 0
 99 -75 l 0
199 -46 m 0
 199 -68 205 -73 227 -67 c 0
 244 -63 l 0
 261 -58 268 -52 268 -32 c 0
 268 75 l 0
 268 96 262 100 241 94 c 0
 224 90 l 0
 202 84 199 77 199 50 c 0
 199 -46 l 0
EndSplineSet
EndChar

StartChar: o
Encoding: 111 111 116
Width: 346
Flags: W
HStem: -162 71<279.365 324.789> -73 71<0.210938 46.3141> 91 71<0.210938 45.6355> 424 21G<185 189.5 333.5 339> 558 20G<259 271>
VStem: 47 31<-367.974 -236.56 -144.418 -72.6372 19.136 91.3628 183.224 341.996> 147 31<-354.996 -210.269 -117.566 -46.4339 45.7985 117.566 210.269 354.996> 247 31<-341.996 -183.224 -91.3628 -19.5819 72.646 144.418 237.003 440.735>
LayerCount: 2
Fore
SplineSet
278 264 m 0
 278 249 283 233 301 237 c 0
 320 241 325 235 325 219 c 0
 325 198 l 0
 325 174 322 171 301 165 c 0
 281 159 278 153 278 132 c 0
 278 97 l 0
 278 72 283 69 301 73 c 0
 320 77 325 71 325 55 c 0
 325 34 l 0
 325 10 322 7 301 1 c 0
 281 -5 278 -11 278 -32 c 0
 278 -75 l 0
 278 -95 283 -95 301 -91 c 0
 321 -86 325 -88 325 -108 c 0
 325 -133 l 0
 325 -154 322 -157 304 -162 c 0
 284 -168 278 -179 278 -195 c 0
 278 -247 282 -303 282 -329 c 0
 282 -338 279 -342 263 -342 c 0
 246 -342 243 -336 243 -327 c 0
 243 -302 247 -250 247 -200 c 0
 247 -188 239 -179 222 -184 c 0
 209 -187 l 0
 183 -194 178 -209 178 -229 c 0
 178 -273 182 -316 182 -342 c 0
 182 -351 179 -355 163 -355 c 0
 146 -355 143 -349 143 -340 c 0
 143 -315 147 -277 147 -237 c 0
 147 -222 144 -205 120 -211 c 0
 107 -215 l 0
 84 -221 78 -236 78 -256 c 0
 78 -295 82 -326 82 -355 c 0
 82 -364 77 -368 61 -368 c 0
 44 -368 43 -362 43 -353 c 0
 43 -324 47 -298 47 -262 c 0
 47 -249 42 -233 24 -237 c 0
 5 -241 0 -235 0 -219 c 0
 0 -198 l 0
 0 -174 3 -171 24 -165 c 0
 44 -159 47 -153 47 -132 c 0
 47 -89 l 0
 47 -69 42 -69 24 -73 c 0
 4 -78 0 -76 0 -56 c 0
 0 -31 l 0
 0 -10 3 -7 21 -2 c 0
 41 4 47 8 47 31 c 0
 47 75 l 0
 47 95 42 95 24 91 c 0
 4 86 0 88 0 108 c 0
 0 133 l 0
 0 154 3 157 21 162 c 0
 41 168 47 179 47 195 c 0
 47 247 43 303 43 329 c 0
 43 338 46 342 62 342 c 0
 79 342 82 336 82 327 c 0
 82 302 78 250 78 200 c 0
 78 188 86 179 103 184 c 0
 116 187 l 0
 142 194 147 209 147 229 c 0
 147 273 143 316 143 342 c 0
 143 351 146 355 162 355 c 0
 179 355 182 349 182 340 c 0
 182 315 178 277 178 237 c 0
 178 222 181 205 205 211 c 0
 218 215 l 0
 241 221 247 237 247 256 c 0
 247 302 246 370 244 422 c 0
 243 442 231 445 215 437 c 0
 203 430 193 424 186 424 c 0
 184 424 180 426 180 430 c 0
 180 440 190 449 224 508 c 0
 252 557 254 578 264 578 c 0
 278 578 274 558 304 508 c 0
 336 454 346 442 346 430 c 0
 346 424 340 424 338 424 c 0
 329 424 320 430 308 437 c 0
 293 446 282 444 281 419 c 0
 280 372 278 312 278 264 c 0
178 -95 m 0
 178 -117 184 -122 206 -116 c 0
 223 -112 l 0
 240 -107 247 -101 247 -81 c 0
 247 -40 l 0
 247 -19 241 -15 220 -21 c 0
 203 -25 l 0
 181 -31 178 -38 178 -65 c 0
 178 -95 l 0
78 -124 m 0
 78 -145 84 -149 105 -143 c 0
 122 -139 l 0
 144 -133 147 -126 147 -99 c 0
 147 -69 l 0
 147 -47 141 -42 119 -48 c 0
 102 -52 l 0
 85 -57 78 -63 78 -83 c 0
 78 -124 l 0
147 95 m 0
 147 117 141 122 119 116 c 0
 102 112 l 0
 85 107 78 101 78 81 c 0
 78 36 l 0
 78 16 86 15 103 20 c 0
 116 23 l 0
 142 30 147 35 147 64 c 0
 147 95 l 0
247 124 m 0
 247 145 241 149 220 143 c 0
 203 139 l 0
 181 133 178 126 178 99 c 0
 178 69 l 0
 178 46 181 41 205 47 c 0
 218 51 l 0
 241 57 247 59 247 90 c 0
 247 124 l 0
EndSplineSet
EndChar

StartChar: p
Encoding: 112 112 117
Width: 346
Flags: W
HStem: -162 71<300.365 345.789> 2 71<299.686 345.789> 91 71<21.2109 66.6355> 348 20G<277 293.5>
VStem: 68 31<-440.735 -237.003 -144.418 -72.646 19.5819 91.3628 183.224 341.996> 168 31<-354.996 -210.269 -117.566 -45.7985 46.4339 117.566 210.269 354.996> 268 31<-341.996 -183.224 -91.3628 -19.136 72.6372 144.418 236.56 367.974>
LayerCount: 2
Fore
SplineSet
68 -264 m 0
 68 -249 63 -233 45 -237 c 0
 26 -241 21 -235 21 -219 c 0
 21 -198 l 0
 21 -174 24 -171 45 -165 c 0
 65 -159 68 -153 68 -132 c 0
 68 -97 l 0
 68 -72 63 -69 45 -73 c 0
 26 -77 21 -71 21 -55 c 0
 21 -34 l 0
 21 -10 24 -7 45 -1 c 0
 65 5 68 11 68 32 c 0
 68 75 l 0
 68 95 63 95 45 91 c 0
 25 86 21 88 21 108 c 0
 21 133 l 0
 21 154 24 157 42 162 c 0
 62 168 68 179 68 195 c 0
 68 247 64 303 64 329 c 0
 64 338 67 342 83 342 c 0
 100 342 103 336 103 327 c 0
 103 302 99 250 99 200 c 0
 99 188 107 179 124 184 c 0
 137 187 l 0
 163 194 168 209 168 229 c 0
 168 273 164 316 164 342 c 0
 164 351 167 355 183 355 c 0
 200 355 203 349 203 340 c 0
 203 315 199 277 199 237 c 0
 199 222 202 205 226 211 c 0
 239 215 l 0
 262 221 268 236 268 256 c 0
 268 295 264 326 264 355 c 0
 264 364 269 368 285 368 c 0
 302 368 303 362 303 353 c 0
 303 324 299 298 299 262 c 0
 299 249 304 233 322 237 c 0
 341 241 346 235 346 219 c 0
 346 198 l 0
 346 174 343 171 322 165 c 0
 302 159 299 153 299 132 c 0
 299 89 l 0
 299 69 304 69 322 73 c 0
 342 78 346 76 346 56 c 0
 346 31 l 0
 346 10 343 7 325 2 c 0
 305 -4 299 -8 299 -31 c 0
 299 -75 l 0
 299 -95 304 -95 322 -91 c 0
 342 -86 346 -88 346 -108 c 0
 346 -133 l 0
 346 -154 343 -157 325 -162 c 0
 305 -168 299 -179 299 -195 c 0
 299 -247 303 -303 303 -329 c 0
 303 -338 300 -342 284 -342 c 0
 267 -342 264 -336 264 -327 c 0
 264 -302 268 -250 268 -200 c 0
 268 -188 260 -179 243 -184 c 0
 230 -187 l 0
 204 -194 199 -209 199 -229 c 0
 199 -273 203 -316 203 -342 c 0
 203 -351 200 -355 184 -355 c 0
 167 -355 164 -349 164 -340 c 0
 164 -315 168 -277 168 -237 c 0
 168 -222 165 -205 141 -211 c 0
 128 -215 l 0
 105 -221 99 -237 99 -256 c 0
 99 -302 100 -370 102 -422 c 0
 103 -442 115 -445 131 -437 c 0
 143 -430 153 -424 160 -424 c 0
 162 -424 166 -426 166 -430 c 0
 166 -440 156 -449 122 -508 c 0
 94 -557 92 -578 82 -578 c 0
 68 -578 72 -558 42 -508 c 0
 10 -454 0 -442 0 -430 c 0
 0 -424 6 -424 8 -424 c 0
 17 -424 26 -430 38 -437 c 0
 53 -446 64 -444 65 -419 c 0
 66 -372 68 -312 68 -264 c 0
168 95 m 0
 168 117 162 122 140 116 c 0
 123 112 l 0
 106 107 99 101 99 81 c 0
 99 40 l 0
 99 19 105 15 126 21 c 0
 143 25 l 0
 165 31 168 38 168 65 c 0
 168 95 l 0
268 124 m 0
 268 145 262 149 241 143 c 0
 224 139 l 0
 202 133 199 126 199 99 c 0
 199 69 l 0
 199 47 205 42 227 48 c 0
 244 52 l 0
 261 57 268 63 268 83 c 0
 268 124 l 0
199 -95 m 0
 199 -117 205 -122 227 -116 c 0
 244 -112 l 0
 261 -107 268 -101 268 -81 c 0
 268 -36 l 0
 268 -16 260 -15 243 -20 c 0
 230 -23 l 0
 204 -30 199 -35 199 -64 c 0
 199 -95 l 0
99 -124 m 0
 99 -145 105 -149 126 -143 c 0
 143 -139 l 0
 165 -133 168 -126 168 -99 c 0
 168 -69 l 0
 168 -46 165 -41 141 -47 c 0
 128 -51 l 0
 105 -57 99 -59 99 -90 c 0
 99 -124 l 0
EndSplineSet
EndChar

StartChar: q
Encoding: 113 113 118
Width: 297
Flags: W
HStem: 358 20G<111.5 129>
VStem: 101 38<-95.0569 69.3267 157.828 223.835 290.699 377.998> 257 40<-378.998 -158.516 -71.239 93.7778>
LayerCount: 2
Fore
SplineSet
263 67 m 0
 263 104 249 98 220 89 c 0
 173 75 l 0
 140 64 134 61 134 16 c 0
 134 -68 l 0
 134 -105 148 -99 177 -90 c 0
 224 -76 l 0
 257 -65 263 -62 263 -17 c 0
 263 67 l 0
169 293 m 0
 226 310 l 0
 240 314 243 311 243 295 c 0
 243 275 242 275 224 269 c 0
 169 252 l 0
 142 244 137 243 137 207 c 0
 137 191 l 0
 138 154 149 153 183 163 c 0
 262 187 l 0
 282 193 295 197 295 172 c 0
 295 131 293 83 293 -1 c 0
 293 -179 297 -334 297 -365 c 0
 297 -378 294 -379 277 -379 c 0
 259 -379 257 -377 257 -361 c 0
 257 -335 260 -293 260 -198 c 0
 260 -153 251 -153 214 -164 c 0
 135 -188 l 0
 116 -194 102 -198 102 -173 c 0
 102 -132 104 -84 104 -1 c 0
 104 70 103 145 103 202 c 0
 102 227 89 228 65 221 c 0
 20 207 l 0
 1 201 0 202 0 224 c 0
 0 241 2 242 16 246 c 0
 64 261 l 0
 91 269 101 274 101 303 c 0
 101 333 100 355 100 364 c 0
 100 377 103 378 120 378 c 0
 138 378 140 376 140 360 c 0
 140 348 139 334 139 312 c 0
 139 287 149 287 169 293 c 0
EndSplineSet
EndChar

StartChar: r
Encoding: 114 114 119
Width: 330
Flags: W
HStem: -165 68<107.5 145.617> 465 20G<114.5 143> 465 20G<114.5 143>
VStem: 100 53.291<169.522 338.715 410.432 484.984> 100 30<-96.9934 86.9454>
LayerCount: 2
Fore
SplineSet
140 79 m 0x88
 133.062 64.9688 130 41 130 15 c 0
 130 -67 l 0
 130 -88 135 -97 144 -97 c 0
 153 -97 166 -89 181 -76 c 0
 227 -38 257 -7 245 65 c 0
 234 129 162.2 123.901 140 79 c 0x88
100 417.667 m 0xb0
 100 468 l 0
 100 485 100 485 129 485 c 0xd0
 157 485 157 485 157 465 c 0
 157 454.708 156.603 440.852 156.603 429.459 c 0
 156.603 408.667 166.521 406.937 188.333 413.593 c 0
 241.002 429.666 l 0
 255.002 433.666 258.002 430.666 258.002 414.666 c 0
 258.002 394.666 257.002 394.666 239.002 388.666 c 0
 187 372.836 l 0
 160.862 364.88 154.285 357.316 153.291 327.333 c 0xb0
 151.608 276.611 150 220.768 150 167 c 0
 150 157 152 146 163 146 c 0
 183 146 208 162 240 162 c 0
 290 162 330 134 330 66 c 0
 330 -15 234 -71 163 -129 c 0
 131 -155 l 0
 124 -161 116 -165 111 -165 c 0
 104 -165 100 -160 100 -146 c 0xa8
 100 313 l 0
 100 332.667 94.8086 344.772 70 337.221 c 0
 20 322 l 0
 0.9355 316.196 0 317 0 339 c 0
 0 356 2.07129 356.749 16 361 c 0
 65 375.954 l 0
 91.7617 384.121 100 388.667 100 417.667 c 0xb0
EndSplineSet
EndChar

StartChar: s
Encoding: 115 115 120
Width: 330
Flags: W
HStem: -165 68<107.5 145.617> 465 20G<114.5 143> 465 20G<114.5 143>
VStem: 0 100<212 234.785 300.5 346> 100 53<167.938 234.579 305.172 338.984 410.578 484.984> 100 30<-96.9934 86.9617>
LayerCount: 2
Fore
SplineSet
100 418 m 0xa8
 100 468 l 0
 100 485 100 485 129 485 c 0xc8
 157 485 157 485 157 465 c 0
 157 429 l 0
 157 409 167 407 188 414 c 0
 241 430 l 0
 255 434 258 431 258 415 c 0
 258 395 257 395 239 389 c 0
 187 373 l 0
 158 364 153 359 153 327 c 0xa8
 153 306 159 300 181 307 c 0
 241 325 l 0
 255 329 258 326 258 310 c 0
 258 290 257 290 239 284 c 0
 178 265 l 0
 161 260 151 252 151 227 c 0
 150 207 150 187 150 167 c 0
 150 157 152 146 163 146 c 0
 183 146 208 162 240 162 c 0
 290 162 330 134 330 66 c 0
 330 -15 234 -71 163 -129 c 0
 131 -155 l 0
 124 -161 116 -165 111 -165 c 0
 104 -165 100 -160 100 -146 c 0xa4
 100 209 l 0xa8
 100 235 91 239 68 232 c 0
 20 217 l 0
 1 212 0 212 0 234 c 0
 0 251 2 252 16 256 c 0
 69 273 l 0
 95 280 100 284 100 313 c 0
 100 336 93 344 70 337 c 0
 20 322 l 0
 1 316 0 317 0 339 c 0xb0
 0 356 2 357 16 361 c 0
 65 376 l 0
 92 384 100 389 100 418 c 0xa8
140 79 m 0
 133 65 130 41 130 15 c 0
 130 -67 l 0x84
 130 -88 135 -97 144 -97 c 0
 153 -97 166 -89 181 -76 c 0
 227 -38 257 -7 245 65 c 0
 234 129 162 124 140 79 c 0
EndSplineSet
EndChar

StartChar: t
Encoding: 116 116 121
Width: 330
Flags: W
HStem: -165 68<107.5 145.617> 465 20G<114.5 143> 465 20G<114.5 143>
VStem: 100 50<244.929 271.974 341.012 367.186 435.913 484.984> 100 30<-96.9934 86.9617>
LayerCount: 2
Fore
SplineSet
140 79 m 0x88
 133 65 130 41 130 15 c 0
 130 -67 l 0
 130 -88 135 -97 144 -97 c 0
 153 -97 166 -89 181 -76 c 0
 227 -38 257 -7 245 65 c 0
 234 129 162 124 140 79 c 0x88
100 250 m 0xb0
 100 256 l 0
 100 270 95 277 75 271 c 0
 20 254 l 0
 1 248 0 249 0 271 c 0
 0 288 2 289 16 293 c 0
 71 310 l 0
 93 317 100 321 100 345 c 0
 100 350 l 0
 100 370 94 372 71 365 c 0
 20 349 l 0
 1 343 0 344 0 366 c 0
 0 383 2 384 16 388 c 0
 74 406 l 0
 96 412 100 418 100 441 c 0
 100 468 l 0
 100 485 100 485 129 485 c 0xd0
 157 485 157 485 157 465 c 0
 157 456 l 0
 157 432 166 433 184 439 c 0
 241 457 l 0
 255 461 258 458 258 442 c 0
 258 422 257 422 239 416 c 0
 179 398 l 0
 156 390 154 385 154 363 c 0
 154 338 160 337 182 344 c 0
 241 362 l 0
 255 366 258 363 258 347 c 0
 258 327 257 327 239 321 c 0
 178 302 l 0
 160 296 152 294 152 274 c 0
 152 242 156 241 176 247 c 0
 241 267 l 0
 255 271 258 268 258 252 c 0
 258 232 257 232 239 226 c 0
 177 207 l 0
 155 200 150 196 150 173 c 0
 150 167 l 0xb0
 150 157 152 146 163 146 c 0
 183 146 208 162 240 162 c 0
 290 162 330 134 330 66 c 0
 330 -15 234 -71 163 -129 c 0
 131 -155 l 0
 124 -161 116 -165 111 -165 c 0
 104 -165 100 -160 100 -146 c 0
 100 155 l 0xa8
 100 177 92 181 72 175 c 0
 20 159 l 0
 1 153 0 154 0 176 c 0
 0 193 2 194 16 198 c 0
 71 215 l 0
 94 222 100 227 100 250 c 0xb0
EndSplineSet
EndChar

StartChar: u
Encoding: 117 117 122
Width: 330
Flags: W
HStem: -165 68<184.383 222.5> 465 20G<187 215.5> 465 20G<187 215.5>
VStem: 173.397 56.603<146.008 338.715 410.959 484.984> 200 30<-96.9934 86.9454>
LayerCount: 2
Fore
SplineSet
190 79 m 0x88
 167.8 123.901 96 129 85 65 c 0
 73 -7 103 -38 149 -76 c 0
 164 -89 177 -97 186 -97 c 0
 195 -97 200 -88 200 -67 c 0
 200 15 l 0
 200 41 196.938 64.9688 190 79 c 0x88
230 417.667 m 0xd0
 230 388.667 238.238 384.121 265 375.954 c 0
 314 361 l 0
 327.929 356.749 330 356 330 339 c 0
 330 317 329.064 316.196 310 322 c 0
 260 337.221 l 0
 235.191 344.772 230 332.667 230 313 c 0xd0
 230 -146 l 0xc8
 230 -160 226 -165 219 -165 c 0
 214 -165 206 -161 199 -155 c 0
 167 -129 l 0
 96 -71 0 -15 0 66 c 0
 0 134 40 162 90 162 c 0
 122 162 147 146 167 146 c 0
 178 146 180 157 180 167 c 0
 180 220.768 178.392 276.611 176.709 327.333 c 0
 175.715 357.316 169.138 364.88 143 372.836 c 0
 90.998 388.666 l 0
 72.998 394.666 71.998 394.666 71.998 414.666 c 0
 71.998 430.666 74.998 433.666 88.998 429.666 c 0
 141.667 413.593 l 0
 163.479 406.938 173.397 408.667 173.397 429.459 c 0
 173.397 440.852 173 454.708 173 465 c 0xb0
 173 485 173 485 201 485 c 0
 230 485 230 485 230 468 c 0
 230 417.667 l 0xd0
EndSplineSet
EndChar

StartChar: v
Encoding: 118 118 123
Width: 330
Flags: W
HStem: -165 68<184.383 222.5> 465 20G<187 215.5> 465 20G<187 215.5>
VStem: 180 50<146.008 234.579 304.679 338.984> 200 30<-96.9934 86.9617> 230 100<212 234.785 300.5 346>
LayerCount: 2
Fore
SplineSet
230 418 m 0xc4
 230 389 238 384 265 376 c 0
 314 361 l 0
 328 357 330 356 330 339 c 0xc4
 330 317 329 316 310 322 c 0
 260 337 l 0
 237 344 230 336 230 313 c 0xd0
 230 284 235 280 261 273 c 0
 314 256 l 0
 328 252 330 251 330 234 c 0xc4
 330 212 329 212 310 217 c 0
 262 232 l 0
 239 239 230 235 230 209 c 0xd0
 230 -146 l 0xc4
 230 -160 226 -165 219 -165 c 0
 214 -165 206 -161 199 -155 c 0
 167 -129 l 0
 96 -71 0 -15 0 66 c 0
 0 134 40 162 90 162 c 0
 122 162 147 146 167 146 c 0
 178 146 180 157 180 167 c 0
 180 187 180 207 179 227 c 0
 179 252 169 260 152 265 c 0
 91 284 l 0
 73 290 72 290 72 310 c 0
 72 326 75 329 89 325 c 0
 149 307 l 0
 171 300 177 306 177 327 c 0
 177 359 172 364 143 373 c 0
 91 389 l 0
 73 395 72 395 72 415 c 0
 72 431 75 434 89 430 c 0
 142 414 l 0
 163 407 173 409 173 429 c 0
 173 465 l 0xb0
 173 485 173 485 201 485 c 0
 230 485 230 485 230 468 c 0
 230 418 l 0xc4
190 79 m 0
 168 124 96 129 85 65 c 0
 73 -7 103 -38 149 -76 c 0
 164 -89 177 -97 186 -97 c 0
 195 -97 200 -88 200 -67 c 0
 200 15 l 0x88
 200 41 197 65 190 79 c 0
EndSplineSet
EndChar

StartChar: w
Encoding: 119 119 124
Width: 330
Flags: W
HStem: -165 68<184.383 222.5> 465 20G<187 215.5> 465 20G<187 215.5>
VStem: 173 57<437.237 484.984> 180 50<146.008 176.599 245.733 271.974 341.012 367.186> 200 30<-96.9934 86.9617>
LayerCount: 2
Fore
SplineSet
190 79 m 0x84
 168 124 96 129 85 65 c 0
 73 -7 103 -38 149 -76 c 0
 164 -89 177 -97 186 -97 c 0
 195 -97 200 -88 200 -67 c 0
 200 15 l 0
 200 41 197 65 190 79 c 0x84
230 250 m 0xc8
 230 227 236 222 259 215 c 0
 314 198 l 0
 328 194 330 193 330 176 c 0
 330 154 329 153 310 159 c 0
 258 175 l 0
 238 181 230 177 230 155 c 0xc8
 230 -146 l 0xc4
 230 -160 226 -165 219 -165 c 0
 214 -165 206 -161 199 -155 c 0
 167 -129 l 0
 96 -71 0 -15 0 66 c 0
 0 134 40 162 90 162 c 0
 122 162 147 146 167 146 c 0
 178 146 180 157 180 167 c 0
 180 173 l 0xc8
 180 196 175 200 153 207 c 0
 91 226 l 0
 73 232 72 232 72 252 c 0
 72 268 75 271 89 267 c 0
 154 247 l 0
 174 241 178 242 178 274 c 0
 178 294 170 296 152 302 c 0
 91 321 l 0
 73 327 72 327 72 347 c 0
 72 363 75 366 89 362 c 0
 148 344 l 0
 170 337 176 338 176 363 c 0
 176 385 174 390 151 398 c 0
 91 416 l 0
 73 422 72 422 72 442 c 0
 72 458 75 461 89 457 c 0
 146 439 l 0
 164 433 173 432 173 456 c 0
 173 465 l 0xb0
 173 485 173 485 201 485 c 0
 230 485 230 485 230 468 c 0
 230 441 l 0xd0
 230 418 234 412 256 406 c 0
 314 388 l 0
 328 384 330 383 330 366 c 0
 330 344 329 343 310 349 c 0
 259 365 l 0
 236 372 230 370 230 350 c 0
 230 345 l 0
 230 321 237 317 259 310 c 0
 314 293 l 0
 328 289 330 288 330 271 c 0
 330 249 329 248 310 254 c 0
 255 271 l 0
 235 277 230 270 230 256 c 0
 230 250 l 0xc8
EndSplineSet
EndChar

StartChar: x
Encoding: 120 120 125
Width: 292
Flags: W
VStem: 0 26<-185 -172.178 24.9267 75> 245 37<-585.294 -349.061>
LayerCount: 2
Fore
SplineSet
41 -193 m 0
 32 -193 25 -200 25 -206 c 0
 0 -206 l 0
 0 62 l 1
 26 62 l 1
 26 30 40 -19 73 -60 c 0
 145 -151 292 -253 292 -468 c 0
 292 -574 253 -665 234 -700 c 1
 206 -686 l 1
 232 -633 258 -556 258 -467 c 0
 258 -351 204 -267 131 -219 c 0
 101 -200 72 -193 41 -193 c 0
EndSplineSet
EndChar

StartChar: y
Encoding: 121 121 126
Width: 292
Flags: W
VStem: 0 26<-160 -147.312 18.5 75> 258 34<-500.351 -278.092>
LayerCount: 2
Fore
SplineSet
242 -503 m 1
 248 -474 258 -422 258 -376 c 0
 258 -272 216 -213 148 -175 c 0
 118 -158 75 -147 41 -147 c 0
 32 -147 25 -154 25 -160 c 1
 0 -160 l 1
 0 75 l 1
 26 75 l 17
 26 33 47 -2 63 -20 c 0
 131 -99 292 -164 292 -377 c 0
 292 -428 279 -490 272 -512 c 1
 242 -503 l 1
EndSplineSet
EndChar

StartChar: z
Encoding: 122 122 127
Width: 292
Flags: W
HStem: 68 20G<0 26>
VStem: 0 26<-335 -322.124 -164.221 -108.27 40.4128 88> 259 33<-688.565 -478.649 -386.975 -241.735>
LayerCount: 2
Fore
SplineSet
259 -571 m 0
 259 -447 173 -322 41 -322 c 0
 32 -322 25 -329 25 -335 c 1
 0 -335 l 1
 0 88 l 1
 26 88 l 1
 26 40 63 -1 128 -49 c 0
 209 -109 292 -198 292 -316 c 0
 292 -366 278 -404 266 -428 c 1
 283 -470 292 -517 292 -572 c 0
 292 -659 261 -748 244 -778 c 1
 215 -767 l 1
 231 -730 259 -658 259 -571 c 0
26 -120 m 0
 26 -165 66 -209 130 -259 c 0
 178 -296 218 -338 246 -388 c 1
 253 -367 259 -343 259 -315 c 0
 259 -242 213 -168 127 -127 c 0
 104 -116 72 -108 42 -108 c 0
 33 -108 26 -114 26 -120 c 0
EndSplineSet
EndChar

StartChar: asciitilde
Encoding: 126 126 128
Width: 292
Flags: W
HStem: 335 423G<0 25 215 252.5> 758 20G<215 252.5>
VStem: 0 26<-88 -40.4128 108.27 164.221 322.124 335> 259 33<241.735 386.975 478.649 688.565>
LayerCount: 2
Fore
SplineSet
259 571 m 0xb0
 259 658 231 730 215 767 c 1
 244 778 l 1x70
 261 748 292 659 292 572 c 0
 292 517 283 470 266 428 c 1
 278 404 292 366 292 316 c 0
 292 198 209 109 128 49 c 0
 63 1 26 -40 26 -88 c 1
 0 -88 l 1
 0 335 l 1
 25 335 l 1
 25 329 32 322 41 322 c 0
 173 322 259 447 259 571 c 0xb0
26 120 m 0
 26 114 33 108 42 108 c 0
 72 108 104 116 127 127 c 0
 213 168 259 242 259 315 c 0
 259 343 253 367 246 388 c 1
 218 338 178 296 130 259 c 0
 66 209 26 165 26 120 c 0
EndSplineSet
EndChar

StartChar: exclamdown
Encoding: 161 161 130
Width: 258
Flags: W
VStem: 0 30<-313 -244.575 -48.553 46.9919> 192 28<-746.155 -690.828> 224 34<-659.865 -398.126>
LayerCount: 2
Fore
SplineSet
15 47 m 0
 33 47 31 36 34 1 c 0
 46 -159 258 -225 258 -523 c 0
 258 -613 233 -698 220 -736 c 0
 212 -759 183 -750 192 -721 c 0
 208 -664 224 -591 224 -522 c 0
 224 -391 183 -330 132 -283 c 0
 108 -260 72 -243 55 -243 c 0
 33 -243 30 -256 30 -313 c 0
 0 -313 l 0
 0 29 l 0
 0 39 0 47 15 47 c 0
EndSplineSet
EndChar

StartChar: cent
Encoding: 162 162 131
Width: 258
Flags: W
VStem: 0 30<-237 -189.437 -24.4326 46.9919> 214 28<-536.238 -448.934> 224 34<-520.155 -307.636>
LayerCount: 2
Fore
SplineSet
224 -406 m 0xa0
 224 -302 181 -242 133 -212 c 0
 104 -195 79 -188 55 -188 c 0
 33 -188 30 -201 30 -237 c 0
 0 -237 l 0
 0 29 l 0
 0 39 1 47 15 47 c 0
 33 47 32 36 34 11 c 0
 44 -104 258 -144 258 -407 c 0xa0
 258 -458 248 -507 242 -526 c 0
 235 -548 210 -541 214 -511 c 0xc0
 218 -482 224 -452 224 -406 c 0xa0
EndSplineSet
EndChar

StartChar: sterling
Encoding: 163 163 132
Width: 258
Flags: W
VStem: 0 32<-418 -348.793 -205.281 -139.128 -5.68339 76.9846> 192 28<-818.09 -770.578> 225 33<-738.243 -499.324 -374.684 -256.668>
LayerCount: 2
Fore
SplineSet
241 -478 m 0
 252 -517 258 -563 258 -617 c 0
 258 -688 234 -778 220 -809 c 0
 211 -830 181 -825 192 -797 c 0
 205 -759 225 -686 225 -616 c 0
 225 -528 205 -451 137 -389 c 0
 106 -361 75 -348 55 -348 c 0
 33 -348 30 -364 30 -418 c 0
 0 -418 l 0
 0 52 l 0
 0 74 3 77 15 77 c 0
 31 77 32 72 32 38 c 0
 32 12 53 -24 99 -60 c 0
 182 -125 258 -209 258 -331 c 0
 258 -356 254 -377 248 -395 c 0
 236 -433 231 -441 241 -478 c 0
32 -160 m 0
 32 -226 120 -262 187 -358 c 0
 195 -370 202 -375 208 -375 c 0
 220 -375 225 -352 225 -330 c 0
 225 -265 183 -186 104 -150 c 0
 89 -143 71 -138 57 -138 c 0
 42 -138 32 -146 32 -160 c 0
EndSplineSet
EndChar

StartChar: currency
Encoding: 164 164 133
Width: 258
Flags: W
VStem: 0 32<-160 -139.128 -5.68339 76.9846> 225 33<-360.78 -256.668> 235 15<-473 -449.259>
LayerCount: 2
Fore
SplineSet
188 -343 m 0xa0
 196 -354 203 -361 211 -361 c 0
 219 -361 225 -347 225 -330 c 0
 225 -265 183 -186 104 -150 c 0
 89 -143 71 -138 57 -138 c 0
 42 -138 32 -146 32 -160 c 0
 0 -160 l 0
 0 52 l 0
 0 74 3 77 15 77 c 0
 31 77 32 72 32 38 c 0
 32 12 53 -24 99 -60 c 0
 182 -125 258 -209 258 -331 c 0xc0
 258 -350 256 -366 252 -381 c 0
 243 -418 240 -427 249 -459 c 0
 251 -467 250 -472 250 -475 c 0
 235 -473 l 0
 220 -418 200 -382 157 -339 c 0
 173 -331 l 0
 179 -332 182 -335 188 -343 c 0xa0
EndSplineSet
EndChar

StartChar: yen
Encoding: 165 165 134
Width: 258
Flags: W
VStem: 0 34<-46.9262 61.8299 243.253 313> 192 28<690.828 746.155> 224 34<398.126 659.865>
LayerCount: 2
Fore
SplineSet
15 -47 m 0
 0 -47 0 -39 0 -29 c 0
 0 313 l 0
 30 313 l 0
 30 256 33 243 55 243 c 0
 72 243 108 260 132 283 c 0
 183 330 224 391 224 522 c 0
 224 591 208 664 192 721 c 0
 183 750 212 759 220 736 c 0
 233 698 258 613 258 523 c 0
 258 225 46 159 34 -1 c 0
 31 -36 33 -47 15 -47 c 0
EndSplineSet
EndChar

StartChar: brokenbar
Encoding: 166 166 135
Width: 258
Flags: W
VStem: 0 34<-46.9272 33.8949 188.243 237> 224 34<307.636 520.155>
LayerCount: 2
Fore
SplineSet
224 406 m 0
 224 452 218 482 214 511 c 0
 210 541 235 548 242 526 c 0
 248 507 258 458 258 407 c 0
 258 144 44 104 34 -11 c 0
 32 -36 33 -47 15 -47 c 0
 1 -47 0 -39 0 -29 c 0
 0 237 l 0
 30 237 l 0
 30 201 33 188 55 188 c 0
 79 188 104 195 133 212 c 0
 181 242 224 302 224 406 c 0
EndSplineSet
EndChar

StartChar: section
Encoding: 167 167 136
Width: 258
Flags: W
HStem: 398 20G<0 30>
VStem: 0 32<-76.9846 5.68339 139.128 205.281 348.793 418> 225 33<256.668 374.684 499.324 738.243>
LayerCount: 2
Fore
SplineSet
241 478 m 0
 231 441 236 433 248 395 c 0
 254 377 258 356 258 331 c 0
 258 209 182 125 99 60 c 0
 53 24 32 -12 32 -38 c 0
 32 -72 31 -77 15 -77 c 0
 3 -77 0 -74 0 -52 c 0
 0 418 l 0
 30 418 l 0
 30 364 33 348 55 348 c 0
 75 348 106 361 137 389 c 0
 205 451 225 528 225 616 c 0
 225 686 205 759 192 797 c 0
 181 825 211 830 220 809 c 0
 234 778 258 688 258 617 c 0
 258 563 252 517 241 478 c 0
32 160 m 0
 32 146 42 138 57 138 c 0
 71 138 89 143 104 150 c 0
 183 186 225 265 225 330 c 0
 225 352 220 375 208 375 c 0
 202 375 195 370 187 358 c 0
 120 262 32 226 32 160 c 0
EndSplineSet
EndChar

StartChar: dieresis
Encoding: 168 168 137
Width: 258
Flags: W
HStem: 455 20G<235 250>
VStem: 0 32<-76.9846 5.68339 139.128 160> 225 33<256.668 360.78> 235 15<449.259 473>
LayerCount: 2
Fore
SplineSet
188 343 m 0xe0
 182 335 179 332 173 331 c 0
 157 339 l 0
 200 382 220 418 235 473 c 0
 250 475 l 0xd0
 250 472 251 467 249 459 c 0
 240 427 243 418 252 381 c 0
 256 366 258 350 258 331 c 0
 258 209 182 125 99 60 c 0
 53 24 32 -12 32 -38 c 0
 32 -72 31 -77 15 -77 c 0
 3 -77 0 -74 0 -52 c 0
 0 160 l 0
 32 160 l 0
 32 146 42 138 57 138 c 0
 71 138 89 143 104 150 c 0
 183 186 225 265 225 330 c 0
 225 347 219 361 211 361 c 0
 203 361 196 354 188 343 c 0xe0
EndSplineSet
EndChar

StartChar: ordfeminine
Encoding: 170 170 138
Width: 1068
Flags: W
HStem: -9 32<126.006 498.757> 483 34<546.335 937.994>
LayerCount: 2
Fore
SplineSet
17 -9 m 0
 8 -9 0 -4 0 6 c 0
 0 16 6 29 25 48 c 0
 466 488 l 0
 496 517 497 517 534 517 c 0
 1031 517 l 0
 1054 517 1068 510 1068 501 c 0
 1068 497 1066 493 1061 488 c 0
 597 24 l 0
 564 -9 562 -9 516 -9 c 0
 17 -9 l 0
607 483 m 0
 562 483 561 482 529 450 c 0
 135 55 l 0
 129 49 126 43 126 38 c 0
 126 29 134 23 146 23 c 0
 440 23 l 0
 484 23 483 23 511 50 c 0
 925 453 l 0
 934 462 938 468 938 473 c 0
 938 480 930 483 922 483 c 0
 607 483 l 0
EndSplineSet
EndChar

StartChar: guillemotleft
Encoding: 171 171 139
Width: 351
Flags: W
HStem: 246 20G<275 344.5>
LayerCount: 2
Fore
SplineSet
341 266 m 0
 348 266 351 259 351 254 c 0
 351 253 351 252 350 251 c 0
 102 -218 l 0
 90 -241 82 -241 71 -241 c 0
 24 -241 l 0
 6 -241 0 -237 0 -230 c 0
 0 -225 3 -219 7 -213 c 0
 259 252 l 0
 265 264 266 266 284 266 c 0
 341 266 l 0
EndSplineSet
EndChar

StartChar: uni00AD
Encoding: 173 173 140
Width: 479
Flags: W
HStem: -42 84<204.607 276.645>
VStem: 199 83<-36.393 36.393>
LayerCount: 2
Fore
SplineSet
15 77 m 0
 6 77 0 86 0 97 c 0
 0 106 7 109 22 112 c 0
 304 183 l 0
 327 189 339 196 339 203 c 0
 339 210 327 218 300 224 c 0
 23 293 l 0
 7 297 0 300 0 309 c 0
 0 321 6 329 15 329 c 0
 19 329 25 328 32 326 c 0
 448 222 l 0
 468 217 479 209 479 202 c 0
 479 196 470 189 452 185 c 0
 31 80 l 0
 24 78 19 77 15 77 c 0
199 0 m 0
 199 23 218 42 241 42 c 0
 264 42 282 23 282 0 c 0
 282 -23 264 -42 241 -42 c 0
 218 -42 199 -23 199 0 c 0
EndSplineSet
EndChar

StartChar: macron
Encoding: 175 175 141
Width: 479
Flags: W
HStem: -22 44<25.0087 460.992>
LayerCount: 2
Fore
SplineSet
25 0 m 0
 25 20 37 22 49 22 c 0
 439 22 l 0
 450 22 461 18 461 0 c 0
 461 -20 452 -22 439 -22 c 0
 48 -22 l 0
 31 -22 25 -20 25 0 c 0
15 58 m 0
 6 58 0 67 0 78 c 0
 0 87 7 90 22 93 c 0
 304 164 l 0
 327 170 339 177 339 184 c 0
 339 191 327 199 300 205 c 0
 23 274 l 0
 7 278 0 281 0 290 c 0
 0 302 6 310 15 310 c 0
 19 310 25 309 32 307 c 0
 448 203 l 0
 468 198 479 190 479 183 c 0
 479 177 470 170 452 166 c 0
 31 61 l 0
 24 59 19 58 15 58 c 0
EndSplineSet
EndChar

StartChar: uni00B2
Encoding: 178 178 142
Width: 318
Flags: W
HStem: -42 84<129.607 201.645> 67 35<0.316406 17>
VStem: 124 83<-36.393 36.393> 224 94<178.583 215.713>
LayerCount: 2
Fore
SplineSet
0 307 m 0
 0 317 8 327 15 327 c 0
 19 327 25 327 33 323 c 0
 282 222 l 0
 306 212 318 205 318 197 c 0
 318 189 305 182 281 172 c 0
 34 72 l 0
 26 69 20 67 15 67 c 0
 7 67 0 78 0 88 c 0
 0 94 4.93945 97.1484 17 102 c 0
 191 172 l 0
 214 181 224 189 224 197 c 0
 224 206 211 214 189 223 c 0
 19 291 l 0
 6 297 0 300 0 307 c 0
124 0 m 0
 124 23 143 42 166 42 c 0
 189 42 207 23 207 0 c 0
 207 -23 189 -42 166 -42 c 0
 143 -42 124 -23 124 0 c 0
EndSplineSet
EndChar

StartChar: uni00B3
Encoding: 179 179 143
Width: 318
Flags: W
HStem: -102 35<0.316406 17> -42 84<129.607 201.645>
VStem: 124 83<-36.393 36.393> 224 94<-215.713 -178.583>
LayerCount: 2
Fore
SplineSet
0 -307 m 0
 0 -300 6 -297 19 -291 c 0
 189 -223 l 0
 211 -214 224 -206 224 -197 c 0
 224 -189 214 -181 191 -172 c 0
 17 -102 l 0
 5 -97 0 -94 0 -88 c 0
 0 -78 7 -67 15 -67 c 0
 20 -67 26 -69 34 -72 c 0
 281 -172 l 0
 305 -182 318 -189 318 -197 c 0
 318 -205 306 -212 282 -222 c 0
 33 -323 l 0
 25 -327 19 -327 15 -327 c 0
 8 -327 0 -317 0 -307 c 0
124 0 m 0
 124 23 143 42 166 42 c 0
 189 42 207 23 207 0 c 0
 207 -23 189 -42 166 -42 c 0
 143 -42 124 -23 124 0 c 0
EndSplineSet
EndChar

StartChar: acute
Encoding: 180 180 144
Width: 318
Flags: W
HStem: -22 44<3.00586 314.996> 65 35<0.316406 17>
VStem: 224 94<176.583 213.713>
LayerCount: 2
Fore
SplineSet
0 305 m 0
 0 315 8 325 15 325 c 0
 19 325 25 325 33 321 c 0
 282 220 l 0
 306 210 318 203 318 195 c 0
 318 187 305 180 281 170 c 0
 34 70 l 0
 26 67 20 65 15 65 c 0
 7 65 0 76 0 86 c 0
 0 92 5 95 17 100 c 0
 191 170 l 0
 214 179 224 187 224 195 c 0
 224 204 211 212 189 221 c 0
 19 289 l 0
 6 295 0 298 0 305 c 0
3 0 m 0
 3 20 11 22 27 22 c 0
 293 22 l 0
 310 22 315 18 315 0 c 0
 315 -20 310 -22 293 -22 c 0
 26 -22 l 0
 9 -22 3 -20 3 0 c 0
EndSplineSet
EndChar

StartChar: mu
Encoding: 181 181 145
Width: 318
Flags: W
HStem: -100 35<0.316406 17> -22 44<3.00586 314.996>
VStem: 224 94<-213.713 -176.583>
LayerCount: 2
Fore
SplineSet
0 -305 m 0
 0 -298 6 -295 19 -289 c 0
 189 -221 l 0
 211 -212 224 -204 224 -195 c 0
 224 -187 214 -179 191 -170 c 0
 17 -100 l 0
 5 -95 0 -92 0 -86 c 0
 0 -76 7 -65 15 -65 c 0
 20 -65 26 -67 34 -70 c 0
 281 -170 l 0
 305 -180 318 -187 318 -195 c 0
 318 -203 306 -210 282 -220 c 0
 33 -321 l 0
 25 -325 19 -325 15 -325 c 0
 8 -325 0 -315 0 -305 c 0
3 0 m 0
 3 20 9 22 26 22 c 0
 293 22 l 0
 310 22 315 20 315 0 c 0
 315 -18 310 -22 293 -22 c 0
 27 -22 l 0
 11 -22 3 -20 3 0 c 0
EndSplineSet
EndChar

StartChar: paragraph
Encoding: 182 182 146
Width: 343
Flags: W
HStem: -22 44<3.00874 339.992> 425 20G<170 176>
VStem: 0 35<76.9064 87>
LayerCount: 2
Fore
SplineSet
23 76 m 0
 14 76 0 84 0 90 c 0
 0 92 1 95 3 99 c 0
 152 418 l 0
 161 436 167 445 173 445 c 0
 179 445 185 437 193 419 c 0
 339 106 l 0
 342 100 343 95 343 91 c 0
 343 84 338 81 327 81 c 0
 266 81 l 0
 247 81 242 87 234 104 c 0
 160 263 l 0
 152 280 145 288 139 288 c 0
 132 288 125 279 118 264 c 0
 35 87 l 0
 31 79 28 76 23 76 c 0
3 0 m 0
 3 20 15 22 27 22 c 0
 318 22 l 0
 329 22 340 18 340 0 c 0
 340 -20 331 -22 318 -22 c 0
 26 -22 l 0
 9 -22 3 -20 3 0 c 0
EndSplineSet
EndChar

StartChar: periodcentered
Encoding: 183 183 147
Width: 343
Flags: W
HStem: -22 44<3.00801 339.991>
VStem: 308 35<-87 -76.9064>
LayerCount: 2
Fore
SplineSet
320 -76 m 0
 329 -76 343 -84 343 -90 c 0
 343 -92 342 -95 340 -99 c 0
 191 -418 l 0
 182 -436 176 -445 170 -445 c 0
 164 -445 158 -437 150 -419 c 0
 4 -106 l 0
 1 -100 0 -95 0 -91 c 0
 0 -84 5 -81 16 -81 c 0
 77 -81 l 0
 96 -81 101 -87 109 -104 c 0
 183 -263 l 0
 191 -280 198 -288 204 -288 c 0
 211 -288 218 -279 225 -264 c 0
 308 -87 l 0
 312 -79 315 -76 320 -76 c 0
340 0 m 0
 340 -20 328 -22 316 -22 c 0
 25 -22 l 0
 14 -22 3 -18 3 0 c 0
 3 20 12 22 25 22 c 0
 317 22 l 0
 334 22 340 20 340 0 c 0
EndSplineSet
EndChar

StartChar: cedilla
Encoding: 184 184 148
Width: 343
Flags: W
HStem: 398 44<3.00874 339.992>
VStem: 0 35<-13.0936 -3>
LayerCount: 2
Fore
SplineSet
3 420 m 0
 3 440 15 442 27 442 c 0
 318 442 l 0
 329 442 340 438 340 420 c 0
 340 400 331 398 318 398 c 0
 26 398 l 0
 9 398 3 400 3 420 c 0
23 -14 m 0
 14 -14 0 -6 0 0 c 0
 0 2 1 5 3 9 c 0
 152 328 l 0
 161 346 167 355 173 355 c 0
 179 355 185 347 193 329 c 0
 339 16 l 0
 342 10 343 5 343 1 c 0
 343 -6 338 -9 327 -9 c 0
 266 -9 l 0
 247 -9 242 -3 234 14 c 0
 160 173 l 0
 152 190 145 198 139 198 c 0
 132 198 125 189 118 174 c 0
 35 -3 l 0
 31 -11 28 -14 23 -14 c 0
EndSplineSet
EndChar

StartChar: uni00B9
Encoding: 185 185 149
Width: 343
Flags: W
HStem: -442 44<3.00801 339.991>
VStem: 308 35<3 13.0936>
LayerCount: 2
Fore
SplineSet
340 -420 m 0
 340 -440 328 -442 316 -442 c 0
 25 -442 l 0
 14 -442 3 -438 3 -420 c 0
 3 -400 12 -398 25 -398 c 0
 317 -398 l 0
 334 -398 340 -400 340 -420 c 0
320 14 m 0
 329 14 343 6 343 0 c 0
 343 -2 342 -5 340 -9 c 0
 191 -328 l 0
 182 -346 176 -355 170 -355 c 0
 164 -355 158 -347 150 -329 c 0
 4 -16 l 0
 1 -10 0 -5 0 -1 c 0
 0 6 5 9 16 9 c 0
 77 9 l 0
 96 9 101 3 109 -14 c 0
 183 -173 l 0
 191 -190 198 -198 204 -198 c 0
 211 -198 218 -189 225 -174 c 0
 308 3 l 0
 312 11 315 14 320 14 c 0
EndSplineSet
EndChar

StartChar: ordmasculine
Encoding: 186 186 150
Width: 64
Flags: W
HStem: -21 265<18.5625 44.6926>
VStem: 0 64<-9.85657 242.345>
LayerCount: 2
Fore
SplineSet
32 -21 m 0
 27 -21 20 -15 17 9 c 0
 7 96 0 154 0 201 c 0
 0 228 12 244 32 244 c 0
 52 244 64 228 64 201 c 0
 64 154 56 97 46 9 c 0
 43 -15 37 -21 32 -21 c 0
EndSplineSet
EndChar

StartChar: guillemotright
Encoding: 187 187 151
Width: 64
Flags: W
HStem: -244 265<19.3074 45.4375>
VStem: 0 64<-242.345 9.85657>
LayerCount: 2
Fore
SplineSet
32 21 m 0
 37 21 44 15 47 -9 c 0
 57 -96 64 -154 64 -201 c 0
 64 -228 52 -244 32 -244 c 0
 12 -244 0 -228 0 -201 c 0
 0 -154 8 -97 18 -9 c 0
 21 15 27 21 32 21 c 0
EndSplineSet
EndChar

StartChar: onequarter
Encoding: 188 188 152
Width: 31
Flags: W
HStem: -114 228<0 31>
VStem: 0 31<-113.998 113.998>
LayerCount: 2
Fore
SplineSet
16 114 m 0
 29 114 31 111 31 99 c 0
 31 -98 l 0
 31 -112 28 -114 16 -114 c 0
 2 -114 0 -111 0 -98 c 0
 0 100 l 0
 0 111 2 114 16 114 c 0
EndSplineSet
EndChar

StartChar: onehalf
Encoding: 189 189 153
Width: 45
Flags: W
HStem: -145 330<0 45>
VStem: 0 45<-145 185>
LayerCount: 2
Fore
SplineSet
0 185 m 0
 45 185 l 0
 45 -145 l 0
 0 -145 l 0
 0 185 l 0
EndSplineSet
EndChar

StartChar: threequarters
Encoding: 190 190 154
Width: 212
Flags: W
HStem: -106 31<60.8845 151.275> 75 31<60.725 151.116>
VStem: 0 31<-45.275 45.1155> 181 31<-45.1155 45.275>
LayerCount: 2
Fore
SplineSet
31 0 m 0
 31 -40 62 -75 106 -75 c 0
 146 -75 181 -44 181 0 c 0
 181 40 150 75 106 75 c 0
 66 75 31 44 31 0 c 0
0 0 m 0
 0 60 50 106 106 106 c 0
 166 106 212 56 212 0 c 0
 212 -60 162 -106 106 -106 c 0
 46 -106 0 -56 0 0 c 0
EndSplineSet
EndChar

StartChar: questiondown
Encoding: 191 191 155
Width: 262
Flags: W
HStem: -106 31<85.8845 176.275> 75 31<85.725 176.116> 276 32<0.00317383 115 147.056 261.994> 403 20G<121 142>
VStem: 25 31<-45.275 45.1155> 115 32<161.006 275.963 308.119 422.997> 206 31<-45.1155 45.275>
LayerCount: 2
Fore
SplineSet
115 260 m 0
 115 274 113 276 96 276 c 0
 11 276 l 0
 1 276 0 277 0 287 c 0
 0 299 l 0
 0 307 1 308 9 308 c 0
 94 308 l 0
 112 308 115 311 115 324 c 0
 115 412 l 0
 115 422 116 423 126 423 c 0
 138 423 l 0
 146 423 147 422 147 414 c 0
 147 327 l 0
 147 310 151 308 164 308 c 0
 248 308 l 0
 260 308 262 307 262 297 c 0
 262 287 l 0
 262 277 261 276 249 276 c 0
 165 276 l 0
 148 276 147 273 147 260 c 0
 147 175 l 0
 147 163 146 161 136 161 c 0
 126 161 l 0
 116 161 115 162 115 174 c 0
 115 260 l 0
56 0 m 0
 56 -40 87 -75 131 -75 c 0
 171 -75 206 -44 206 0 c 0
 206 40 175 75 131 75 c 0
 91 75 56 44 56 0 c 0
25 0 m 0
 25 60 75 106 131 106 c 0
 191 106 237 56 237 0 c 0
 237 -60 187 -106 131 -106 c 0
 71 -106 25 -56 25 0 c 0
EndSplineSet
EndChar

StartChar: Agrave
Encoding: 192 192 156
Width: 262
Flags: W
HStem: -308 32<0.00610352 114.944 147 261.997> -106 31<85.8845 176.275> 75 31<85.725 176.116>
VStem: 25 31<-45.275 45.1155> 115 32<-422.997 -308.119 -275.963 -161.006> 206 31<-45.1155 45.275>
LayerCount: 2
Fore
SplineSet
147 -260 m 0
 147 -274 149 -276 166 -276 c 0
 251 -276 l 0
 261 -276 262 -277 262 -287 c 0
 262 -299 l 0
 262 -307 261 -308 253 -308 c 0
 168 -308 l 0
 150 -308 147 -311 147 -324 c 0
 147 -412 l 0
 147 -422 146 -423 136 -423 c 0
 124 -423 l 0
 116 -423 115 -422 115 -414 c 0
 115 -327 l 0
 115 -310 111 -308 98 -308 c 0
 14 -308 l 0
 2 -308 0 -307 0 -297 c 0
 0 -287 l 0
 0 -277 1 -276 13 -276 c 0
 97 -276 l 0
 114 -276 115 -273 115 -260 c 0
 115 -175 l 0
 115 -163 116 -161 126 -161 c 0
 136 -161 l 0
 146 -161 147 -162 147 -174 c 0
 147 -260 l 0
206 0 m 0
 206 40 175 75 131 75 c 0
 91 75 56 44 56 0 c 0
 56 -40 87 -75 131 -75 c 0
 171 -75 206 -44 206 0 c 0
237 0 m 0
 237 -60 187 -106 131 -106 c 0
 71 -106 25 -56 25 0 c 0
 25 60 75 106 131 106 c 0
 191 106 237 56 237 0 c 0
EndSplineSet
EndChar

StartChar: Aacute
Encoding: 193 193 157
Width: 232
Flags: W
HStem: -131 31<-52.386 52.9073> 100 31<-52.9073 52.386>
VStem: -131 31<-52.9073 52.386> 100 31<-52.386 52.9073>
LayerCount: 2
Fore
SplineSet
-100 0 m 0
 -100 -53 -58 -100 0 -100 c 0
 53 -100 100 -58 100 0 c 0
 100 53 58 100 0 100 c 0
 -53 100 -100 58 -100 0 c 0
-131 0 m 0
 -131 74 -70 131 0 131 c 0
 74 131 131 70 131 0 c 0
 131 -74 70 -131 0 -131 c 0
 -74 -131 -131 -70 -131 0 c 0
EndSplineSet
EndChar

StartChar: Acircumflex
Encoding: 194 194 158
Width: 262
Flags: W
HStem: -131 31<78.614 183.907>
VStem: 0 31<-52.9073 51.9086> 115 32<-21.9939 92.3263 127.317 263.997> 231 31<-52.386 53.4852>
LayerCount: 2
Fore
SplineSet
31 0 m 0
 31 -53 73 -100 131 -100 c 0
 184 -100 231 -58 231 0 c 0
 231 41 206 79 167 93 c 0
 152 99 147 95 147 80 c 0
 147 -8 l 0
 147 -20 146 -22 136 -22 c 0
 126 -22 l 0
 116 -22 115 -21 115 -9 c 0
 115 81 l 0
 115 96 112 100 97 94 c 0
 59 80 31 45 31 0 c 0
126 264 m 0
 138 264 l 0
 146 264 147 263 147 255 c 0
 147 148 l 0
 147 132 149 130 160 128 c 0
 220 114 262 60 262 0 c 0
 262 -74 201 -131 131 -131 c 0
 57 -131 0 -70 0 0 c 0
 0 62 42 112 97 126 c 0
 113 131 115 132 115 149 c 0
 115 253 l 0
 115 263 116 264 126 264 c 0
EndSplineSet
EndChar

StartChar: Atilde
Encoding: 195 195 159
Width: 262
Flags: W
HStem: 100 31<78.0927 183.386>
VStem: 0 31<-53.4852 52.386> 115 32<-263.997 -127.317 -92.3263 21.9939> 231 31<-51.9086 52.9073>
LayerCount: 2
Fore
SplineSet
231 0 m 0
 231 53 189 100 131 100 c 0
 78 100 31 58 31 0 c 0
 31 -41 56 -79 95 -93 c 0
 110 -99 115 -95 115 -80 c 0
 115 8 l 0
 115 20 116 22 126 22 c 0
 136 22 l 0
 146 22 147 21 147 9 c 0
 147 -81 l 0
 147 -96 150 -100 165 -94 c 0
 203 -80 231 -45 231 0 c 0
136 -264 m 0
 124 -264 l 0
 116 -264 115 -263 115 -255 c 0
 115 -148 l 0
 115 -132 113 -130 102 -128 c 0
 42 -114 0 -60 0 0 c 0
 0 74 61 131 131 131 c 0
 205 131 262 70 262 0 c 0
 262 -62 220 -112 165 -126 c 0
 149 -131 147 -132 147 -149 c 0
 147 -253 l 0
 147 -263 146 -264 136 -264 c 0
EndSplineSet
EndChar

StartChar: Adieresis
Encoding: 196 196 160
Width: 262
Flags: W
HStem: -131 31<78.614 183.907> 233 32<0.00317383 115 147.056 261.994> 366 20G<121 142>
VStem: 0 31<-52.9073 51.9086> 115 32<-21.9939 92.3263 127.317 232.963 265.119 385.997> 231 31<-52.386 53.4852>
LayerCount: 2
Fore
SplineSet
126 386 m 0
 138 386 l 0
 146 386 147 385 147 377 c 0
 147 284 l 0
 147 267 151 265 164 265 c 0
 248 265 l 0
 260 265 262 264 262 254 c 0
 262 244 l 0
 262 234 261 233 249 233 c 0
 165 233 l 0
 148 233 147 230 147 217 c 0
 147 148 l 0
 147 132 149 130 160 128 c 0
 220 114 262 60 262 0 c 0
 262 -74 201 -131 131 -131 c 0
 57 -131 0 -70 0 0 c 0
 0 62 42 112 97 126 c 0
 113 131 115 132 115 149 c 0
 115 217 l 0
 115 231 113 233 96 233 c 0
 11 233 l 0
 1 233 0 234 0 244 c 0
 0 256 l 0
 0 264 1 265 9 265 c 0
 94 265 l 0
 112 265 115 268 115 281 c 0
 115 375 l 0
 115 385 116 386 126 386 c 0
31 0 m 0
 31 -53 73 -100 131 -100 c 0
 184 -100 231 -58 231 0 c 0
 231 41 206 79 167 93 c 0
 152 99 147 95 147 80 c 0
 147 -8 l 0
 147 -20 146 -22 136 -22 c 0
 126 -22 l 0
 116 -22 115 -21 115 -9 c 0
 115 81 l 0
 115 96 112 100 97 94 c 0
 59 80 31 45 31 0 c 0
EndSplineSet
EndChar

StartChar: Aring
Encoding: 197 197 161
Width: 262
Flags: W
HStem: -265 32<0.00610352 114.944 147 261.997> 100 31<78.0927 183.386>
VStem: 0 31<-53.4852 52.386> 115 32<-385.997 -265.119 -232.963 -127.317 -92.3263 21.9939> 231 31<-51.9086 52.9073>
LayerCount: 2
Fore
SplineSet
136 -386 m 0
 124 -386 l 0
 116 -386 115 -385 115 -377 c 0
 115 -284 l 0
 115 -267 111 -265 98 -265 c 0
 14 -265 l 0
 2 -265 0 -264 0 -254 c 0
 0 -244 l 0
 0 -234 1 -233 13 -233 c 0
 97 -233 l 0
 114 -233 115 -230 115 -217 c 0
 115 -148 l 0
 115 -132 113 -130 102 -128 c 0
 42 -114 0 -60 0 0 c 0
 0 74 61 131 131 131 c 0
 205 131 262 70 262 0 c 0
 262 -62 220 -112 165 -126 c 0
 149 -131 147 -132 147 -149 c 0
 147 -217 l 0
 147 -231 149 -233 166 -233 c 0
 251 -233 l 0
 261 -233 262 -234 262 -244 c 0
 262 -256 l 0
 262 -264 261 -265 253 -265 c 0
 168 -265 l 0
 150 -265 147 -268 147 -281 c 0
 147 -375 l 0
 147 -385 146 -386 136 -386 c 0
231 0 m 0
 231 53 189 100 131 100 c 0
 78 100 31 58 31 0 c 0
 31 -41 56 -79 95 -93 c 0
 110 -99 115 -95 115 -80 c 0
 115 8 l 0
 115 20 116 22 126 22 c 0
 136 22 l 0
 146 22 147 21 147 9 c 0
 147 -81 l 0
 147 -96 150 -100 165 -94 c 0
 203 -80 231 -45 231 0 c 0
EndSplineSet
EndChar

StartChar: AE
Encoding: 198 198 162
Width: 232
Flags: W
HStem: -131 31<78.7952 183.609> -16 32<38.2857 223.715> 100 31<77.9664 183.42>
VStem: 0 262<-13.0068 13.0068>
LayerCount: 2
Fore
SplineSet
0 0 m 0
 0 74 61 131 131 131 c 0
 205 131 262 70 262 0 c 0
 262 -74 201 -131 131 -131 c 0
 57 -131 0 -70 0 0 c 0
37 -33 m 0
 50 -71 86 -100 131 -100 c 0
 171 -100 208 -76 223 -39 c 0
 231 -21 227 -16 206 -16 c 0
 52 -16 l 0
 33 -16 32 -21 37 -33 c 0
49 16 m 0
 206 16 l 0
 227 16 231 19 224 37 c 0
 210 73 175 100 131 100 c 0
 90 100 53 75 38 37 c 0
 32 22 35 16 49 16 c 0
EndSplineSet
EndChar

StartChar: Ccedilla
Encoding: 199 199 163
Width: 262
Flags: W
HStem: -131 31<78.5899 183.883> -7 138<58.7891 202.338>
VStem: 0 34<-58.2631 -7> 228 34<-57.5134 -7>
LayerCount: 2
Fore
SplineSet
0 0 m 0
 0 74 61 131 131 131 c 0
 205 131 262 70 262 0 c 0
 262 -74 201 -131 131 -131 c 0
 57 -131 0 -70 0 0 c 0
217 -7 m 0
 45 -7 l 0
 35 -7 31 -10 34 -23 c 0
 44 -66 82 -100 131 -100 c 0
 176 -100 217 -69 228 -25 c 0
 231 -11 227 -7 217 -7 c 0
EndSplineSet
EndChar

StartChar: Egrave
Encoding: 200 200 164
Width: 262
Flags: W
HStem: -131 138<59.662 203.211> 100 31<78.1166 183.41>
VStem: 0 34<7 57.5134> 228 34<7 58.2631>
LayerCount: 2
Fore
SplineSet
262 0 m 0
 262 -74 201 -131 131 -131 c 0
 57 -131 0 -70 0 0 c 0
 0 74 61 131 131 131 c 0
 205 131 262 70 262 0 c 0
45 7 m 0
 217 7 l 0
 227 7 231 10 228 23 c 0
 218 66 180 100 131 100 c 0
 86 100 45 69 34 25 c 0
 31 11 35 7 45 7 c 0
EndSplineSet
EndChar

StartChar: Eacute
Encoding: 201 201 165
Width: 262
Flags: W
HStem: -16 32<37.9982 115 147 224.002>
VStem: 0 37<-64.1622 -16> 115 32<-92.4216 -16.0268 16 92.6733>
LayerCount: 2
Fore
SplineSet
0 0 m 0
 0 74 61 131 131 131 c 0
 205 131 262 70 262 0 c 0
 262 -74 201 -131 131 -131 c 0
 57 -131 0 -70 0 0 c 0
100 95 m 0
 72 86 49 65 38 37 c 0
 32 22 35 16 49 16 c 0
 100 16 l 0
 113 16 115 19 115 30 c 0
 115 86 l 0
 115 97 109 98 100 95 c 0
97 -16 m 0
 48 -16 l 0
 38 -16 33 -21 37 -33 c 0
 47 -62 70 -85 100 -95 c 0
 112 -99 115 -95 115 -82 c 0
 115 -32 l 0
 115 -20 113 -16 97 -16 c 0
163 -95 m 0
 190 -86 212 -66 223 -39 c 0
 231 -21 227 -16 210 -16 c 0
 161 -16 l 0
 149 -16 147 -17 147 -31 c 0
 147 -85 l 0
 147 -95 150 -99 163 -95 c 0
147 87 m 0
 147 30 l 0
 147 18 150 16 161 16 c 0
 210 16 l 0
 223 16 231 19 224 37 c 0
 214 64 191 86 163 95 c 0
 151 99 147 96 147 87 c 0
EndSplineSet
EndChar

StartChar: Ecircumflex
Encoding: 202 202 166
Width: 395
Flags: W
HStem: -131 31<212.091 316.907> -16 32<0.00317383 136.683 171.674 285.994> 100 31<210.515 316.386>
VStem: 364 31<-52.386 52.9073>
LayerCount: 2
Fore
SplineSet
264 -100 m 0
 317 -100 364 -58 364 0 c 0
 364 53 322 100 264 100 c 0
 223 100 185 75 171 36 c 0
 165 21 169 16 184 16 c 0
 272 16 l 0
 284 16 286 15 286 5 c 0
 286 -5 l 0
 286 -15 285 -16 273 -16 c 0
 183 -16 l 0
 168 -16 164 -19 170 -34 c 0
 184 -72 219 -100 264 -100 c 0
0 -5 m 0
 0 7 l 0
 0 15 1 16 9 16 c 0
 116 16 l 0
 132 16 134 18 136 29 c 0
 150 89 204 131 264 131 c 0
 338 131 395 70 395 0 c 0
 395 -74 334 -131 264 -131 c 0
 202 -131 152 -89 138 -34 c 0
 133 -18 132 -16 115 -16 c 0
 11 -16 l 0
 1 -16 0 -15 0 -5 c 0
EndSplineSet
EndChar

StartChar: Edieresis
Encoding: 203 203 167
Width: 395
Flags: W
HStem: -131 31<78.614 184.485> -16 32<109.006 223.326 258.317 394.997> 100 31<78.0927 182.909>
VStem: 0 31<-52.9073 52.386>
LayerCount: 2
Fore
SplineSet
131 100 m 0
 78 100 31 58 31 0 c 0
 31 -53 73 -100 131 -100 c 0
 172 -100 210 -75 224 -36 c 0
 230 -21 226 -16 211 -16 c 0
 123 -16 l 0
 111 -16 109 -15 109 -5 c 0
 109 5 l 0
 109 15 110 16 122 16 c 0
 212 16 l 0
 227 16 231 19 225 34 c 0
 211 72 176 100 131 100 c 0
395 5 m 0
 395 -7 l 0
 395 -15 394 -16 386 -16 c 0
 279 -16 l 0
 263 -16 261 -18 259 -29 c 0
 245 -89 191 -131 131 -131 c 0
 57 -131 0 -70 0 0 c 0
 0 74 61 131 131 131 c 0
 193 131 243 89 257 34 c 0
 262 18 263 16 280 16 c 0
 384 16 l 0
 394 16 395 15 395 5 c 0
EndSplineSet
EndChar

StartChar: Igrave
Encoding: 204 204 168
Width: 322
Flags: W
HStem: -16 32<0.00317383 145 177.056 321.994>
VStem: 145 32<-160.994 -16.0369 16.1191 160.997>
LayerCount: 2
Fore
SplineSet
145 -32 m 0
 145 -18 143 -16 126 -16 c 0
 11 -16 l 0
 1 -16 0 -15 0 -5 c 0
 0 7 l 0
 0 15 1 16 9 16 c 0
 124 16 l 0
 142 16 145 19 145 32 c 0
 145 150 l 0
 145 160 146 161 156 161 c 0
 168 161 l 0
 176 161 177 160 177 152 c 0
 177 35 l 0
 177 18 181 16 194 16 c 0
 308 16 l 0
 320 16 322 15 322 5 c 0
 322 -5 l 0
 322 -15 321 -16 309 -16 c 0
 195 -16 l 0
 178 -16 177 -19 177 -32 c 0
 177 -147 l 0
 177 -159 176 -161 166 -161 c 0
 156 -161 l 0
 146 -161 145 -160 145 -148 c 0
 145 -32 l 0
EndSplineSet
EndChar

StartChar: Iacute
Encoding: 205 205 169
Width: 232
Flags: W
HStem: -16 32<-130.997 -16 16.0555 130.994>
VStem: -16 32<-130.994 -16.0369 16.1191 130.997>
LayerCount: 2
Fore
SplineSet
-16 -32 m 0
 -16 -18 -18 -16 -35 -16 c 0
 -120 -16 l 0
 -130 -16 -131 -15 -131 -5 c 0
 -131 7 l 0
 -131 15 -130 16 -122 16 c 0
 -37 16 l 0
 -19 16 -16 19 -16 32 c 0
 -16 120 l 0
 -16 130 -15 131 -5 131 c 0
 7 131 l 0
 15 131 16 130 16 122 c 0
 16 35 l 0
 16 18 20 16 33 16 c 0
 117 16 l 0
 129 16 131 15 131 5 c 0
 131 -5 l 0
 131 -15 130 -16 118 -16 c 0
 34 -16 l 0
 17 -16 16 -19 16 -32 c 0
 16 -117 l 0
 16 -129 15 -131 5 -131 c 0
 -5 -131 l 0
 -15 -131 -16 -130 -16 -118 c 0
 -16 -32 l 0
EndSplineSet
EndChar

StartChar: Icircumflex
Encoding: 206 206 170
Width: 288
Flags: W
VStem: 0 288<-3 1>
LayerCount: 2
Fore
SplineSet
168 104 m 0
 195 74 237 41 273 14 c 0
 283 6 288 1 288 -4 c 0
 288 -8 284 -11 277 -17 c 0
 157 -113 l 0
 141 -126 138 -126 122 -108 c 0
 92 -76 54 -45 18 -17 c 0
 5 -8 0 -3 0 2 c 0
 0 7 4 11 13 18 c 0
 127 109 l 0
 148 125 149 125 168 104 c 0
78 0 m 0
 144 -58 l 0
 159 -70 163 -70 178 -57 c 0
 208 -32 l 0
 223 -20 224 -13 208 0 c 0
 144 55 l 0
 129 68 126 66 115 58 c 0
 78 28 l 0
 62 15 65 10 78 0 c 0
EndSplineSet
EndChar

StartChar: Idieresis
Encoding: 207 207 171
Width: 1059
Flags: W
HStem: -50 152<477.078 581.969> 329 162<391.251 668.709>
VStem: 0 29<-50 18.9462> 453 152<-26.4457 78.4457> 1031 28<-50 18.9462>
LayerCount: 2
Fore
SplineSet
1031 -50 m 1
 1017 109 880 329 530 329 c 0
 180 329 43 109 29 -50 c 1
 0 -50 l 1
 26 249 240 491 530 491 c 0
 820 491 1033 249 1059 -50 c 1
 1031 -50 l 1
453 26 m 0
 453 68 488 102 530 102 c 0
 572 102 605 68 605 26 c 0
 605 -16 572 -50 530 -50 c 0
 488 -50 453 -16 453 26 c 0
EndSplineSet
EndChar

StartChar: Eth
Encoding: 208 208 172
Width: 1059
Flags: W
HStem: -491 162<390.291 667.749> -102 152<477.031 581.922>
VStem: 0 28<-18.9462 50> 454 152<-78.4457 26.4457> 1030 29<-18.9462 50>
LayerCount: 2
Fore
SplineSet
28 50 m 1
 42 -109 179 -329 529 -329 c 0
 879 -329 1016 -109 1030 50 c 1
 1059 50 l 1
 1033 -249 819 -491 529 -491 c 0
 239 -491 26 -249 0 50 c 1
 28 50 l 1
606 -26 m 0
 606 -68 571 -102 529 -102 c 0
 487 -102 454 -68 454 -26 c 0
 454 16 487 50 529 50 c 0
 571 50 606 16 606 -26 c 0
EndSplineSet
EndChar

StartChar: Ntilde
Encoding: 209 209 173
Width: 535
Flags: W
HStem: -50 122<221.107 313.463> 179 119<166.283 367.84>
VStem: 0 28<-50 36.9055> 206 123<-34.8928 56.8928> 507 28<-50 36.9055>
LayerCount: 2
Fore
SplineSet
507 -50 m 1
 507 62 447 179 267 179 c 0
 87 179 28 62 28 -50 c 1
 0 -50 l 1
 0 142 99 298 267 298 c 0
 435 298 535 142 535 -50 c 1
 507 -50 l 1
206 11 m 0
 206 44 234 72 267 72 c 0
 300 72 329 44 329 11 c 0
 329 -22 300 -50 267 -50 c 0
 234 -50 206 -22 206 11 c 0
EndSplineSet
EndChar

StartChar: Ograve
Encoding: 210 210 174
Width: 535
Flags: W
HStem: -298 119<167.16 368.717> -72 122<221.537 313.893>
VStem: 0 28<-36.9055 50> 206 123<-56.8928 34.8928> 507 28<-36.9055 50>
LayerCount: 2
Fore
SplineSet
28 50 m 1
 28 -62 88 -179 268 -179 c 0
 448 -179 507 -62 507 50 c 1
 535 50 l 1
 535 -142 436 -298 268 -298 c 0
 100 -298 0 -142 0 50 c 1
 28 50 l 1
329 -11 m 0
 329 -44 301 -72 268 -72 c 0
 235 -72 206 -44 206 -11 c 0
 206 22 235 50 268 50 c 0
 301 50 329 22 329 -11 c 0
EndSplineSet
EndChar

StartChar: Oacute
Encoding: 211 211 175
Width: 834
Flags: W
HStem: -50 138<367.092 466.908> 389 20G<396.609 437.391>
VStem: 348 138<-30.9079 68.9079>
LayerCount: 2
Fore
SplineSet
348 19 m 0
 348 57 379 88 417 88 c 0
 455 88 486 57 486 19 c 0
 486 -19 455 -50 417 -50 c 0
 379 -50 348 -19 348 19 c 0
417 409 m 1
 834 0 l 1
 818 -21 l 1
 417 231 l 1
 16 -21 l 1
 0 0 l 1
 417 409 l 1
EndSplineSet
EndChar

StartChar: Ocircumflex
Encoding: 212 212 176
Width: 834
Flags: W
HStem: -88 138<367.092 466.908>
VStem: 348 138<-68.9079 30.9079>
LayerCount: 2
Fore
SplineSet
486 -19 m 0
 486 -57 455 -88 417 -88 c 0
 379 -88 348 -57 348 -19 c 0
 348 19 379 50 417 50 c 0
 455 50 486 19 486 -19 c 0
417 -409 m 1
 0 0 l 1
 16 21 l 1
 417 -231 l 1
 818 21 l 1
 834 0 l 1
 417 -409 l 1
EndSplineSet
EndChar

StartChar: Otilde
Encoding: 213 213 177
Width: 634
Flags: W
HStem: -39 172<273 361> 215 145<28 606>
VStem: 0 28<-51 215> 273 88<-39 133> 606 28<-51 214.682>
LayerCount: 2
Fore
SplineSet
361 133 m 1
 361 -39 l 1
 273 -39 l 1
 273 133 l 1
 361 133 l 1
28 -51 m 1
 0 -51 l 1
 0 360 l 1
 634 360 l 1
 634 -51 l 1
 606 -51 l 1
 606 199 l 2
 606 208 595 215 590 215 c 2
 40 215 l 2
 36 215 28 208 28 202 c 2
 28 -51 l 1
EndSplineSet
EndChar

StartChar: Odieresis
Encoding: 214 214 178
Width: 634
Flags: W
HStem: -360 145<28 606> -133 172<273 361>
VStem: 0 28<-214.682 51> 273 88<-133 39> 606 28<-215 51>
LayerCount: 2
Fore
SplineSet
273 -133 m 1
 273 39 l 1
 361 39 l 1
 361 -133 l 1
 273 -133 l 1
606 51 m 1
 634 51 l 1
 634 -360 l 1
 0 -360 l 1
 0 51 l 1
 28 51 l 1
 28 -199 l 2
 28 -208 39 -215 44 -215 c 2
 594 -215 l 2
 598 -215 606 -208 606 -202 c 2
 606 51 l 1
EndSplineSet
EndChar

StartChar: Oslash
Encoding: 216 216 179
Width: 634
Flags: W
HStem: -360 145<28 276 364 606>
VStem: 0 28<-214.682 51> 276 88<-215 -46> 606 28<-215 51>
LayerCount: 2
Fore
SplineSet
606 51 m 1
 634 51 l 1
 634 -360 l 1
 0 -360 l 1
 0 51 l 1
 28 51 l 1
 28 -199 l 2
 28 -208 39 -215 44 -215 c 2
 259 -215 l 2
 266 -215 276 -208 276 -198 c 2
 276 -46 l 1
 364 -46 l 1
 364 -198 l 2
 364 -206 372 -215 382 -215 c 2
 594 -215 l 2
 598 -215 606 -208 606 -202 c 2
 606 51 l 1
EndSplineSet
EndChar

StartChar: Ugrave
Encoding: 217 217 180
Width: 706
Flags: W
HStem: -47 132<199.303 296.697 409.303 506.697> 241 142<240.808 465.192>
VStem: 0 29<-51 47.1094> 182 132<-29.6965 67.6965> 392 132<-29.6965 67.6965> 677 29<-51 47.1094>
LayerCount: 2
Fore
SplineSet
182 19 m 0
 182 55 212 85 248 85 c 0
 284 85 314 55 314 19 c 0
 314 -17 284 -47 248 -47 c 0
 212 -47 182 -17 182 19 c 0
677 -51 m 1
 677 89 603 241 353 241 c 0
 103 241 29 89 29 -51 c 1
 0 -51 l 1
 0 189 143 383 353 383 c 0
 563 383 706 189 706 -51 c 1
 677 -51 l 1
392 19 m 0
 392 55 422 85 458 85 c 0
 494 85 524 55 524 19 c 0
 524 -17 494 -47 458 -47 c 0
 422 -47 392 -17 392 19 c 0
EndSplineSet
EndChar

StartChar: Uacute
Encoding: 218 218 181
Width: 706
Flags: W
HStem: -383 142<240.808 465.192> -85 132<199.303 296.697 409.303 506.697>
VStem: 0 29<-47.1094 51> 182 132<-67.6965 29.6965> 392 132<-67.6965 29.6965> 677 29<-47.1094 51>
LayerCount: 2
Fore
SplineSet
524 -19 m 0
 524 -55 494 -85 458 -85 c 0
 422 -85 392 -55 392 -19 c 0
 392 17 422 47 458 47 c 0
 494 47 524 17 524 -19 c 0
29 51 m 1
 29 -89 103 -241 353 -241 c 0
 603 -241 677 -89 677 51 c 1
 706 51 l 1
 706 -189 563 -383 353 -383 c 0
 143 -383 0 -189 0 51 c 1
 29 51 l 1
314 -19 m 0
 314 -55 284 -85 248 -85 c 0
 212 -85 182 -55 182 -19 c 0
 182 17 212 47 248 47 c 0
 284 47 314 17 314 -19 c 0
EndSplineSet
EndChar

StartChar: Ucircumflex
Encoding: 219 219 182
Width: 634
Flags: W
HStem: -47 132<163.303 260.697 373.303 470.697> 215 145<28 606>
VStem: 0 28<-51 215> 146 132<-29.6965 67.6965> 356 132<-29.6965 67.6965> 606 28<-51 214.682>
LayerCount: 2
Fore
SplineSet
146 19 m 0
 146 55 176 85 212 85 c 0
 248 85 278 55 278 19 c 0
 278 -17 248 -47 212 -47 c 0
 176 -47 146 -17 146 19 c 0
356 19 m 0
 356 55 386 85 422 85 c 0
 458 85 488 55 488 19 c 0
 488 -17 458 -47 422 -47 c 0
 386 -47 356 -17 356 19 c 0
28 -51 m 1
 0 -51 l 1
 0 360 l 1
 634 360 l 1
 634 -51 l 1
 606 -51 l 1
 606 199 l 2
 606 208 595 215 590 215 c 2
 40 215 l 2
 36 215 28 208 28 202 c 2
 28 -51 l 1
EndSplineSet
EndChar

StartChar: Udieresis
Encoding: 220 220 183
Width: 634
Flags: W
HStem: -360 145<28 606> -85 132<163.303 260.697 373.303 470.697>
VStem: 0 28<-214.682 51> 146 132<-67.6965 29.6965> 356 132<-67.6965 29.6965> 606 28<-215 51>
LayerCount: 2
Fore
SplineSet
488 -19 m 0
 488 -55 458 -85 422 -85 c 0
 386 -85 356 -55 356 -19 c 0
 356 17 386 47 422 47 c 0
 458 47 488 17 488 -19 c 0
278 -19 m 0
 278 -55 248 -85 212 -85 c 0
 176 -85 146 -55 146 -19 c 0
 146 17 176 47 212 47 c 0
 248 47 278 17 278 -19 c 0
606 51 m 1
 634 51 l 1
 634 -360 l 1
 0 -360 l 1
 0 51 l 1
 28 51 l 1
 28 -199 l 2
 28 -208 39 -215 44 -215 c 2
 594 -215 l 2
 598 -215 606 -208 606 -202 c 2
 606 51 l 1
EndSplineSet
EndChar

StartChar: Yacute
Encoding: 221 221 184
Width: 834
Flags: W
HStem: -47 132<268.303 365.697 468.303 565.697> 404 20G<396.609 437.391>
VStem: 251 132<-29.6965 67.6965> 451 132<-29.6965 67.6965>
LayerCount: 2
Fore
SplineSet
251 19 m 0
 251 55 281 85 317 85 c 0
 353 85 383 55 383 19 c 0
 383 -17 353 -47 317 -47 c 0
 281 -47 251 -17 251 19 c 0
451 19 m 0
 451 55 481 85 517 85 c 0
 553 85 583 55 583 19 c 0
 583 -17 553 -47 517 -47 c 0
 481 -47 451 -17 451 19 c 0
417 424 m 1
 834 15 l 1
 818 -6 l 1
 417 246 l 1
 16 -6 l 1
 0 15 l 1
 417 424 l 1
EndSplineSet
EndChar

StartChar: Thorn
Encoding: 222 222 185
Width: 834
Flags: W
HStem: -85 132<-565.697 -468.303 -365.697 -268.303>
VStem: -583 132<-67.6965 29.6965> -383 132<-67.6965 29.6965>
LayerCount: 2
Fore
SplineSet
-251 -19 m 0
 -251 -55 -281 -85 -317 -85 c 0
 -353 -85 -383 -55 -383 -19 c 0
 -383 17 -353 47 -317 47 c 0
 -281 47 -251 17 -251 -19 c 0
-451 -19 m 0
 -451 -55 -481 -85 -517 -85 c 0
 -553 -85 -583 -55 -583 -19 c 0
 -583 17 -553 47 -517 47 c 0
 -481 47 -451 17 -451 -19 c 0
-417 -424 m 1
 -834 -15 l 1
 -818 6 l 1
 -417 -246 l 1
 -16 6 l 1
 0 -15 l 1
 -417 -424 l 1
EndSplineSet
EndChar

StartChar: germandbls
Encoding: 223 223 186
Width: 713
Flags: W
HStem: -358 31<259.169 454.745> -16 31<92.8899 179.601 218.497 339.94 375.136 496.75 537.095 623.996> 327 31<259.169 451.251>
VStem: -0 31<-97.916 101.62> 341 32<-265.961 -177.973 -138.51 -18.4324 16.5436 139.854 178.788 265.458> 682 31<-97.916 96.2449>
LayerCount: 2
Fore
SplineSet
373 113 m 0
 373 44 l 0
 373 25 382 14 400 14 c 0
 466 14 l 0
 491 14 503 26 495 48 c 0
 481 88 450 123 407 138 c 0
 385 146 373 137 373 113 c 0
471 -16 m 0
 394 -16 l 0
 380 -16 372 -27 372 -41 c 0
 372 -108 l 0
 372 -134 383 -144 407 -137 c 0
 448 -122 481 -89 496 -48 c 0
 502 -29 493 -17 471 -16 c 0
525 -60 m 0
 506 -112 463 -153 410 -169 c 0
 383 -176 373 -188 373 -213 c 0
 373 -242 l 0
 373 -261 371 -266 359 -266 c 0
 347 -266 341 -263 341 -240 c 0
 341 -203 l 0
 341 -183 327 -175 305 -169 c 0
 249 -152 205 -108 189 -51 c 0
 183 -31 173 -17 150 -17 c 0
 129 -17 l 0
 93 -17 92 -14 92 -2 c 0
 92 0 l 0
 92 12 100 16 123 16 c 0
 153 16 l 0
 173 16 182 29 187 49 c 0
 202 113 246 155 304 170 c 0
 331 177 341 189 341 214 c 0
 341 246 l 0
 341 260 347 266 355 266 c 0
 358 266 l 0
 371 266 374 262 374 244 c 0
 374 211 l 0
 374 187 383 177 409 170 c 0
 470 153 513 108 528 49 c 0
 534 29 543 15 564 15 c 0
 600 15 l 0
 619 15 624 12 624 0 c 0
 624 -14 621 -18 598 -18 c 0
 564 -18 l 0
 539 -18 533 -35 525 -60 c 0
241 16 m 0
 277 16 308 15 315 15 c 0
 332 15 342 26 342 38 c 0
 342 109 l 0
 342 134 331 146 307 138 c 0
 264 123 231 89 218 44 c 0
 213 27 220 16 241 16 c 0
220 -46 m 0
 234 -89 268 -123 310 -138 c 0
 331 -145 341 -133 341 -109 c 0
 341 -77 342 -50 342 -42 c 0
 342 -25 330 -16 309 -16 c 0
 308 -16 280 -17 246 -17 c 0
 224 -17 213 -28 220 -46 c 0
31 0 m 0
 31 -180 177 -327 357 -327 c 0
 537 -327 682 -180 682 0 c 0
 682 171 549 327 357 327 c 0
 177 327 31 197 31 0 c 0
-0 0 m 0
 0 229 157 358 357 358 c 0
 572 358 713 200 713 0 c 0
 713 -200 557 -358 357 -358 c 0
 157 -358 0 -200 -0 0 c 0
EndSplineSet
EndChar

StartChar: agrave
Encoding: 224 224 187
Width: 644
Flags: W
HStem: -323 31<230.728 413.233> -16 31<77.8899 144.601 183.497 304.94 340.136 461.75 502.095 568.996> 292 31<226.901 414.157>
VStem: -1 31<-91.2724 98.7715> 306 32<-245.961 -177.973 -138.51 -18.4324 16.5436 139.854 178.788 245.458> 614 30<-87.864 89.7246>
LayerCount: 2
Fore
SplineSet
338 113 m 0
 338 44 l 0
 338 25 347 14 365 14 c 0
 431 14 l 0
 456 14 468 26 460 48 c 0
 446 88 415 123 372 138 c 0
 350 146 338 137 338 113 c 0
436 -16 m 0
 359 -16 l 0
 345 -16 337 -27 337 -41 c 0
 337 -108 l 0
 337 -134 348 -144 372 -137 c 0
 413 -122 446 -89 461 -48 c 0
 467 -29 458 -17 436 -16 c 0
490 -60 m 0
 471 -112 428 -153 375 -169 c 0
 348 -176 338 -188 338 -213 c 0
 338 -222 l 0
 338 -241 336 -246 324 -246 c 0
 312 -246 306 -243 306 -220 c 0
 306 -203 l 0
 306 -183 292 -175 270 -169 c 0
 214 -152 170 -108 154 -51 c 0
 148 -31 138 -17 115 -17 c 0
 114 -17 l 0
 78 -17 77 -14 77 -2 c 0
 77 0 l 0
 77 12 85 16 108 16 c 0
 118 16 l 0
 138 16 147 29 152 49 c 0
 167 113 211 155 269 170 c 0
 296 177 306 189 306 214 c 0
 306 226 l 0
 306 240 312 246 320 246 c 0
 323 246 l 0
 336 246 339 242 339 224 c 0
 339 211 l 0
 339 187 348 177 374 170 c 0
 435 153 478 108 493 49 c 0
 499 29 508 15 529 15 c 0
 545 15 l 0
 564 15 569 12 569 0 c 0
 569 -14 566 -18 543 -18 c 0
 529 -18 l 0
 504 -18 498 -35 490 -60 c 0
206 16 m 0
 242 16 273 15 280 15 c 0
 297 15 307 26 307 38 c 0
 307 109 l 0
 307 134 296 146 272 138 c 0
 229 123 196 89 183 44 c 0
 178 27 185 16 206 16 c 0
185 -46 m 0
 199 -89 233 -123 275 -138 c 0
 296 -145 306 -133 306 -109 c 0
 306 -77 307 -50 307 -42 c 0
 307 -25 295 -16 274 -16 c 0
 273 -16 245 -17 211 -17 c 0
 189 -17 178 -28 185 -46 c 0
30 0 m 0
 30 -161 161 -292 322 -292 c 0
 483 -292 614 -161 614 0 c 0
 614 153 493 292 322 292 c 0
 161 292 30 176 30 0 c 0
-1 0 m 0
 -1 206 142 323 322 323 c 0
 516 323 644 180 644 0 c 0
 644 -180 502 -323 322 -323 c 0
 142 -323 -1 -180 -1 0 c 0
EndSplineSet
EndChar

StartChar: aacute
Encoding: 225 225 188
Width: 792
Flags: W
HStem: -16 31<0.889893 65.1428 112.521 217.601 256.497 377.94 413.136 534.75 575.095 673.513 723.064 791.996> 376 20G<389 402.5>
VStem: 379 32<-395.961 -329.507 -280.162 -177.973 -138.51 -18.4324 16.5436 139.854 178.788 284.46 328.562 395.458>
LayerCount: 2
Fore
SplineSet
258 -46 m 0
 272 -89 306 -123 348 -138 c 0
 369 -145 379 -133 379 -109 c 0
 379 -77 380 -50 380 -42 c 0
 380 -25 368 -16 347 -16 c 0
 346 -16 318 -17 284 -17 c 0
 262 -17 251 -28 258 -46 c 0
279 16 m 0
 315 16 346 15 353 15 c 0
 370 15 380 26 380 38 c 0
 380 109 l 0
 380 134 369 146 345 138 c 0
 302 123 269 89 256 44 c 0
 251 27 258 16 279 16 c 0
563 -60 m 0
 544 -112 501 -153 448 -169 c 0
 421 -176 411 -188 411 -213 c 0
 411 -246 l 0
 411 -278 422 -293 456 -286 c 0
 568 -262 656 -174 680 -62 c 0
 687 -30 676 -18 644 -18 c 0
 602 -18 l 0
 577 -18 571 -35 563 -60 c 0
509 -16 m 0
 432 -16 l 0
 418 -16 410 -27 410 -41 c 0
 410 -108 l 0
 410 -134 421 -144 445 -137 c 0
 486 -122 519 -89 534 -48 c 0
 540 -29 531 -17 509 -16 c 0
411 113 m 0
 411 44 l 0
 411 25 420 14 438 14 c 0
 504 14 l 0
 529 14 541 26 533 48 c 0
 519 88 488 123 445 138 c 0
 423 146 411 137 411 113 c 0
712 -58 m 0
 689 -188 590 -290 461 -316 c 0
 432 -322 411 -329 411 -363 c 0
 411 -372 l 0
 411 -391 409 -396 397 -396 c 0
 385 -396 379 -393 379 -370 c 0
 379 -364 l 0
 379 -326 350 -321 321 -315 c 0
 195 -286 98 -184 77 -56 c 0
 73 -33 65 -17 41 -17 c 0
 37 -17 l 0
 1 -17 0 -14 0 -2 c 0
 0 0 l 0
 0 12 8 16 31 16 c 0
 37 16 l 0
 61 16 72 34 76 60 c 0
 98 206 200 296 331 318 c 0
 361 323 379 330 379 363 c 0
 379 376 l 0
 379 390 385 396 393 396 c 0
 396 396 l 0
 409 396 412 392 412 374 c 0
 412 362 l 0
 412 340 424 323 449 319 c 0
 589 299 685 199 710 69 c 0
 716 42 721 15 754 15 c 0
 768 15 l 0
 787 15 792 12 792 0 c 0
 792 -14 789 -18 766 -18 c 0
 754 -18 l 0
 726 -18 716 -33 712 -58 c 0
679 68 m 0
 653 176 567 266 449 287 c 0
 423 292 412 278 412 250 c 0
 412 211 l 0
 412 187 421 177 447 170 c 0
 508 153 551 108 566 49 c 0
 572 29 581 15 602 15 c 0
 635 15 l 0
 667 15 688 33 679 68 c 0
336 287 m 0
 221 265 131 182 108 60 c 0
 104 34 112 16 142 16 c 0
 191 16 l 0
 211 16 220 29 225 49 c 0
 240 113 284 155 342 170 c 0
 369 177 379 189 379 214 c 0
 379 245 l 0
 379 274 370 293 336 287 c 0
110 -62 m 0
 133 -171 219 -258 328 -284 c 0
 362 -292 379 -274 379 -244 c 0
 379 -203 l 0
 379 -183 365 -175 343 -169 c 0
 287 -152 243 -108 227 -51 c 0
 221 -31 211 -17 188 -17 c 0
 143 -17 l 0
 113 -17 104 -37 110 -62 c 0
EndSplineSet
EndChar

StartChar: acircumflex
Encoding: 226 226 189
Width: 532
Flags: W
HStem: -16 31<0.889893 87.6013 126.497 247.94 283.136 404.75 444.941 531.996>
VStem: 249 32<-265.961 -177.973 -138.51 -18.4324 16.5436 139.854 178.788 265.735>
LayerCount: 2
Fore
SplineSet
281 113 m 0
 281 44 l 0
 281 25 290 14 308 14 c 0
 374 14 l 0
 399 14 411 26 403 48 c 0
 389 88 358 123 315 138 c 0
 293 146 281 137 281 113 c 0
379 -16 m 0
 302 -16 l 0
 288 -16 280 -27 280 -41 c 0
 280 -108 l 0
 280 -134 291 -144 315 -137 c 0
 356 -122 389 -89 404 -48 c 0
 410 -29 401 -17 379 -16 c 0
433 -60 m 0
 414 -112 371 -153 318 -169 c 0
 291 -176 281 -188 281 -213 c 0
 281 -242 l 0
 281 -261 279 -266 267 -266 c 0
 255 -266 249 -263 249 -240 c 0
 249 -203 l 0
 249 -183 235 -175 213 -169 c 0
 157 -152 113 -108 97 -51 c 0
 91 -31 81 -17 58 -17 c 0
 37 -17 l 0
 1 -17 0 -14 0 -2 c 0
 0 0 l 0
 0 12 8 16 31 16 c 0
 61 16 l 0
 81 16 90 29 95 49 c 0
 110 113 154 155 212 170 c 0
 239 177 249 189 249 214 c 0
 249 230 l 0
 249 266 255 266 263 266 c 0
 266 266 l 0
 279 266 282 262 282 244 c 0
 282 211 l 0
 282 187 291 177 317 170 c 0
 378 153 421 108 436 49 c 0
 442 29 451 15 472 15 c 0
 508 15 l 0
 527 15 532 12 532 0 c 0
 532 -14 529 -18 506 -18 c 0
 498 -18 486 -18 472 -17 c 0
 447 -17 441 -35 433 -60 c 0
149 16 m 0
 185 16 216 15 223 15 c 0
 240 15 250 26 250 38 c 0
 250 109 l 0
 250 134 239 146 215 138 c 0
 172 123 139 89 126 44 c 0
 121 27 128 16 149 16 c 0
128 -46 m 0
 142 -89 176 -123 218 -138 c 0
 239 -145 249 -133 249 -109 c 0
 249 -77 250 -50 250 -42 c 0
 250 -25 238 -16 217 -16 c 0
 216 -16 188 -17 154 -17 c 0
 132 -17 121 -28 128 -46 c 0
EndSplineSet
EndChar

StartChar: atilde
Encoding: 227 227 190
Width: 532
Flags: W
HStem: -224 31<0.889893 87.6013 126.513 247.94 283.136 404.75 444.941 531.996> 193 31<0.889893 87.6013 126.513 247.94 283.136 404.75 444.941 531.996> 455 20G<259 272.5>
VStem: 249 32.092<-474.735 -387.83 -348.934 -225.544 -190.568 -70.2343 -31.0268 31.0268 70.2343 190.568 225.544 348.934 387.83 474.735>
LayerCount: 2
Fore
SplineSet
128 163 m 0
 142 120 176 86 218 71 c 0
 239 64 249 76 249 100 c 0
 249 132 250 159 250 167 c 0
 250 184 238 193 217 193 c 0
 216 193 188 192 154 192 c 0
 132 192 121 181 128 163 c 0
149 225 m 0
 185 225 216 224 223 224 c 0
 240 224 250 235 250 247 c 0
 250 318 l 0
 250 343 239 355 215 347 c 0
 172 332 139.108 297.968 126 253 c 0
 121.041 235.988 128 225 149 225 c 0
433 149 m 0
 414 97 371 56 318 40 c 0
 292.482 33.3841 281.092 21.2256 281.092 -0.0004 c 0
 281.092 -21.2266 292.482 -33.3842 318 -40 c 0
 371 -56 414 -97 433 -149 c 0
 441 -174 447 -192 472 -192 c 0
 486 -191 498 -191 506 -191 c 0
 529 -191 532 -195 532 -209 c 0
 532 -221 527 -224 508 -224 c 0
 472 -224 l 0
 451 -224 442 -238 436 -258 c 0
 421 -317 378 -362 317 -379 c 0
 291.063 -386.228 282 -396 282 -420 c 0
 282 -453 l 0
 282 -471 279 -475 266 -475 c 0
 263 -475 l 0
 255 -475 249 -475 249 -439 c 0
 249 -423 l 0
 249 -398 239 -386 212 -379 c 0
 154.009 -363.965 110 -322 95 -258 c 0
 90 -238 81 -225 61 -225 c 0
 31 -225 l 0
 8 -225 0 -221 0 -209 c 0
 0 -207 l 0
 0 -195 1 -192 37 -192 c 0
 58 -192 l 0
 81 -192 91 -178 97 -158 c 0
 113 -101 157 -57 213 -40 c 0
 235 -34 249 -26 249 -6 c 0
 249 6 l 0
 249 26 235 34 213 40 c 0
 157 57 113 101 97 158 c 0
 91 178 81 192 58 192 c 0
 37 192 l 0
 1 192 0 195 0 207 c 0
 0 209 l 0
 0 221 8 225 31 225 c 0
 61 225 l 0
 81 225 90 238 95 258 c 0
 110 322 154.009 363.965 212 379 c 0
 239 386 249 398 249 423 c 0
 249 439 l 0
 249 475 255 475 263 475 c 0
 266 475 l 0
 279 475 282 471 282 453 c 0
 282 420 l 0
 282 396 291.063 386.228 317 379 c 0
 378 362 421 317 436 258 c 0
 442 238 451 224 472 224 c 0
 508 224 l 0
 527 224 532 221 532 209 c 0
 532 195 529 191 506 191 c 0
 498 191 486 191 472 192 c 0
 447 192 441 174 433 149 c 0
379 193 m 0
 302 193 l 0
 288 193 280 182 280 168 c 0
 280 101 l 0
 280 75 291 65 315 72 c 0
 356 87 389 120 404 161 c 0
 410 180 401 192 379 193 c 0
281 322 m 0
 281 253 l 0
 281 234 290 223 308 223 c 0
 374 223 l 0
 399 223 411 235 403 257 c 0
 389 297 358 332 315 347 c 0
 293 355 281 346 281 322 c 0
128 -163 m 0
 121 -181 132 -192 154 -192 c 0
 188 -192 216 -193 217 -193 c 0
 238 -193 250 -184 250 -167 c 0
 250 -159 249 -132 249 -100 c 0
 249 -76 239 -64 218 -71 c 0
 176 -86 142 -120 128 -163 c 0
149 -225 m 0
 128 -225 121.041 -235.988 126 -253 c 0
 139.108 -297.968 172 -332 215 -347 c 0
 239 -355 250 -343 250 -318 c 0
 250 -247 l 0
 250 -235 240 -224 223 -224 c 0
 216 -224 185 -225 149 -225 c 0
379 -193 m 0
 401 -192 410 -180 404 -161 c 0
 389 -120 356 -87 315 -72 c 0
 291 -65 280 -75 280 -101 c 0
 280 -168 l 0
 280 -182 288 -193 302 -193 c 0
 379 -193 l 0
281 -322 m 0
 281 -346 293 -355 315 -347 c 0
 358 -332 389 -297 403 -257 c 0
 411 -235 399 -223 374 -223 c 0
 308 -223 l 0
 290 -223 281 -234 281 -253 c 0
 281 -322 l 0
EndSplineSet
EndChar

StartChar: adieresis
Encoding: 228 228 191
Width: 950
Flags: W
HStem: -15 32<0.265114 87.2118 126.146 249.456 284.432 404.51 444.154 505.846 545.49 665.568 700.544 823.854 862.788 949.735>
VStem: 251 31<-265.996 -178.941 -138.75 -17.1357 18.0605 139.503 178.399 265.11> 668 31<-265.996 -178.941 -138.75 -17.1357 18.0605 139.503 178.399 265.11>
LayerCount: 2
Fore
SplineSet
638 138 m 0
 595 124 561 90 546 48 c 0
 539 27 551 17 575 17 c 0
 607 17 634 16 642 16 c 0
 659 16 668 28 668 49 c 0
 668 50 667 78 667 112 c 0
 667 134 656 145 638 138 c 0
700 117 m 0
 700 81 699 50 699 43 c 0
 699 26 710 16 722 16 c 0
 793 16 l 0
 818 16 830 27 822 51 c 0
 807 94 773 127 728 140 c 0
 711 145 700 138 700 117 c 0
624 -167 m 0
 572 -148 531 -105 515 -52 c 0
 508 -26 496 -15 475 -15 c 0
 454 -15 442 -26 435 -52 c 0
 419 -105 378 -148 326 -167 c 0
 301 -175 283 -181 283 -206 c 0
 284 -220 284 -232 284 -240 c 0
 284 -263 280 -266 266 -266 c 0
 254 -266 251 -261 251 -242 c 0
 251 -206 l 0
 251 -185 237 -176 217 -170 c 0
 158 -155 113 -112 96 -51 c 0
 89 -25 79 -16 55 -16 c 0
 22 -16 l 0
 4 -16 0 -13 0 0 c 0
 0 3 l 0
 0 11 0 17 36 17 c 0
 52 17 l 0
 77 17 89 27 96 54 c 0
 111 112 153 156 217 171 c 0
 237 176 250 185 250 205 c 0
 250 235 l 0
 250 258 254 266 266 266 c 0
 268 266 l 0
 280 266 283 265 283 229 c 0
 283 208 l 0
 283 185 297 175 317 169 c 0
 374 153 418 109 435 53 c 0
 441 31 449 17 469 17 c 0
 481 17 l 0
 501 17 509 31 515 53 c 0
 532 109 576 153 633 169 c 0
 653 175 667 185 667 208 c 0
 667 229 l 0
 667 265 670 266 682 266 c 0
 684 266 l 0
 696 266 700 258 700 235 c 0
 700 205 l 0
 700 185 713 176 733 171 c 0
 797 156 839 112 854 54 c 0
 861 27 873 17 898 17 c 0
 914 17 l 0
 950 17 950 11 950 3 c 0
 950 0 l 0
 950 -13 946 -16 928 -16 c 0
 895 -16 l 0
 871 -16 861 -25 854 -51 c 0
 837 -112 792 -155 733 -170 c 0
 713 -176 699 -185 699 -206 c 0
 699 -242 l 0
 699 -261 696 -266 684 -266 c 0
 670 -266 666 -263 666 -240 c 0
 666 -232 666 -220 667 -206 c 0
 667 -181 649 -175 624 -167 c 0
668 -113 m 0
 668 -36 l 0
 668 -22 657 -14 643 -14 c 0
 576 -14 l 0
 550 -14 540 -25 547 -49 c 0
 562 -90 595 -123 636 -138 c 0
 655 -144 667 -135 668 -113 c 0
797 -15 m 0
 728 -15 l 0
 709 -15 698 -24 698 -42 c 0
 698 -108 l 0
 698 -133 710 -145 732 -137 c 0
 772 -123 807 -92 822 -49 c 0
 830 -27 821 -15 797 -15 c 0
312 138 m 0
 294 145 283 134 283 112 c 0
 283 78 282 50 282 49 c 0
 282 28 291 16 308 16 c 0
 316 16 343 17 375 17 c 0
 399 17 411 27 404 48 c 0
 389 90 355 124 312 138 c 0
250 117 m 0
 250 138 239 145 222 140 c 0
 177 127 143 94 128 51 c 0
 120 27 132 16 157 16 c 0
 228 16 l 0
 240 16 251 26 251 43 c 0
 251 50 250 81 250 117 c 0
282 -113 m 0
 283 -135 295 -144 314 -138 c 0
 355 -123 388 -90 403 -49 c 0
 410 -25 400 -14 374 -14 c 0
 307 -14 l 0
 293 -14 282 -22 282 -36 c 0
 282 -113 l 0
153 -15 m 0
 129 -15 120 -27 128 -49 c 0
 143 -92 178 -123 218 -137 c 0
 240 -145 252 -133 252 -108 c 0
 252 -42 l 0
 252 -24 241 -15 222 -15 c 0
 153 -15 l 0
EndSplineSet
EndChar

StartChar: aring
Encoding: 229 229 192
Width: 532
Flags: W
HStem: -16 31<0.889893 87.6013 126.619 247.94 283.136 404.312 444.941 531.996> 391 20G<260 272>
VStem: 249 32<-265.961 -177.973 -138.529 -18.4324 16.5436 139.378 178.788 274.991>
LayerCount: 2
Fore
SplineSet
128 -46 m 0
 142 -89 176 -123 218 -138 c 0
 222 -139 226 -140 229 -140 c 0
 242 -140 249 -128 249 -109 c 0
 249 -77 250 -50 250 -42 c 0
 250 -25 238 -16 217 -16 c 0
 216 -16 188 -17 154 -17 c 0
 136 -17 126 -24 126 -36 c 0
 126 -39 127 -42 128 -46 c 0
149 16 m 0
 185 16 216 15 223 15 c 0
 240 15 250 26 250 38 c 0
 250 109 l 0
 250 129 243 140 228 140 c 0
 224 140 220 140 215 138 c 0
 172 123 139 89 126 44 c 0
 125 41 124 37 124 34 c 0
 124 23 132 16 149 16 c 0
433 -60 m 0
 414 -112 371 -153 318 -169 c 0
 291 -176 281 -188 281 -213 c 0
 281 -242 l 0
 281 -261 279 -266 267 -266 c 0
 255 -266 249 -263 249 -240 c 0
 249 -203 l 0
 249 -183 235 -175 213 -169 c 0
 157 -152 113 -108 97 -51 c 0
 91 -31 81 -17 58 -17 c 0
 37 -17 l 0
 1 -17 0 -14 0 -2 c 0
 0 0 l 0
 0 12 8 16 31 16 c 0
 61 16 l 0
 81 16 90 29 95 49 c 0
 110 113 154 155 212 170 c 0
 239 177 249 189 249 214 c 0
 249 244 l 0
 249 268 244 275 236 275 c 0
 224 275 205 257 187 257 c 0
 185 257 181 259 181 264 c 0
 181 274 191 283 225 342 c 0
 253 391 255 411 265 411 c 0
 279 411 277 392 305 341 c 0
 335 287 347 276 347 264 c 0
 347 258 341 257 339 257 c 0
 324 257 306 276 295 276 c 0
 287 276 282 267 282 240 c 0
 282 211 l 0
 282 187 291 177 317 170 c 0
 378 153 421 108 436 49 c 0
 442 29 451 15 472 15 c 0
 508 15 l 0
 527 15 532 12 532 0 c 0
 532 -14 529 -18 506 -18 c 0
 498 -18 486 -18 472 -17 c 0
 447 -17 441 -35 433 -60 c 0
379 -16 m 0
 302 -16 l 0
 288 -16 280 -27 280 -41 c 0
 280 -108 l 0
 280 -129 287 -139 302 -139 c 0
 306 -139 310 -138 315 -137 c 0
 356 -122 389 -89 404 -48 c 0
 405 -44 406 -41 406 -37 c 0
 406 -25 397 -17 379 -16 c 0
281 113 m 0
 281 44 l 0
 281 25 290 14 308 14 c 0
 374 14 l 0
 394 14 405 22 405 36 c 0
 405 39 405 43 403 48 c 0
 389 88 358 123 315 138 c 0
 310 140 305 141 301 141 c 0
 288 141 281 131 281 113 c 0
EndSplineSet
EndChar

StartChar: ae
Encoding: 230 230 193
Width: 532
Flags: W
HStem: -15 31<0.00369644 87.059 127.688 248.864 284.06 405.381 444.399 531.11>
VStem: 251 31<-274.991 -179.855 -139.035 -17.141 18.9785 138.33 178.316 265.966>
LayerCount: 2
Fore
SplineSet
404 46 m 0
 390 89 356 123 314 138 c 0
 310 139 306 140 303 140 c 0
 290 140 283 128 283 109 c 0
 283 77 282 50 282 42 c 0
 282 25 294 16 315 16 c 0
 316 16 344 17 378 17 c 0
 396 17 406 24 406 36 c 0
 406 39 405 42 404 46 c 0
383 -16 m 0
 347 -16 316 -15 309 -15 c 0
 292 -15 282 -26 282 -38 c 0
 282 -109 l 0
 282 -129 289 -140 304 -140 c 0
 308 -140 312 -140 317 -138 c 0
 360 -123 393 -89 406 -44 c 0
 407 -41 408 -37 408 -34 c 0
 408 -23 400 -16 383 -16 c 0
99 60 m 0
 118 112 161 153 214 169 c 0
 241 176 251 188 251 213 c 0
 251 242 l 0
 251 261 253 266 265 266 c 0
 277 266 283 263 283 240 c 0
 283 203 l 0
 283 183 297 175 319 169 c 0
 375 152 419 108 435 51 c 0
 441 31 451 17 474 17 c 0
 495 17 l 0
 531 17 532 14 532 2 c 0
 532 0 l 0
 532 -12 524 -16 501 -16 c 0
 471 -16 l 0
 451 -16 442 -29 437 -49 c 0
 422 -113 378 -155 320 -170 c 0
 293 -177 283 -189 283 -214 c 0
 283 -244 l 0
 283 -268 288 -275 296 -275 c 0
 308 -275 327 -257 345 -257 c 0
 347 -257 351 -259 351 -264 c 0
 351 -274 341 -283 307 -342 c 0
 279 -391 277 -411 267 -411 c 0
 253 -411 255 -392 227 -341 c 0
 197 -287 185 -276 185 -264 c 0
 185 -258 191 -257 193 -257 c 0
 208 -257 226 -276 237 -276 c 0
 245 -276 250 -267 250 -240 c 0
 250 -211 l 0
 250 -187 241 -177 215 -170 c 0
 154 -153 111 -108 96 -49 c 0
 90 -29 81 -15 60 -15 c 0
 24 -15 l 0
 5 -15 0 -12 0 0 c 0
 0 14 3 18 26 18 c 0
 34 18 46 18 60 17 c 0
 85 17 91 35 99 60 c 0
153 16 m 0
 230 16 l 0
 244 16 252 27 252 41 c 0
 252 108 l 0
 252 129 245 139 230 139 c 0
 226 139 222 138 217 137 c 0
 176 122 143 89 128 48 c 0
 127 44 126 41 126 37 c 0
 126 25 135 17 153 16 c 0
251 -113 m 0
 251 -44 l 0
 251 -25 242 -14 224 -14 c 0
 158 -14 l 0
 138 -14 127 -22 127 -36 c 0
 127 -39 127 -43 129 -48 c 0
 143 -88 174 -123 217 -138 c 0
 222 -140 227 -141 231 -141 c 0
 244 -141 251 -131 251 -113 c 0
EndSplineSet
EndChar

StartChar: ccedilla
Encoding: 231 231 194
Width: 532
Flags: W
HStem: -16 30<0.889893 86.4565 283.637 404.284 445.095 531.985>
VStem: 249 32<-265.961 -177.973 178.788 265.735>
LayerCount: 2
Fore
SplineSet
281 113 m 0
 281 44 l 0
 281 25 290 14 308 14 c 0
 374 14 l 0
 399 14 411 26 403 48 c 0
 389 88 358 123 315 138 c 0
 293 146 281 137 281 113 c 0
379 -16 m 0
 302 -16 l 0
 288 -16 280 -27 280 -41 c 0
 280 -108 l 0
 280 -134 291 -144 315 -137 c 0
 356 -122 389 -89 404 -48 c 0
 410 -29 401 -17 379 -16 c 0
433 -60 m 0
 414 -112 371 -153 318 -169 c 0
 291 -176 281 -188 281 -213 c 0
 281 -242 l 0
 281 -261 279 -266 267 -266 c 0
 255 -266 249 -263 249 -240 c 0
 249 -203 l 0
 249 -183 235 -175 213 -169 c 0
 157 -152 113 -108 97 -51 c 0
 91 -31 81 -17 58 -17 c 0
 37 -17 l 0
 1 -17 0 -14 0 -2 c 0
 0 0 l 0
 0 12 8 16 31 16 c 0
 61 16 l 0
 81 16 90 29 95 49 c 0
 110 113 154 155 212 170 c 0
 239 177 249 189 249 214 c 0
 249 230 l 0
 249 266 255 266 263 266 c 0
 266 266 l 0
 279 266 282 262 282 244 c 0
 282 211 l 0
 282 187 291 177 317 170 c 0
 378 153 421 108 436 49 c 0
 442 29 451 15 472 15 c 0
 508 15 l 0
 527 15 532 12 532 0 c 0
 532 -14 529 -18 506 -18 c 0
 498 -18 486 -18 472 -17 c 0
 447 -17 441 -35 433 -60 c 0
EndSplineSet
EndChar

StartChar: egrave
Encoding: 232 232 195
Width: 532
Flags: W
HStem: -17 32<0.494076 87.6013 126.229 248.54 443.634 531.985>
VStem: 249 33<-265.966 -176.766 178.271 265.735>
LayerCount: 2
Fore
SplineSet
433 -60 m 0
 414 -112 371 -153 318 -169 c 0
 291 -176 281 -188 281 -213 c 0
 281 -242 l 0
 281 -261 279 -266 267 -266 c 0
 255 -266 249 -263 249 -240 c 0
 249 -203 l 0
 249 -183 235 -175 213 -169 c 0
 157 -152 113 -108 97 -51 c 0
 91 -31 81 -17 58 -17 c 0
 37 -17 l 0
 1 -17 0 -14 0 -2 c 0
 0 0 l 0
 0 12 8 16 31 16 c 0
 61 16 l 0
 81 16 90 29 95 49 c 0
 110 113 154 155 212 170 c 0
 239 177 249 189 249 214 c 0
 249 230 l 0
 249 266 255 266 263 266 c 0
 266 266 l 0
 279 266 282 262 282 244 c 0
 282 211 l 0
 282 187 291 177 317 170 c 0
 378 153 421 108 436 49 c 0
 442 29 451 15 472 15 c 0
 508 15 l 0
 527 15 532 12 532 0 c 0
 532 -14 529 -18 506 -18 c 0
 498 -18 486 -18 472 -17 c 0
 447 -17 441 -35 433 -60 c 0
149 16 m 0
 185 16 216 15 223 15 c 0
 240 15 250 26 250 38 c 0
 250 109 l 0
 250 134 239 146 215 138 c 0
 172 123 139 89 126 44 c 0
 121 27 128 16 149 16 c 0
128 -46 m 0
 142 -89 176 -123 218 -138 c 0
 239 -145 249 -133 249 -109 c 0
 249 -77 250 -50 250 -42 c 0
 250 -25 238 -16 217 -16 c 0
 216 -16 188 -17 154 -17 c 0
 132 -17 121 -28 128 -46 c 0
EndSplineSet
EndChar

StartChar: eacute
Encoding: 233 233 196
Width: 532
Flags: W
HStem: -17 32<0.494076 87.6013 443.634 531.985>
VStem: 249 31<-265.937 -178.861 179.316 265.623>
LayerCount: 2
Fore
SplineSet
379 -16 m 0
 302 -16 l 0
 288 -16 280 -27 280 -41 c 0
 280 -108 l 0
 280 -134 291 -144 315 -137 c 0
 356 -122 389 -89 404 -48 c 0
 410 -29 401 -17 379 -16 c 0
433 -60 m 0
 414 -112 371 -153 318 -169 c 0
 291 -176 281 -188 281 -213 c 0
 281 -242 l 0
 281 -261 279 -266 267 -266 c 0
 255 -266 249 -263 249 -240 c 0
 249 -203 l 0
 249 -183 235 -175 213 -169 c 0
 157 -152 113 -108 97 -51 c 0
 91 -31 81 -17 58 -17 c 0
 37 -17 l 0
 1 -17 0 -14 0 -2 c 0
 0 0 l 0
 0 12 8 16 31 16 c 0
 61 16 l 0
 81 16 90 29 95 49 c 0
 110 113 154 155 212 170 c 0
 239 177 249 189 249 214 c 0
 249 230 l 0
 249 266 255 266 263 266 c 0
 266 266 l 0
 279 266 282 262 282 244 c 0
 282 211 l 0
 282 187 291 177 317 170 c 0
 378 153 421 108 436 49 c 0
 442 29 451 15 472 15 c 0
 508 15 l 0
 527 15 532 12 532 0 c 0
 532 -14 529 -18 506 -18 c 0
 498 -18 486 -18 472 -17 c 0
 447 -17 441 -35 433 -60 c 0
149 16 m 0
 185 16 216 15 223 15 c 0
 240 15 250 26 250 38 c 0
 250 109 l 0
 250 134 239 146 215 138 c 0
 172 123 139 89 126 44 c 0
 121 27 128 16 149 16 c 0
EndSplineSet
EndChar

StartChar: ecircumflex
Encoding: 234 234 197
Width: 532
Flags: W
HStem: -17 32<0.494076 87.6013 443.634 531.985>
VStem: 249 32<-265.961 -177.973 178.788 265.735>
LayerCount: 2
Fore
SplineSet
433 -60 m 0
 414 -112 371 -153 318 -169 c 0
 291 -176 281 -188 281 -213 c 0
 281 -242 l 0
 281 -261 279 -266 267 -266 c 0
 255 -266 249 -263 249 -240 c 0
 249 -203 l 0
 249 -183 235 -175 213 -169 c 0
 157 -152 113 -108 97 -51 c 0
 91 -31 81 -17 58 -17 c 0
 37 -17 l 0
 1 -17 0 -14 0 -2 c 0
 0 0 l 0
 0 12 8 16 31 16 c 0
 61 16 l 0
 81 16 90 29 95 49 c 0
 110 113 154 155 212 170 c 0
 239 177 249 189 249 214 c 0
 249 230 l 0
 249 266 255 266 263 266 c 0
 266 266 l 0
 279 266 282 262 282 244 c 0
 282 211 l 0
 282 187 291 177 317 170 c 0
 378 153 421 108 436 49 c 0
 442 29 451 15 472 15 c 0
 508 15 l 0
 527 15 532 12 532 0 c 0
 532 -14 529 -18 506 -18 c 0
 498 -18 486 -18 472 -17 c 0
 447 -17 441 -35 433 -60 c 0
EndSplineSet
EndChar

StartChar: edieresis
Encoding: 235 235 198
Width: 282
Flags: W
HStem: -17 33<0.494076 88.5637>
VStem: 249 32<-265.961 -176.708 178.788 265.735>
LayerCount: 2
Fore
SplineSet
281 -242 m 0
 281 -261 279 -266 267 -266 c 0
 255 -266 249 -263 249 -240 c 0
 249 -203 l 0
 249 -183 235 -175 213 -169 c 0
 157 -152 113 -108 97 -51 c 0
 91 -31 81 -17 58 -17 c 0
 37 -17 l 0
 1 -17 0 -14 0 -2 c 0
 0 0 l 0
 0 12 8 16 31 16 c 0
 61 16 l 0
 81 16 90 29 95 49 c 0
 110 113 154 155 212 170 c 0
 239 177 249 189 249 214 c 0
 249 230 l 0
 249 266 255 266 263 266 c 0
 266 266 l 0
 279 266 282 262 282 244 c 0
 282 60.174 281 -58.503 281 -242 c 0
EndSplineSet
EndChar

StartChar: igrave
Encoding: 236 236 199
Width: 283
Flags: W
HStem: -17 32<194.634 282.985>
VStem: 0 33<-265.966 -176.766 177.315 265.735>
LayerCount: 2
Fore
SplineSet
184 -60 m 0
 165 -112 122 -153 69 -169 c 0
 42 -176 32 -188 32 -213 c 0
 32 -242 l 0
 32 -261 30 -266 18 -266 c 0
 6 -266 0 -263 0 -240 c 0
 0 230 l 0
 0 266 6 266 14 266 c 0
 17 266 l 0
 30 266 33 262 33 244 c 0
 33 211 l 0
 33 187 42 177 68 170 c 0
 129 153 172 108 187 49 c 0
 193 29 202 15 223 15 c 0
 259 15 l 0
 278 15 283 12 283 0 c 0
 283 -14 280 -18 257 -18 c 0
 249 -18 237 -18 223 -17 c 0
 198 -17 192 -35 184 -60 c 0
EndSplineSet
EndChar

StartChar: iacute
Encoding: 237 237 200
Width: 151
Flags: W
HStem: 80 130<16.0469 109.75>
VStem: 111 40<-34.0462 115>
LayerCount: 2
Fore
SplineSet
64 210 m 0
 126 210 151 145 151 85 c 0
 151 -35 96 -118 62 -141 c 0
 41 -154 25 -139 41 -120 c 0
 67 -89 111 -26 111 50 c 0
 111 76 102 86 86 83 c 0
 78 82 76 80 64 80 c 0
 27 80 0 103 0 147 c 0
 0 182 29 210 64 210 c 0
EndSplineSet
EndChar

StartChar: icircumflex
Encoding: 238 238 201
Width: 182
Flags: W
HStem: 107 156<24.0778 134.144>
VStem: 140 42<-27.9576 111.471>
LayerCount: 2
Fore
SplineSet
77 263 m 0
 151 263 182 185 182 99 c 0
 182 -43 114 -125.5 77 -158 c 0
 54.6992 -177.588 38.001 -159.749 57 -136 c 0
 103 -78.5 140 -20 140 71 c 0
 140 98 133 112 117 112 c 0
 104 112 93 107 77 107 c 0
 33 107 0 134 0 187 c 0
 0 229 35 263 77 263 c 0
EndSplineSet
EndChar

StartChar: idieresis
Encoding: 239 239 202
Width: 214
Flags: W
HStem: 107 175<32.375 158.638>
VStem: 160 54<28.7132 177>
LayerCount: 2
Fore
SplineSet
22 -97 m 0
 99 -52 160 18 160 86 c 0
 160 99 154 107 140 107 c 0
 124 107 119 102 88 102 c 0
 57 102 0 123 0 192 c 0
 0 243 42 282 93 282 c 0
 172 282 214 217 214 137 c 0
 214 -10 110 -88 37 -127 c 0
 15 -139 0 -110 22 -97 c 0
EndSplineSet
EndChar

StartChar: eth
Encoding: 240 240 203
Width: 285
Flags: W
HStem: 112 151<34.0778 144.144>
VStem: 150 41<47.571 111.034>
LayerCount: 2
Fore
SplineSet
14 -38 m 0
 7 -38 0 -25 0 -14 c 0
 0 -9 4 -7 14 -4 c 0
 117 24 l 0
 142 30 150 40 150 71 c 0
 150 98 143 112 127 112 c 0
 114 112 103 107 87 107 c 0
 43 107 10 134 10 187 c 0
 10 229 45 263 87 263 c 0
 161 263 192 185 192 99 c 0
 192 87 191 74 191 62 c 0
 191 51 193 47 200 47 c 0
 204 47 209 48 215 50 c 0
 264 63 l 0
 267 64 269 64 271 64 c 0
 277 64 285 51 285 41 c 0
 285 36 281 34 271 31 c 0
 209 14 l 0
 185 8 182 4 174 -21 c 0
 151 -92 112 -136 87 -158 c 0
 80 -164 74 -167 69 -167 c 0
 63 -167 59 -162 59 -155 c 0
 59 -150 61 -143 67 -136 c 0
 92 -105 114 -74 129 -38 c 0
 132 -31 133 -25 133 -21 c 0
 133 -14 129 -11 122 -11 c 0
 119 -11 114 -12 109 -13 c 0
 24 -36 l 0
 20 -37 17 -38 14 -38 c 0
EndSplineSet
EndChar

StartChar: ntilde
Encoding: 241 241 204
Width: 284
Flags: W
HStem: 112 151<34.0778 145.406>
VStem: 10 182<128.398 205.831> 146 39<6.74254 34.5>
LayerCount: 2
Fore
SplineSet
148 88 m 0xa0
 148 101 139 112 127 112 c 0
 114 112 103 107 87 107 c 0
 43 107 10 134 10 187 c 0
 10 229 45 263 87 263 c 0
 156 263 188 195 192 116 c 0xc0
 193 97 196 91 206 91 c 0
 209 91 212 91 216 92 c 0
 263 105 l 0
 266 106 269 106 271 106 c 0
 277 106 284 93 284 83 c 0
 284 77 280 76 270 73 c 0
 213 57 l 0
 195 53 185 45 185 17 c 0
 185 9 188 6 195 6 c 0
 198 6 201 6 206 7 c 0
 263 23 l 0
 266 24 269 24 271 24 c 0
 277 24 284 11 284 1 c 0
 284 -5 280 -6 270 -9 c 0
 194 -30 l 0
 172 -36 168 -41 158 -62 c 0
 135 -109 107 -141 87 -158 c 0
 80 -164 74 -166 69 -166 c 0
 63 -166 59 -162 59 -155 c 0
 59 -150 61 -143 67 -136 c 0
 81 -118 94 -100 106 -82 c 0
 111 -73 114 -67 114 -63 c 0
 114 -58 111 -56 104 -56 c 0
 100 -56 94 -57 87 -59 c 0
 23 -76 l 0
 19 -77 16 -78 14 -78 c 0
 6 -78 0 -67 0 -55 c 0
 0 -49 4 -47 13 -44 c 0
 112 -17 l 0
 135 -11 140 -9 145 16 c 0
 146 19 146 22 146 24 c 0
 146 32 142 35 135 35 c 0
 131 35 127 34 121 33 c 0
 23 6 l 0
 19 5 16 4 14 4 c 0
 6 4 0 15 0 27 c 0
 0 33 4 35 13 38 c 0
 126 68 l 0
 141 72 148 78 148 88 c 0xa0
EndSplineSet
EndChar

StartChar: ograve
Encoding: 242 242 205
Width: 162
Flags: W
HStem: -76 152<38.0194 124.668> 242 52<263.308 284.186> 476 20G<146.5 158> 476 20G<146.5 158>
VStem: 0 162<-38.7012 39.2178> 139 30<403.203 495.21> 139 23<78.6558 171.638 230.914 310.743> 244 62<252.719 279.503> 282 20<54.0791 96.7885> 295 25<80.8431 223.955>
LayerCount: 2
Fore
SplineSet
385 337 m 0xe4
 390 337 397 328 397 322 c 0
 397 317 392 314 383 310 c 0
 322 277 l 0
 313 273 306 264 306 252 c 0xe5
 306 249 307 244 308 240 c 0
 316 219 320 195 320 167 c 0xe040
 320 125 310 84 302 63 c 0
 299 57 295 54 291 54 c 0
 286 54 282 58 282 67 c 0
 282 72 l 0xe080
 288 105 295 121 295 164 c 0
 295 187 290 208 281 228 c 0
 276 238 270 242 263 242 c 0
 257 242 250 240 242 235 c 0
 186 206 l 0
 179 202 162 188 162 169 c 0xe240
 162 22 l 0
 162 -29 121 -76 59 -76 c 0
 28 -76 0 -55 0 -21 c 0xe8
 0 29 41 76 103 76 c 0
 128 76 139 78 139 100 c 0
 139 150 l 0
 139 165 136 172 128 172 c 0
 123 172 118 170 111 166 c 0
 54 136 l 0
 49 134 46 132 43 132 c 0
 39 132 33 141 33 147 c 0
 33 153 37 155 44 159 c 0
 108 193 l 0
 130 204 139 211 139 238 c 0xe2
 139 477 l 0
 139 495 144 496 149 496 c 0
 150 496 l 0
 166 496 163 465 169 436 c 0
 178 389 229 358 269 308 c 0
 277 299 284 294 292 294 c 0
 298 294 304 296 312 300 c 0
 374 333 l 0
 379 336 383 337 385 337 c 0xe4
188 235 m 0
 229 256 l 0
 238 262 244 267 244 273 c 0
 244 293 199 312 181 312 c 0
 169 312 162 305 162 283 c 0
 162 250 l 0xc3
 162 236 166 230 174 230 c 0
 177 230 182 232 188 235 c 0
EndSplineSet
EndChar

StartChar: oacute
Encoding: 243 243 206
Width: 122
Flags: W
VStem: 0 26<-50.0042 42.8118 89.8866 217.998> 96 26<-215.998 -87.226 -40.791 51.8219>
LayerCount: 2
Fore
SplineSet
0 208 m 0
 0 218 1 218 13 218 c 0
 24 218 26 219 26 206 c 0
 26 109 l 0
 26 88 34 87 54 91 c 0
 96 100 l 0
 112 103 122 106 122 85 c 0
 122 -206 l 0
 122 -216 122 -216 110 -216 c 0
 99 -216 96 -217 96 -204 c 0
 96 -109 l 0
 96 -89 92 -84 69 -89 c 0
 26 -98 l 0
 10 -101 0 -104 0 -83 c 0
 0 208 l 0
97 33 m 0
 97 53 91 55 70 51 c 0
 48 46 l 0
 28 41 25 33 25 13 c 0
 25 -31 l 0
 25 -50 31 -54 52 -49 c 0
 73 -44 l 0
 90 -40 97 -35 97 -11 c 0
 97 33 l 0
EndSplineSet
EndChar

StartChar: ocircumflex
Encoding: 244 244 207
Width: 282
Flags: W
HStem: 4 22<22.0095 75.2246> 148 20<160.012 201.708> 316 34<82.4603 200.396>
VStem: 0 22<171.12 259.908> 230 52<182.816 292.38>
LayerCount: 2
Fore
SplineSet
160 350 m 0
 232 350 282 304 282 242 c 0
 282 180 228 148 182 148 c 0
 168 148 159 144 154 124 c 0
 146 93 135 76 127 64 c 0
 120 52 118 42 135 38 c 0
 160 33 173 29 183 25 c 0
 203 17 207 22 225 40 c 0
 243 57 261 47 244 30 c 0
 199 -20 l 0
 186 -34 174 -34 157 -25 c 0
 125 -8 74 3 44 4 c 0
 33 4 22 5 22 15 c 0
 22 24 35 25 44 26 c 0
 78 31 87 44 97 60 c 0
 115 89 107 133 94 163 c 0
 85 187 75 202 69 220 c 0
 67 230 65 242 73 248 c 0
 85 256 117 277 119 279 c 0
 133 289 141 277 135 270 c 0
 123 254 119 247 125 230 c 0
 127 220 132 203 138 191 c 0
 146 172 153 168 176 168 c 0
 206 168 230 200 230 243 c 0
 230 297 180 316 139 316 c 0
 70 316 22 271 22 221 c 0
 22 194 29 181 33 171 c 0
 43 150 25 147 15 162 c 0
 7 174 0 196 0 221 c 0
 0 299 79 350 160 350 c 0
EndSplineSet
EndChar

StartChar: otilde
Encoding: 245 245 208
Width: 234
Flags: W
HStem: 68 63<2.71875 47.7188 187.327 230.473> 118 65<77.1406 103.953 129.13 156.845> 169 62<1.99631 47.7188 174.888 231.839>
VStem: 75 82<130.989 168.669> 87 60<22.3129 92.1202 205.88 278.192> 105 22<72.976 115.738 186.693 226.051>
LayerCount: 2
Fore
SplineSet
184 170 m 0x48
 171 170 157 160 157 150 c 0x50
 157 140 173 130 186 130 c 0
 199 130 l 0
 218 130 233 114 233 98 c 0
 233 82 220 67 206 67 c 0
 200 67 194 69 187 73 c 0
 169 83 175 103 158 113 c 0
 153 116 149 118 144 118 c 0
 135 118 127 111 127 97 c 0x44
 127 77 147 71 147 51 c 0
 147 31 133 21 115 21 c 0
 97 21 87 30 87 50 c 0x48
 87 70 105 74 105 93 c 0
 105 108 96 118 86 118 c 0x44
 83 118 80 116 77 114 c 0
 60 104 66 84 48 74 c 0
 42 70 36 68 30 68 c 0
 16 68 0 81 0 98 c 0
 0 112 15 131 34 131 c 0
 40 131 45 130 51 130 c 0
 65 130 75 140 75 150 c 0
 75 166 59 169 48 169 c 0
 45 169 41 168 38 168 c 0
 17 168 0 184 0 201 c 0
 0 219 15 231 30 231 c 0xb0
 36 231 42 229 48 226 c 0
 68 215 59 186 89 186 c 0
 100 186 104 192 104 205 c 0
 104 224 86 229 86 249 c 0
 86 269 99 279 117 279 c 0
 135 279 147 270 147 250 c 0
 147 230 129 222 129 203 c 0
 129 191 135 183 145 183 c 0
 149 183 153 185 158 187 c 0
 177 198 172 230 206 230 c 0
 220 230 234 221 234 200 c 0
 234 186 218 170 199 170 c 0
 184 170 l 0x48
EndSplineSet
EndChar

StartChar: odieresis
Encoding: 246 246 209
Width: 621
Flags: W
HStem: 160 94<206.739 413.89>
LayerCount: 2
Fore
SplineSet
13 -16 m 0
 4 -16 0 -10 0 -2 c 0
 0 1 0 3 1 6 c 0
 63 166 184 254 310 254 c 0
 437 254 558 166 619 6 c 0
 620 3 621 1 621 -2 c 0
 621 -10 616 -16 608 -16 c 0
 602 -16 596 -12 592 -4 c 0
 532 103 434 160 310 160 c 0
 187 160 89 103 29 -4 c 0
 24 -12 19 -16 13 -16 c 0
EndSplineSet
EndChar

StartChar: uni0099
Encoding: 153 153 210
Width: 292
Flags: W
HStem: 335 281G<0 25 255 287.875> 616 20G<255 287.875>
VStem: 0 26<-88 -40.4128 108.27 164.221 322.124 335> 259 33<241.735 386.975 478.649 632.444>
LayerCount: 2
Fore
SplineSet
255 632 m 1xb0
 286 636 l 1x70
 286 636 292 604 292 572 c 0
 292 517 283 470 266 428 c 1
 278 404 292 366 292 316 c 0
 292 198 209 109 128 49 c 0
 63 1 26 -40 26 -88 c 1
 0 -88 l 1
 0 335 l 1
 25 335 l 1
 25 329 32 322 41 322 c 0
 173 322 259 447 259 571 c 0
 259 605 255 632 255 632 c 1xb0
26 120 m 0
 26 114 33 108 42 108 c 0
 72 108 104 116 127 127 c 0
 213 168 259 242 259 315 c 0
 259 343 253 367 246 388 c 1
 218 338 178 296 130 259 c 0
 66 209 26 165 26 120 c 0
EndSplineSet
EndChar

StartChar: oslash
Encoding: 248 248 211
Width: 621
Flags: W
HStem: 160 94<277.555 343.566> 403 20G<253.5 269 353.5 369>
VStem: 244 33<-18.9978 148.49 254.377 422.998> 344 33<-18.9978 149.02 254.492 422.998>
LayerCount: 2
Fore
SplineSet
13 -16 m 0
 4 -16 0 -10 0 -2 c 0
 0 1 0 3 1 6 c 0
 47 124 124 202 212 236 c 0
 231 243 244 248 244 274 c 0
 244 407 l 0
 244 421 246 423 261 423 c 0
 277 423 277 420 277 408 c 0
 277 279 l 0
 277 250 293 254 310 254 c 0
 327 254 344 251 344 279 c 0
 344 407 l 0
 344 421 346 423 361 423 c 0
 377 423 377 420 377 408 c 0
 377 272 l 0
 377 248 381 246 402 238 c 0
 493 206 573 127 619 6 c 0
 620 3 621 1 621 -2 c 0
 621 -10 616 -16 608 -16 c 0
 602 -16 596 -12 592 -4 c 0
 548 75 483 126 403 148 c 0
 383 153 377 150 377 127 c 0
 377 -3 l 0
 377 -17 376 -19 360 -19 c 0
 346 -19 344 -16 344 -2 c 0
 344 131 l 0
 344 154 336 160 310 160 c 0
 283 160 277 153 277 128 c 0
 277 -3 l 0
 277 -17 276 -19 260 -19 c 0
 246 -19 244 -16 244 -2 c 0
 244 123 l 0
 244 147 234 153 210 146 c 0
 134 123 72 72 29 -4 c 0
 24 -12 19 -16 13 -16 c 0
EndSplineSet
EndChar

StartChar: ugrave
Encoding: 249 249 212
Width: 621
Flags: W
HStem: 403 20G<213.5 229 303.5 319 393.5 409>
VStem: 204 33<-18.9978 135.89 249.12 422.998> 294 33<-18.9978 156.925 253.967 422.998> 384 33<-18.9978 135.653 249.966 422.998>
LayerCount: 2
Fore
SplineSet
13 -16 m 0
 4 -16 0 -10 0 -2 c 0
 0 1 0 3 1 6 c 0
 39 106 101 177 172 217 c 0
 196 231 204 236 204 267 c 0
 204 407 l 0
 204 421 206 423 221 423 c 0
 237 423 237 420 237 408 c 0
 237 274 l 0
 237 251 242 246 264 250 c 0
 287 254 294 260 294 282 c 0
 294 407 l 0
 294 421 296 423 311 423 c 0
 327 423 327 420 327 408 c 0
 327 285 l 0
 327 260 335 255 354 251 c 0
 378 246 384 251 384 275 c 0
 384 407 l 0
 384 421 386 423 401 423 c 0
 417 423 417 420 417 408 c 0
 417 265 l 0
 417 240 421 232 443 221 c 0
 517 181 580 108 619 6 c 0
 620 3 621 1 621 -2 c 0
 621 -10 616 -16 608 -16 c 0
 602 -16 596 -12 592 -4 c 0
 556 61 505 107 443 134 c 0
 424 142 417 138 417 117 c 0
 417 -3 l 0
 417 -17 416 -19 400 -19 c 0
 386 -19 384 -16 384 -2 c 0
 384 126 l 0
 384 148 378 154 357 157 c 0
 334 160 327 153 327 133 c 0
 327 -3 l 0
 327 -17 326 -19 310 -19 c 0
 296 -19 294 -16 294 -2 c 0
 294 132 l 0
 294 154 284 159 264 157 c 0
 241 155 237 147 237 127 c 0
 237 -3 l 0
 237 -17 236 -19 220 -19 c 0
 206 -19 204 -16 204 -2 c 0
 204 115 l 0
 204 138 194 142 172 132 c 0
 113 105 65 59 29 -4 c 0
 24 -12 19 -16 13 -16 c 0
EndSplineSet
EndChar

StartChar: uacute
Encoding: 250 250 213
Width: 621
Flags: W
HStem: 160 94<287.126 333.78> 403 20G<183.5 199 263.5 279 343.5 359 423.5 439>
VStem: 174 33<-18.9978 121.809 241.364 422.998> 254 33<-18.9978 151.515 254.458 422.998> 334 33<-18.9978 151.63 254.694 422.998> 414 33<-18.9978 121.288 241.998 422.998>
LayerCount: 2
Fore
SplineSet
13 -16 m 0
 4 -16 0 -10 0 -2 c 0
 0 1 0 3 1 6 c 0
 35 94 87 160 148 202 c 0
 168 216 174 226 174 251 c 0
 174 407 l 0
 174 421 176 423 191 423 c 0
 207 423 207 420 207 408 c 0
 207 266 l 0
 207 242 213 237 231 242 c 0
 248 247 254 255 254 279 c 0
 254 407 l 0
 254 421 256 423 271 423 c 0
 287 423 287 420 287 408 c 0
 287 281 l 0
 287 262 290 254 310 254 c 0
 330 254 334 264 334 282 c 0
 334 407 l 0
 334 421 336 423 351 423 c 0
 367 423 367 420 367 408 c 0
 367 277 l 0
 367 255 374 247 392 242 c 0
 410 236 414 242 414 264 c 0
 414 407 l 0
 414 421 416 423 431 423 c 0
 447 423 447 420 447 408 c 0
 447 245 l 0
 447 222 453 216 470 204 c 0
 532 162 585 95 619 6 c 0
 620 3 621 1 621 -2 c 0
 621 -10 616 -16 608 -16 c 0
 602 -16 596 -12 592 -4 c 0
 561 51 520 93 471 120 c 0
 454 130 447 122 447 104 c 0
 447 -3 l 0
 447 -17 446 -19 430 -19 c 0
 416 -19 414 -16 414 -2 c 0
 414 123 l 0
 414 141 408 147 391 151 c 0
 372 156 367 150 367 130 c 0
 367 -3 l 0
 367 -17 366 -19 350 -19 c 0
 336 -19 334 -16 334 -2 c 0
 334 136 l 0
 334 153 331 160 310 160 c 0
 291 160 287 153 287 133 c 0
 287 -3 l 0
 287 -17 286 -19 270 -19 c 0
 256 -19 254 -16 254 -2 c 0
 254 133 l 0
 254 152 247 155 230 151 c 0
 214 148 207 140 207 123 c 0
 207 -3 l 0
 207 -17 206 -19 190 -19 c 0
 176 -19 174 -16 174 -2 c 0
 174 106 l 0
 174 126 165 129 147 119 c 0
 99 91 59 50 29 -4 c 0
 24 -12 19 -16 13 -16 c 0
EndSplineSet
EndChar

StartChar: ucircumflex
Encoding: 251 251 214
Width: 621
Flags: W
HStem: -16 33<56.998 564.485> 160 94<206.016 415.047>
LayerCount: 2
Fore
SplineSet
13 -16 m 0
 4 -16 0 -10 0 -2 c 0
 0 1 0 3 1 6 c 0
 63 166 184 254 310 254 c 0
 437 254 558 166 619 6 c 0
 620 3 621 1 621 -2 c 0
 621 -10 616 -16 608 -16 c 0
 13 -16 l 0
70 17 m 0
 549 17 l 0
 568 17 574 26 562 42 c 0
 501 119 415 160 310 160 c 0
 207 160 121 120 61 44 c 0
 49 29 47 17 70 17 c 0
EndSplineSet
EndChar

StartChar: udieresis
Encoding: 252 252 215
Width: 621
Flags: W
HStem: -254 94<205.953 414.984> -17 33<56.5147 564.002>
LayerCount: 2
Fore
SplineSet
608 16 m 0
 617 16 621 10 621 2 c 0
 621 -1 621 -3 620 -6 c 0
 558 -166 437 -254 311 -254 c 0
 184 -254 63 -166 2 -6 c 0
 1 -3 0 -1 0 2 c 0
 0 10 5 16 13 16 c 0
 608 16 l 0
551 -17 m 0
 72 -17 l 0
 53 -17 47 -26 59 -42 c 0
 120 -119 206 -160 311 -160 c 0
 414 -160 500 -120 560 -44 c 0
 572 -29 574 -17 551 -17 c 0
EndSplineSet
EndChar

StartChar: yacute
Encoding: 253 253 216
Width: 336
Flags: W
HStem: -19 37<105.278 230.139>
VStem: 0 38<84.4282 136.854>
LayerCount: 2
Fore
SplineSet
315 136 m 0
 328 136 336 134 336 125 c 0
 336 122 335 118 334 114 c 0
 310 36 244 -19 168 -19 c 0
 88 -19 25 40 2 115 c 0
 1 119 0 123 0 126 c 0
 0 135 12 137 24 137 c 0
 32 137 35 134 38 125 c 0
 57 62 108 18 168 18 c 0
 225 18 278 60 298 124 c 0
 301 134 305 136 315 136 c 0
EndSplineSet
EndChar

StartChar: thorn
Encoding: 254 254 217
Width: 336
Flags: W
HStem: -18 37<105.861 230.722>
VStem: 298 38<-136.854 -84.4282>
LayerCount: 2
Fore
SplineSet
21 -136 m 0
 8 -136 0 -134 0 -125 c 0
 0 -122 1 -118 2 -114 c 0
 26 -36 92 19 168 19 c 0
 248 19 311 -40 334 -115 c 0
 335 -119 336 -123 336 -126 c 0
 336 -135 324 -137 312 -137 c 0
 304 -137 301 -134 298 -125 c 0
 279 -62 228 -18 168 -18 c 0
 111 -18 58 -60 38 -124 c 0
 35 -134 31 -136 21 -136 c 0
EndSplineSet
EndChar
